<svg xmlns="http://www.w3.org/2000/svg" version="1.1" xmlns:xlink="http://www.w3.org/1999/xlink" xmlns:svgjs="http://svgjs.com/svgjs" width="395.5989003095975" height="494.4986253869969"><g transform="matrix(0.5560623763012157,0,0,0.5560623763012157,-0.00000872241400884377,49.449832604189396)"><svg xmlns="http://www.w3.org/2000/svg" version="1.1" xmlns:xlink="http://www.w3.org/1999/xlink" xmlns:svgjs="http://svgjs.com/svgjs" width="711.429" height="711.429"><svg xmlns="http://www.w3.org/2000/svg" version="1.1" xmlns:xlink="http://www.w3.org/1999/xlink" xmlns:svgjs="http://svgjs.com/svgjs" width="711.429" height="711.429" class="class-r2um1xoiu"><svg xmlns="http://www.w3.org/2000/svg" viewBox="0 0 188.232 188.232" height="711.429" width="711.429" class="class-r2um1xoiu">
    <circle r="94.116" cy="143.253" cx="111.503" transform="translate(-17.387 -49.137)" class="fill-color-0"></circle>
</svg></svg><style>.class-r2um1xoiu .fill-skin {
  fill: #f1d9b1;
}
.class-r2um1xoiu .fill-skin-shadow {
  fill: #ebc78d;
}
.class-r2um1xoiu .fill-hair {
  fill: #c0c6b5;
}
.class-r2um1xoiu .fill-hair-shadow {
  fill: #aeb59f;
}
.class-r2um1xoiu .fill-white {
  fill: #fbfcfb;
}
.class-r2um1xoiu .fill-white-shadow {
  fill: #dee6de;
}
.class-r2um1xoiu .fill-white-shadow-extra {
  fill: #c4d2c4;
}
.class-r2um1xoiu .stop-color-white {
  stop-color: #fbfcfb;
}
.class-r2um1xoiu .stop-color-white-shadow {
  stop-color: #dee6de;
}
.class-r2um1xoiu .stop-color-white-shadow-extra {
  stop-color: #c4d2c4;
}
.class-r2um1xoiu .stroke-white {
  stroke: #fbfcfb;
}
.class-r2um1xoiu .stroke-white-shadow {
  stroke: #dee6de;
}
.class-r2um1xoiu .stroke-white-shadow-extra {
  stroke: #b4c6b4;
}
.class-r2um1xoiu .fill-yellow {
  fill: #eaea00;
}
.class-r2um1xoiu .fill-yellow-shadow {
  fill: #dada00;
}
.class-r2um1xoiu .fill-yellow-shadow-extra {
  fill: #cbcb00;
}
.class-r2um1xoiu .stop-color-yellow {
  stop-color: #eaea00;
}
.class-r2um1xoiu .stop-color-yellow-shadow {
  stop-color: #dada00;
}
.class-r2um1xoiu .stop-color-yellow-shadow-extra {
  stop-color: #cbcb00;
}
.class-r2um1xoiu .fill-green {
  fill: #2ba24c;
}
.class-r2um1xoiu .fill-green-shadow {
  fill: #279244;
}
.class-r2um1xoiu .fill-green-shadow-extra {
  fill: #23833d;
}
.class-r2um1xoiu .stop-color-green {
  stop-color: #2ba24c;
}
.class-r2um1xoiu .stop-color-green-shadow {
  stop-color: #279244;
}
.class-r2um1xoiu .stop-color-green-shadow-extra {
  stop-color: #23833d;
}
.class-r2um1xoiu .stroke-green {
  stroke: #2ba24c;
}
.class-r2um1xoiu .stroke-green-shadow {
  stroke: #279244;
}
.class-r2um1xoiu .stroke-green-shadow-extra {
  stroke: #217a39;
}
.class-r2um1xoiu .fill-red {
  fill: #ce3827;
}
.class-r2um1xoiu .fill-red-shadow {
  fill: #b93223;
}
.class-r2um1xoiu .fill-red-shadow-extra {
  fill: #a62d1f;
}
.class-r2um1xoiu .stop-color-red {
  stop-color: #ce3827;
}
.class-r2um1xoiu .stop-color-red-shadow {
  stop-color: #b93223;
}
.class-r2um1xoiu .stop-color-red-shadow-extra {
  stop-color: #a62d1f;
}
.class-r2um1xoiu .fill-orange {
  fill: #f09c25;
}
.class-r2um1xoiu .fill-orange-shadow {
  fill: #e98f10;
}
.class-r2um1xoiu .fill-orange-shadow-extra {
  fill: #d1800e;
}
.class-r2um1xoiu .stop-color-orange {
  stop-color: #f09c25;
}
.class-r2um1xoiu .stop-color-orange-shadow {
  stop-color: #e98f10;
}
.class-r2um1xoiu .stop-color-orange-shadow-extra {
  stop-color: #d1800e;
}
.class-r2um1xoiu .fill-blue {
  fill: #3b7ded;
}
.class-r2um1xoiu .fill-blue-shadow {
  fill: #1f6bea;
}
.class-r2um1xoiu .fill-blue-shadow-extra {
  fill: #145eda;
}
.class-r2um1xoiu .stop-color-blue {
  stop-color: #3b7ded;
}
.class-r2um1xoiu .stop-color-blue-shadow {
  stop-color: #1f6bea;
}
.class-r2um1xoiu .stop-color-blue-shadow-extra {
  stop-color: #145eda;
}
.class-r2um1xoiu .fill-color-0 {
  fill: #c0c6b5;
}
.class-r2um1xoiu .fill-color-0-shadow {
  fill: #aeb59f;
}
.class-r2um1xoiu .fill-color-0-shadow-extra {
  fill: #949d80;
}
.class-r2um1xoiu .stop-color-color-0 {
  stop-color: #c0c6b5;
}
.class-r2um1xoiu .fill-color-1 {
  fill: #fefefe;
}
.class-r2um1xoiu .fill-color-1-shadow {
  fill: #e4e4e4;
}
.class-r2um1xoiu .fill-color-1-shadow-extra {
  fill: #bfbfbf;
}
.class-r2um1xoiu .fill-color-2 {
  fill: #f7f8f7;
}
.class-r2um1xoiu .fill-color-2-shadow {
  fill: #dce1dc;
}
.class-r2um1xoiu .fill-color-2-shadow-extra {
  fill: #b5bfb5;
}
.class-r2um1xoiu .fill-color-3 {
  fill: #566554;
}
.class-r2um1xoiu .fill-color-3-shadow {
  fill: #4d5b4b;
}
.class-r2um1xoiu .fill-color-3-shadow-extra {
  fill: #404c3f;
}
.class-r2um1xoiu .fill-body-detail {
  fill: #ffffff;
}
.class-r2um1xoiu .stroke-color-0 {
  stroke: #c0c6b5;
}
.class-r2um1xoiu .stroke-color-0-shadow {
  stroke: #aeb59f;
}
.class-r2um1xoiu .stroke-color-0-shadow-extra {
  stroke: #949d80;
}
.class-r2um1xoiu .stroke-color-1 {
  stroke: #fefefe;
}
.class-r2um1xoiu .stroke-color-1-shadow {
  stroke: #e4e4e4;
}
.class-r2um1xoiu .stroke-color-1-shadow-extra {
  stroke: #bfbfbf;
}
.class-r2um1xoiu .stroke-color-2 {
  stroke: #f7f8f7;
}
.class-r2um1xoiu .stroke-color-2-shadow {
  stroke: #dce1dc;
}
.class-r2um1xoiu .stroke-color-2-shadow-extra {
  stroke: #b5bfb5;
}
.class-r2um1xoiu .stroke-color-3 {
  stroke: #566554;
}
.class-r2um1xoiu .stroke-color-3-shadow {
  stroke: #4d5b4b;
}
.class-r2um1xoiu .stroke-color-3-shadow-extra {
  stroke: #404c3f;
}</style></svg></g><g transform="matrix(1.306558421953102,0,0,1.3065584219531015,21.90666700843515,105.0494989158654)"><svg xmlns="http://www.w3.org/2000/svg" version="1.1" xmlns:xlink="http://www.w3.org/1999/xlink" xmlns:svgjs="http://svgjs.com/svgjs" width="103.76" height="298.09"><svg xmlns="http://www.w3.org/2000/svg" version="1.1" xmlns:xlink="http://www.w3.org/1999/xlink" xmlns:svgjs="http://svgjs.com/svgjs" width="103.76" height="298.09" class="class-836bnivn2"><svg xmlns="http://www.w3.org/2000/svg" viewBox="0 0 103.76 298.09" class="class-836bnivn2">
    <g data-name="Layer 2">
        <g data-name="Layer 1">
            <path d="M10.22 288.2l-2.82 2.52.8 2.43s4.48 2.11 6.86 3.34c4.29 2.24 11.13 2 15.32 0a1.44 1.44 0 00.55-1.1v-.76z" class="fill-color-0"></path>
            <path d="M18.2 279.85a8.53 8.53 0 002.3 8.54 26.11 26.11 0 0010 5.58.64.64 0 01.05 1.22 37.65 37.65 0 01-4.08 1.18 18.8 18.8 0 01-10.19-.78 6 6 0 01-.89-.41l-8-4.46S7 287.83 10 282.39s5.24-9.39 5.24-9.39z" class="fill-hair-shadow"></path>
            <path d="M10.22 281.87a95.06 95.06 0 004.23-8.87l4.55 4.48s-1.09 4.88-1.11 5.19c-2.55.67-5.26 2.24-7.67-.8z" class="fill-color-0"></path>
            <path d="M17.7 123.58s13.18 85.66 8.88 99.67C21.24 240.64 8 274.34 8 274.34c.2.68 7.14 6.05 11.39 4.7 0 0 21.45-52.25 22-66s0-82.92 0-82.92z" class="fill-color-1-shadow"></path>
            <path d="M61.78 293.6l.4 1.54s6.58.61 14 1c0 0 9 .46 11.17-1.31v-1.45z" class="fill-color-0"></path>
            <path d="M68.29 275.94s1.66 9.15 5.8 11c3.42 1.52 10.57 4.89 12.93 6a.53.53 0 010 1c-1.11.54-3.81 1.2-10.33.89-10.44-.5-14.92-1.16-14.92-1.16s-1.11-4.74-.11-8.21 1.09-10.22 1.09-13.51 5.54 3.99 5.54 3.99z" class="fill-hair-shadow"></path>
            <path d="M69.7 280.92c-.34-1.26-1.41-7.67-1.41-7.67s-2.3.47-3.56-1l-2-.28c0 2.25 0 6-.39 9.28 2.35 1.08 4.81.81 7.36-.33z" class="fill-color-0"></path>
            <path d="M36.85 152.38s16.21 63.13 18.25 73.83c6.35 33.22 5.38 49.49 5.38 49.49s7.83 1.09 11.82-.71c0 0-10.35-68.19-12.06-81.3s-6.85-55.64-6.56-70.11-2.57-22.68-2.57-22.68H21.44S16 113 17.7 123.58" class="fill-color-1-shadow"></path>
            <path d="M22.58 42s5.64-7.77 14.75-.82c7.57 31.86 14.15 62.66 14 94.86L43 139.33l-2.26-7.41-.15 12.29-14-3.88z" class="fill-color-0"></path>
            <path d="M43 58.52l-3.88-14-1.28.48a12.42 12.42 0 00-.51-3.84 14.11 14.11 0 00-5-2.56l1.9 2.48.18 3.24a2.42 2.42 0 01-2.06 2.56 11.25 11.25 0 01-2.82-.07v-4.25l-1-2.61-4.74.79a9.41 9.41 0 00-.77.75c-.12.24-.27.53-.43.88l-2.06 8.38c.83 0 0-1.16 1.15-1.33a72.27 72.27 0 019.56-.36c2 0 4.77.31 5.29 2.28l1.64 11.47a27.4 27.4 0 01-2.92.65L26.69 65l5.87 72.89 7.49-23.78.72 17.86L43 142.33l8.3-5.28z" class="fill-color-0-shadow"></path>
            <path d="M77.58 97.33l9.64 2.07a7.16 7.16 0 014.86-2.46A14.49 14.49 0 0098 95.25s-1.24 4-2.92 4.15 5.73-.92 7.27-2.71 2.3.57 0 2.71-5.12 6-11.77 6-8.48-2.71-8.48-2.71l-6.58-1" class="fill-skin"></path>
            <path d="M103 98.63a21.54 21.54 0 01-14.75 4.2c-.4-2.09 1.72-5.44 1.72-5.44a8.17 8.17 0 00-2.76 2l-4.69-1-1.82 4.07 1.35.21s1.84 2.71 8.48 2.71 9.47-3.83 11.77-6a6.17 6.17 0 00.7-.75z" class="fill-skin-shadow"></path>
            <path d="M8.1 46.84s8.72 37 9.6 51.32c1.3 21.18-6.91 76.68-6.91 76.68 7.13 4 15.11 8.34 23.58 7.16l-.85-85.17a44.73 44.73 0 00-.81-8l-9.34-48z" class="fill-white-shadow"></path>
            <path d="M82.63 98.17l3.14.82-1.15 8.27-2.78-.76.79-8.33z" class="fill-color-0-shadow"></path>
            <path d="M43 49l5.06 2.36s4.1 14.51 9.62 30.6C61.89 94.18 84 98 84 98l-2 13.45s-21-8.07-30.79-18" class="fill-white-shadow"></path>
            <path d="M40.56 42.56l-3.23-1.37 7.92 47.38 10 91.64c4.23-4.34 3.87-5 5.71-8.55 0 0-11.74-92.57-11.79-110.17-.01-15.49-8.61-18.93-8.61-18.93z" class="fill-white-shadow"></path>
            <path d="M25.79 41.11v-9h8.45v9a6.85 6.85 0 01-8.45 0z" class="fill-skin"></path>
            <path d="M38.08 41.49l-3.68-2.17c3.66 5.21 7.49 30.74 11.3 53.47l-.7-31.3-2-3 2.67.78zM34.37 182l-.85-85.23a44.22 44.22 0 00-.8-7.87c-4.12-21.17-6.93-39.23-6.93-49.58l-4.17 2.08L19 61.49l5.35-2-2.29 6.6 7.18 19.78a37.62 37.62 0 012.25 12.82L27 181.75a20 20 0 007.37.25z" class="fill-white"></path>
            <path d="M18.87 92.46C22.69 88 26.75 82.73 26.54 81c-.39-3.18 1-11.22 4.35-14.78a17.22 17.22 0 010 6.65c-.72 3.77.31 4.71.31 4.71s1.08-5.58 1.92-4.68-.12 6.94 0 10.1-6.29 6.65-6.29 6.65-2.63 3.93-6.14 8.66" class="fill-skin"></path>
            <path d="M21.52 87.54l2.06-2.1s3.53.93 3.71 8.63l-2.71 2.64z" class="fill-color-0-shadow"></path>
            <path d="M21.92 86.48c3.25 1 3.54 8.14 4.51 12.44C19 104 11.92 108 4.07 114.06c0 0-11.44-25.91 4-67.22l6.69 3.44 1.64 15.15c-5 8.57-7.34 21.09-5.63 30.8z" class="fill-white-shadow"></path>
            <path d="M43.48 9.82s1.06 1.93 0 7.49c-.93 4.81 2.07 5.61 2.07 5.61a1.55 1.55 0 01-.51 2 1.41 1.41 0 00-.1 1.94L44.1 28a1.44 1.44 0 01-.45 1.73s-1.24.72-.56 2.84c0 0-.1 4.09-4.85 2.51s-12.15-3.24-12.15-3.24-12.39-5.12-7.88-16.6S39.42 2.49 43.48 9.82z" class="fill-skin"></path>
            <path d="M42.47 20.33l-1.68.44-.14.78a3.58 3.58 0 01-2.65-.82c1.53-.87 4.47-.4 4.47-.4z" class="fill-hair-shadow"></path>
            <path d="M34.24 37.25V32.1l-8.45-1.79v10.8a7.19 7.19 0 003.75 1.45c.78-4 3.01-5.09 4.7-5.31z" class="fill-skin-shadow"></path>
            <path d="M42.14 34.78C28.61 29.65 37 11.56 37 11.56S40.27 7 27.9 8.85c-5.32.8-8.57 6.55-10.56 12.85 1 7 8.75 10.17 8.75 10.17s7.41 1.67 12.15 3.24c2.04.68 3.22.31 3.9-.33z" class="fill-skin-shadow"></path>
            <path d="M34.37 11.28s-1.73 5.09-4.35 8c-.63.69-1.3 4.85-2 5.19 0 0 1.07-7.49-3.42-7.2-2.58.16-4.56 5.7-2 7.41a8 8 0 013.21 3.71s1.36 5.61-3.21 7.08c0 0 1.89-3.37-1.19-5.08S10.75 23 13.13 12.7c0 0 .77-4 4.08-5.42 0 0 5.81-9.93 17.6-6.6C43 3 46.14 13.85 43.46 17.31z" class="fill-hair-shadow"></path>
            <path d="M12.83 65c-9.89 12.36-5.65 39.51-5.65 39.51l17.7-13.55c-.59-2.19-1.46-4-3-4.43l-11.08 9.7c-1.32-7.48-.24-16.63 2.62-24.36zM54.49 117.68l-2.78 29.85 3.58 32.68c4.23-4.34 3.87-5 5.71-8.55 0 0-3-22.05-6.51-53.98zM57.71 82c-3.09-9-5.71-17.56-7.47-23.31l-1.92-6.77a15.49 15.49 0 00-5.78-8.44 13.57 13.57 0 00-5.21-2.29l1.82 6.93s5.25-1.85 9.12 10.36c4.11 13.12 9.47 32.84 15.27 36.77a82.47 82.47 0 0019.54 9.21L84 98s-22.11-3.82-26.29-16z" class="fill-white"></path>
            <path d="M72.3 275S62 206.8 60.24 193.69c-.26-2-.6-4.72-1-7.92s-5.57 5.48-4.15 12S61 228.5 61 228.5l6 47.49a14.87 14.87 0 005.3-.99zM41.66 189.91s-7.19 2.5-7.29 7.84-.47 18.77 0 19.62c.37.65 3.9-1.65 6.7-1.3a23.27 23.27 0 00.34-3c.17-3.96.24-12.73.25-23.16z" class="fill-color-1"></path>
            <path d="M29.43 150.34l-8.19-5.85 8.19 10.13v-4.28z" class="fill-white"></path>
            <path d="M34.81.68a15 15 0 00-12.23 1.41c10.31-3 14 1.21 14.69 5.3a10.33 10.33 0 01-.77 5.3l7 4.62C46.14 13.85 43 3 34.81.68z" class="fill-hair"></path>
            <path d="M32.57 5.57a35.06 35.06 0 01-1.16 11.86 31.66 31.66 0 003-6.15s.87-4.14-1.84-5.71z" class="fill-hair"></path>
            <path d="M38.8 14.21c2-5.28 0-8.21 0-8.21s3.67 3 1.84 9.43zM42.14 16.43a4.8 4.8 0 00.33-2.35 5.41 5.41 0 01.19 2.7z" class="fill-hair-shadow"></path>
        </g>
    </g>
</svg></svg><style>.class-836bnivn2 .fill-skin {
  fill: #f1d9b1;
}
.class-836bnivn2 .fill-skin-shadow {
  fill: #ebc78d;
}
.class-836bnivn2 .fill-hair {
  fill: #8a9475;
}
.class-836bnivn2 .fill-hair-shadow {
  fill: #7c8668;
}
.class-836bnivn2 .fill-white {
  fill: #fbfcfb;
}
.class-836bnivn2 .fill-white-shadow {
  fill: #dee6de;
}
.class-836bnivn2 .fill-white-shadow-extra {
  fill: #c4d2c4;
}
.class-836bnivn2 .stop-color-white {
  stop-color: #fbfcfb;
}
.class-836bnivn2 .stop-color-white-shadow {
  stop-color: #dee6de;
}
.class-836bnivn2 .stop-color-white-shadow-extra {
  stop-color: #c4d2c4;
}
.class-836bnivn2 .stroke-white {
  stroke: #fbfcfb;
}
.class-836bnivn2 .stroke-white-shadow {
  stroke: #dee6de;
}
.class-836bnivn2 .stroke-white-shadow-extra {
  stroke: #b4c6b4;
}
.class-836bnivn2 .fill-yellow {
  fill: #eaea00;
}
.class-836bnivn2 .fill-yellow-shadow {
  fill: #dada00;
}
.class-836bnivn2 .fill-yellow-shadow-extra {
  fill: #cbcb00;
}
.class-836bnivn2 .stop-color-yellow {
  stop-color: #eaea00;
}
.class-836bnivn2 .stop-color-yellow-shadow {
  stop-color: #dada00;
}
.class-836bnivn2 .stop-color-yellow-shadow-extra {
  stop-color: #cbcb00;
}
.class-836bnivn2 .fill-green {
  fill: #2ba24c;
}
.class-836bnivn2 .fill-green-shadow {
  fill: #279244;
}
.class-836bnivn2 .fill-green-shadow-extra {
  fill: #23833d;
}
.class-836bnivn2 .stop-color-green {
  stop-color: #2ba24c;
}
.class-836bnivn2 .stop-color-green-shadow {
  stop-color: #279244;
}
.class-836bnivn2 .stop-color-green-shadow-extra {
  stop-color: #23833d;
}
.class-836bnivn2 .stroke-green {
  stroke: #2ba24c;
}
.class-836bnivn2 .stroke-green-shadow {
  stroke: #279244;
}
.class-836bnivn2 .stroke-green-shadow-extra {
  stroke: #217a39;
}
.class-836bnivn2 .fill-red {
  fill: #ce3827;
}
.class-836bnivn2 .fill-red-shadow {
  fill: #b93223;
}
.class-836bnivn2 .fill-red-shadow-extra {
  fill: #a62d1f;
}
.class-836bnivn2 .stop-color-red {
  stop-color: #ce3827;
}
.class-836bnivn2 .stop-color-red-shadow {
  stop-color: #b93223;
}
.class-836bnivn2 .stop-color-red-shadow-extra {
  stop-color: #a62d1f;
}
.class-836bnivn2 .fill-orange {
  fill: #f09c25;
}
.class-836bnivn2 .fill-orange-shadow {
  fill: #e98f10;
}
.class-836bnivn2 .fill-orange-shadow-extra {
  fill: #d1800e;
}
.class-836bnivn2 .stop-color-orange {
  stop-color: #f09c25;
}
.class-836bnivn2 .stop-color-orange-shadow {
  stop-color: #e98f10;
}
.class-836bnivn2 .stop-color-orange-shadow-extra {
  stop-color: #d1800e;
}
.class-836bnivn2 .fill-blue {
  fill: #3b7ded;
}
.class-836bnivn2 .fill-blue-shadow {
  fill: #1f6bea;
}
.class-836bnivn2 .fill-blue-shadow-extra {
  fill: #145eda;
}
.class-836bnivn2 .stop-color-blue {
  stop-color: #3b7ded;
}
.class-836bnivn2 .stop-color-blue-shadow {
  stop-color: #1f6bea;
}
.class-836bnivn2 .stop-color-blue-shadow-extra {
  stop-color: #145eda;
}
.class-836bnivn2 .fill-color-0 {
  fill: #8a9475;
}
.class-836bnivn2 .fill-color-0-shadow {
  fill: #7c8668;
}
.class-836bnivn2 .fill-color-0-shadow-extra {
  fill: #687057;
}
.class-836bnivn2 .stop-color-color-0 {
  stop-color: #8a9475;
}
.class-836bnivn2 .fill-color-1 {
  fill: #fbfcfb;
}
.class-836bnivn2 .fill-color-1-shadow {
  fill: #dee6de;
}
.class-836bnivn2 .fill-color-1-shadow-extra {
  fill: #b4c6b4;
}
.class-836bnivn2 .fill-body-detail {
  fill: #ffffff;
}
.class-836bnivn2 .stroke-color-0 {
  stroke: #8a9475;
}
.class-836bnivn2 .stroke-color-0-shadow {
  stroke: #7c8668;
}
.class-836bnivn2 .stroke-color-0-shadow-extra {
  stroke: #687057;
}
.class-836bnivn2 .stroke-color-1 {
  stroke: #fbfcfb;
}
.class-836bnivn2 .stroke-color-1-shadow {
  stroke: #dee6de;
}
.class-836bnivn2 .stroke-color-1-shadow-extra {
  stroke: #b4c6b4;
}</style></svg></g><g transform="matrix(1.3138211382113822,0,0,1.313821138211382,229.4972745534381,86.01094963601639)"><svg xmlns="http://www.w3.org/2000/svg" version="1.1" xmlns:xlink="http://www.w3.org/1999/xlink" xmlns:svgjs="http://svgjs.com/svgjs" width="109.74" height="307.5"><svg xmlns="http://www.w3.org/2000/svg" version="1.1" xmlns:xlink="http://www.w3.org/1999/xlink" xmlns:svgjs="http://svgjs.com/svgjs" width="109.74" height="307.5" class="class-uxa87sjs0"><svg xmlns="http://www.w3.org/2000/svg" viewBox="0 0 109.74 307.5" class="class-uxa87sjs0">
    <g data-name="Layer 2">
        <g data-name="Layer 1">
            <path d="M19.86 85.39a35.11 35.11 0 01-3.53-.45 6.21 6.21 0 01-.62-.14 1.48 1.48 0 01-.29-.12c-.18-.11-.35-.23-.54-.33a6.88 6.88 0 01-2.33-2.18 7.14 7.14 0 01-.37-.73c-.51-1-.56-2.17-1.37-3-1.1-.35-1.25 1.14-1.3 1.77v.87c0 .23-.23.34-.48.31h-.2a1.57 1.57 0 01-.31-.08c-.19-.06-.37-.14-.54-.21A16.08 16.08 0 014.82 79c-.52-.41-1-.82-1.6-1.19a4.49 4.49 0 01-1.11-1.36v-.08C1.43 75.09.58 74.12 0 76.1a11.14 11.14 0 001.54 5.77c2.1 3.62 6.17 6.45 10.6 7.79 2.58.66 5.29.37 7.88 1" class="fill-skin"></path>
            <path d="M17.77 84.12l-2.2-.34s-3.77 4.46-1.16 7.94l2.56.19z" class="fill-body-detail"></path>
            <path d="M62.83 41.43s-3.4-.89-6.9 10.37-9.44 35.57-39.09 31.8c0 0-3.52 6.81-.89 8.69 0 0 34.91 2.3 40.38-10.63z" class="fill-color-0-shadow"></path>
            <path d="M98 128.05c-.27.93-.52 1.86-.78 2.79l-.85 3a96.18 96.18 0 00-3.2 12c-.28 1.58-.13 6 .39 5.93 1 0 .24-2.25 1-3.93.12-.32.24-.64.38-.94a2.55 2.55 0 01.17-.33c.06-.09.17-.29.21-.21 2.06 3.44-1.18 11.39 0 11.68 1.67-1 3.47-4.21 4.52-6.27 2.4-5.05 1-9.12 1.44-15.85v-.43-.12-.23c.2-.6.49-1.17.7-1.78 1.86-4.56 1.38-3.77 3.16-8.37M75.09 51.69l.39-.3h.07c3.32-2.38 6.81-4.52 10.21-6.79.18-.13.55-.19.51-.48a10.76 10.76 0 01-.67-2.85c-.4-4.67-.37-9.38-.88-14-.45-1.36-5.23-2.72-6.68-3.13a2.82 2.82 0 00-.58 0c-.36 0-2.54-.24-1.87.49l-.09.36c-.44-.34-.68 2.72-.88 3.13-.77 3.37-1.31 8-2.86 11.08L70 42.4a61.69 61.69 0 00-2.2 6.6" class="fill-skin"></path>
            <path d="M56.49 111.47s2-64.76 12.41-67.14c0 0 1.57 8 14.51 1.09l-15.35 67.34z" class="fill-body-detail"></path>
            <path d="M68.9 44.33c-10.4 2.38-13.5 67.14-13.5 67.14l6.41.47c-3.75-11.28.37-46.8 3.82-52.68 3.77-6.43 12-6.68 16.61-8.73l1.17-5.11c-12.94 6.89-14.51-1.09-14.51-1.09z" class="fill-color-1"></path>
            <path d="M70.23 278a21.41 21.41 0 00-1.27-8.4l-5.87-15.24 8.15-3.14s5.27 14.06 9.5 20.22c0-.03 1.44 13.47-10.51 6.56z" class="fill-body-detail"></path>
            <path d="M76.66 268.25l3.72 6.14s4.23 5.1 1.56 8.47l-2.39 1.36s-4.68 9.84-8.48 15.28A26.39 26.39 0 0167 304c-2.23 1.55-5.17.44-4.76-.62 2.84-7.5 7.49-18.82 7.75-20.83a21.41 21.41 0 00-.87-7.46l.59-.48c1-.81 1.26-1 2.46-.56l.25.1s5.47-.72 4.24-5.9z" class="fill-color-1-shadow"></path>
            <path d="M63.09 254.33s2 5.16 3.76 9.77c2.48-.16 5.33-1.41 8.38-3.23-2.27-5.08-4-9.68-4-9.68z" class="fill-skin"></path>
            <path d="M71.59 294.34a13.65 13.65 0 002.85-7.9v-16.33h8.74s-.15 15 1.59 22.28c0 0-4.52 12.73-13.18 1.95z" class="fill-body-detail"></path>
            <path d="M84.77 292.39L86 302a2.5 2.5 0 01-2 2.78 40 40 0 01-7.41.89l-.81-.32a6 6 0 00-3.54-.3 124 124 0 01-15.44 2.47 26 26 0 01-6-.43c-2.6-.78-3.56-1.6-2.48-2 7.64-2.43 19.38-11.51 20.81-12.95a3.5 3.5 0 013.25-.93l.74.16a3.57 3.57 0 012.64 2.43l.08.26s5.64 2.53 8.93-1.67z" class="fill-color-1"></path>
            <path d="M74.44 270.11v10.46a19.55 19.55 0 009 0c-.28-5.55-.23-10.46-.23-10.46z" class="fill-skin"></path>
            <path d="M65.5 116.79s-30.84 68-28.08 74.11S64 261.45 64 261.45a81.1 81.1 0 0016.59-6.91s-23.09-50.85-25.63-56.75c-4.71-10.91 6.31-33 16.13-42.18s4.08-32.31 4.08-32.31z" class="fill-color-2-shadow"></path>
            <path d="M70.39 116.79h-9.08l-2 28.52c4.61 3.62 10.4 61.54 9.64 69.54S72 276.09 72 276.09l12.68.71c.09-25.61-.61-65.09-.91-73.71s3.09-65.19 3.09-65.19 1.59-20-1.85-29.08" class="fill-color-2"></path>
            <path d="M70.82 113.61l-.43 8.18s7.85 62.83 6.41 86.7c-2.36 39.09.43 42.48 1.19 68.05l12.11.26c-4.52-28.3-6-65.09-6.33-73.71s3.09-65.19 3.09-65.19 1.59-20-1.85-29.08z" class="fill-color-2-shadow"></path>
            <path d="M85 108.82s-20.29 4.12-30.8-.63l-1.43 15.09 6.51 22.05" class="fill-color-2"></path>
            <path d="M44.22 182.35c3-9.2 10.28-32.72 18.87-43.3 0 0 1.34-12.93-3.5-20.69l-4.93-1.57s-18.29 62.22-17.47 73c3.08.13 5.21-1.79 7.03-7.44z" class="fill-color-2"></path>
            <path d="M60.23 116.81a30.66 30.66 0 008.09 0l.58-2.14-8.11-1.52V110a25.63 25.63 0 01-6.29-1.68l-.5 1.87-1.24 13.09-1.2 4.23 7.48 6.33a1.23 1.23 0 002-1z" class="fill-color-2-shadow"></path>
            <path d="M85.61 110.24s-13.27 4.64-32 0l-.42 2.92s11.27 4.82 33-.08z" class="fill-skin"></path>
            <path d="M62.99 115.28l-5.51-.83-.03-3.47 5.51.83.03 3.47z" class="fill-body-detail"></path>
            <path d="M69.7 111.81h.69v4.99h-.69zM81.933 110.39l.676-.137.999 4.889-.676.138z" class="fill-color-2"></path>
            <path d="M97.34 129.3l-.71 1.84s1.94 2.51 6.77 1.26l.78-2.55z" class="fill-color-1"></path>
            <path d="M104.64 43.83l-14.75-2.4L85.45 38s.83 8.2-9.29 12.28l1.56 3.28C69.87 81.35 64.82 125 64.82 125a5.5 5.5 0 006.18 6l20.65-5.53s-4.53-23.22-2.05-44.75A80.41 80.41 0 0194 68c9.88 40.18 2.06 61.75 2.06 61.75 3.53 2.91 8 1.4 8 1.4 12.41-31.81.58-87.32.58-87.32z" class="fill-color-0"></path>
            <path d="M104.64 43.83l-.38-.07c-2.5 1.13-4.94 3.75-6.37 9.26 0 0 15 39.51 2.17 78.41a9.91 9.91 0 004-.3c12.41-31.79.58-87.3.58-87.3zM89.89 41.43a10.14 10.14 0 01-2.74 6.66s6.57-5.59 8.74-5.69z" class="fill-color-0-shadow"></path>
            <path d="M104.09 131.13a82.32 82.32 0 004.63-19.74L98.19 91.33c2.7 25.12-2.11 38.4-2.11 38.4 3.53 2.91 8.01 1.4 8.01 1.4zM89.63 80.68A80.41 80.41 0 0194 68l-3-6.56a149.74 149.74 0 00-8.74 21.41c-3.58 10.85-5.23 30.6-2.31 45.72l11.67-3.12s-4.47-23.24-1.99-44.77z" class="fill-color-0-shadow"></path>
            <path d="M56.13 110.88l1.09-15.55c2-14 4.51-43.23 8.94-48.35 6-6.89 5.34-6.59 5.34-6.59a106.71 106.71 0 00-10.94.46c-6.94 11.76-5.5 19.12-5 35.62-2.27 17.79-7.69 44.44-7.69 44.44l4.51 4.47a1.51 1.51 0 002.74-.76l.95-13.51" class="fill-color-0"></path>
            <path d="M72.53 37.31a24.57 24.57 0 00-11.39 7.59l1.43 3.22S58.91 70.35 57 100.66c0 0 2.64-34.39 9.74-51.62a7.16 7.16 0 012.54-4.18 5 5 0 001.47-2.18z" class="fill-color-0-shadow"></path>
            <path d="M68.88 6.84s-2.55 4.16-1.75 8.37a4.14 4.14 0 01-.8 3.24L65.05 20a1.35 1.35 0 00.69 2.18l.54.14s-.81 1.95 0 2.76-.35 1 .34 2.13A6.47 6.47 0 0167 30a4 4 0 003 3.88c2.28.56 5.25-1 7.06-.89 3.26.11 8.1.56 8.1.56a7.14 7.14 0 012.52-7.7c4-3.06 6.38-13.69-1.15-18S69.4 2.87 68.88 6.84z" class="fill-skin"></path>
            <path d="M67.27 11s.47.89 2.5.38c3-.76 7.75-3.68 10.64-1.55s.75 8.67.75 8.67a1.67 1.67 0 00.35 2.28c1.23 1.07 2-4.43 4.49-3 2.29 1.35 1.56 5-.18 6.4s-.65 5.58-.65 5.58-.57-.92 3.31-3.79c2.88-2.14 6.25-7.08 4.82-14.9C92.15 4.76 86.74-.4 80.29 0c-9.73.66-14.53 7.13-13.02 11z" class="fill-color-2"></path>
            <path d="M70.07 17.94a.77.77 0 01.77-.76.76.76 0 01.76.76M85.14 29.67a.19.19 0 000 .11.6.6 0 010-.11z" class="fill-color-1"></path>
            <path d="M93.3 11.09A16 16 0 0090.61 5a15.42 15.42 0 00-12.53-2.6c-6.35 1.22-8.81 5.78-8.51 9h.2c3-.48 7.75-3.68 10.64-1.55 1.25.91 1.55 2.65 1.5 4.34a3.39 3.39 0 01.81 2.55c-.23 2.2-1.89 3.07-.67 4.12 1-.53 1.86-4.26 4-3 2.29 1.35 1.56 5-.18 6.4-1.58 1.26-.83 4.82-.68 5.47 0-.32.21-1.36 3.34-3.68 2.83-2.2 6.2-7.14 4.77-14.96z" class="fill-color-2-shadow"></path>
            <path d="M16.84 83.6a22.83 22.83 0 00-1.42 3.59C42.82 91 49.8 67.87 49.8 67.87 44.59 77.38 35.32 86 16.84 83.6z" class="fill-color-0"></path>
            <path d="M71.15 41.43l2.37-7.81 7.16-2.29-9.53 10.1z" class="fill-skin-shadow"></path>
        </g>
    </g>
</svg></svg><style>.class-uxa87sjs0 .fill-skin {
  fill: #f1d9b1;
}
.class-uxa87sjs0 .fill-skin-shadow {
  fill: #ebc78d;
}
.class-uxa87sjs0 .fill-hair {
  fill: #8a9475;
}
.class-uxa87sjs0 .fill-hair-shadow {
  fill: #7c8668;
}
.class-uxa87sjs0 .fill-white {
  fill: #fbfcfb;
}
.class-uxa87sjs0 .fill-white-shadow {
  fill: #dee6de;
}
.class-uxa87sjs0 .fill-white-shadow-extra {
  fill: #c4d2c4;
}
.class-uxa87sjs0 .stop-color-white {
  stop-color: #fbfcfb;
}
.class-uxa87sjs0 .stop-color-white-shadow {
  stop-color: #dee6de;
}
.class-uxa87sjs0 .stop-color-white-shadow-extra {
  stop-color: #c4d2c4;
}
.class-uxa87sjs0 .stroke-white {
  stroke: #fbfcfb;
}
.class-uxa87sjs0 .stroke-white-shadow {
  stroke: #dee6de;
}
.class-uxa87sjs0 .stroke-white-shadow-extra {
  stroke: #b4c6b4;
}
.class-uxa87sjs0 .fill-yellow {
  fill: #eaea00;
}
.class-uxa87sjs0 .fill-yellow-shadow {
  fill: #dada00;
}
.class-uxa87sjs0 .fill-yellow-shadow-extra {
  fill: #cbcb00;
}
.class-uxa87sjs0 .stop-color-yellow {
  stop-color: #eaea00;
}
.class-uxa87sjs0 .stop-color-yellow-shadow {
  stop-color: #dada00;
}
.class-uxa87sjs0 .stop-color-yellow-shadow-extra {
  stop-color: #cbcb00;
}
.class-uxa87sjs0 .fill-green {
  fill: #2ba24c;
}
.class-uxa87sjs0 .fill-green-shadow {
  fill: #279244;
}
.class-uxa87sjs0 .fill-green-shadow-extra {
  fill: #23833d;
}
.class-uxa87sjs0 .stop-color-green {
  stop-color: #2ba24c;
}
.class-uxa87sjs0 .stop-color-green-shadow {
  stop-color: #279244;
}
.class-uxa87sjs0 .stop-color-green-shadow-extra {
  stop-color: #23833d;
}
.class-uxa87sjs0 .stroke-green {
  stroke: #2ba24c;
}
.class-uxa87sjs0 .stroke-green-shadow {
  stroke: #279244;
}
.class-uxa87sjs0 .stroke-green-shadow-extra {
  stroke: #217a39;
}
.class-uxa87sjs0 .fill-red {
  fill: #ce3827;
}
.class-uxa87sjs0 .fill-red-shadow {
  fill: #b93223;
}
.class-uxa87sjs0 .fill-red-shadow-extra {
  fill: #a62d1f;
}
.class-uxa87sjs0 .stop-color-red {
  stop-color: #ce3827;
}
.class-uxa87sjs0 .stop-color-red-shadow {
  stop-color: #b93223;
}
.class-uxa87sjs0 .stop-color-red-shadow-extra {
  stop-color: #a62d1f;
}
.class-uxa87sjs0 .fill-orange {
  fill: #f09c25;
}
.class-uxa87sjs0 .fill-orange-shadow {
  fill: #e98f10;
}
.class-uxa87sjs0 .fill-orange-shadow-extra {
  fill: #d1800e;
}
.class-uxa87sjs0 .stop-color-orange {
  stop-color: #f09c25;
}
.class-uxa87sjs0 .stop-color-orange-shadow {
  stop-color: #e98f10;
}
.class-uxa87sjs0 .stop-color-orange-shadow-extra {
  stop-color: #d1800e;
}
.class-uxa87sjs0 .fill-blue {
  fill: #3b7ded;
}
.class-uxa87sjs0 .fill-blue-shadow {
  fill: #1f6bea;
}
.class-uxa87sjs0 .fill-blue-shadow-extra {
  fill: #145eda;
}
.class-uxa87sjs0 .stop-color-blue {
  stop-color: #3b7ded;
}
.class-uxa87sjs0 .stop-color-blue-shadow {
  stop-color: #1f6bea;
}
.class-uxa87sjs0 .stop-color-blue-shadow-extra {
  stop-color: #145eda;
}
.class-uxa87sjs0 .fill-color-0 {
  fill: #8a9475;
}
.class-uxa87sjs0 .fill-color-0-shadow {
  fill: #7c8668;
}
.class-uxa87sjs0 .fill-color-0-shadow-extra {
  fill: #687057;
}
.class-uxa87sjs0 .stop-color-color-0 {
  stop-color: #8a9475;
}
.class-uxa87sjs0 .fill-color-1 {
  fill: #fbfcfb;
}
.class-uxa87sjs0 .fill-color-1-shadow {
  fill: #dee6de;
}
.class-uxa87sjs0 .fill-color-1-shadow-extra {
  fill: #b4c6b4;
}
.class-uxa87sjs0 .fill-color-2 {
  fill: #8a9475;
}
.class-uxa87sjs0 .fill-color-2-shadow {
  fill: #7c8668;
}
.class-uxa87sjs0 .fill-color-2-shadow-extra {
  fill: #687057;
}
.class-uxa87sjs0 .fill-body-detail {
  fill: #ffffff;
}
.class-uxa87sjs0 .stroke-color-0 {
  stroke: #8a9475;
}
.class-uxa87sjs0 .stroke-color-0-shadow {
  stroke: #7c8668;
}
.class-uxa87sjs0 .stroke-color-0-shadow-extra {
  stroke: #687057;
}
.class-uxa87sjs0 .stroke-color-1 {
  stroke: #fbfcfb;
}
.class-uxa87sjs0 .stroke-color-1-shadow {
  stroke: #dee6de;
}
.class-uxa87sjs0 .stroke-color-1-shadow-extra {
  stroke: #b4c6b4;
}
.class-uxa87sjs0 .stroke-color-2 {
  stroke: #8a9475;
}
.class-uxa87sjs0 .stroke-color-2-shadow {
  stroke: #7c8668;
}
.class-uxa87sjs0 .stroke-color-2-shadow-extra {
  stroke: #687057;
}</style></svg></g><g transform="matrix(4.143653250773994,0,0,4.143653250773994,69.49033681274537,-1.5806782727167956e-7)"><svg xmlns="http://www.w3.org/2000/svg" version="1.1" xmlns:xlink="http://www.w3.org/1999/xlink" xmlns:svgjs="http://svgjs.com/svgjs" width="32.3" height="28.42"><svg xmlns="http://www.w3.org/2000/svg" version="1.1" xmlns:xlink="http://www.w3.org/1999/xlink" xmlns:svgjs="http://svgjs.com/svgjs" width="32.3" height="28.42" class="class-yz3z55g1v"><svg xmlns="http://www.w3.org/2000/svg" viewBox="0 0 32.3 28.42" class="class-yz3z55g1v">
    <g data-name="Layer 2">
        <g data-name="Layer 1" class="fill-white">
            <ellipse cx="16.15" cy="10.76" rx="16.15" ry="10.76"></ellipse>
            <path d="M8.76 10.78v17.64L27.55 9.63 8.76 10.78z"></path>
        </g>
    </g>
</svg></svg><style>.class-yz3z55g1v .fill-skin {
  fill: #f1d9b1;
}
.class-yz3z55g1v .fill-skin-shadow {
  fill: #ebc78d;
}
.class-yz3z55g1v .fill-white {
  fill: #fbfcfb;
}
.class-yz3z55g1v .fill-white-shadow {
  fill: #dee6de;
}
.class-yz3z55g1v .fill-white-shadow-extra {
  fill: #c4d2c4;
}
.class-yz3z55g1v .stop-color-white {
  stop-color: #fbfcfb;
}
.class-yz3z55g1v .stop-color-white-shadow {
  stop-color: #dee6de;
}
.class-yz3z55g1v .stop-color-white-shadow-extra {
  stop-color: #c4d2c4;
}
.class-yz3z55g1v .stroke-white {
  stroke: #fbfcfb;
}
.class-yz3z55g1v .stroke-white-shadow {
  stroke: #dee6de;
}
.class-yz3z55g1v .stroke-white-shadow-extra {
  stroke: #b4c6b4;
}
.class-yz3z55g1v .fill-yellow {
  fill: #eaea00;
}
.class-yz3z55g1v .fill-yellow-shadow {
  fill: #dada00;
}
.class-yz3z55g1v .fill-yellow-shadow-extra {
  fill: #cbcb00;
}
.class-yz3z55g1v .stop-color-yellow {
  stop-color: #eaea00;
}
.class-yz3z55g1v .stop-color-yellow-shadow {
  stop-color: #dada00;
}
.class-yz3z55g1v .stop-color-yellow-shadow-extra {
  stop-color: #cbcb00;
}
.class-yz3z55g1v .fill-green {
  fill: #2ba24c;
}
.class-yz3z55g1v .fill-green-shadow {
  fill: #279244;
}
.class-yz3z55g1v .fill-green-shadow-extra {
  fill: #23833d;
}
.class-yz3z55g1v .stop-color-green {
  stop-color: #2ba24c;
}
.class-yz3z55g1v .stop-color-green-shadow {
  stop-color: #279244;
}
.class-yz3z55g1v .stop-color-green-shadow-extra {
  stop-color: #23833d;
}
.class-yz3z55g1v .stroke-green {
  stroke: #2ba24c;
}
.class-yz3z55g1v .stroke-green-shadow {
  stroke: #279244;
}
.class-yz3z55g1v .stroke-green-shadow-extra {
  stroke: #217a39;
}
.class-yz3z55g1v .fill-red {
  fill: #ce3827;
}
.class-yz3z55g1v .fill-red-shadow {
  fill: #b93223;
}
.class-yz3z55g1v .fill-red-shadow-extra {
  fill: #a62d1f;
}
.class-yz3z55g1v .stop-color-red {
  stop-color: #ce3827;
}
.class-yz3z55g1v .stop-color-red-shadow {
  stop-color: #b93223;
}
.class-yz3z55g1v .stop-color-red-shadow-extra {
  stop-color: #a62d1f;
}
.class-yz3z55g1v .fill-orange {
  fill: #f09c25;
}
.class-yz3z55g1v .fill-orange-shadow {
  fill: #e98f10;
}
.class-yz3z55g1v .fill-orange-shadow-extra {
  fill: #d1800e;
}
.class-yz3z55g1v .stop-color-orange {
  stop-color: #f09c25;
}
.class-yz3z55g1v .stop-color-orange-shadow {
  stop-color: #e98f10;
}
.class-yz3z55g1v .stop-color-orange-shadow-extra {
  stop-color: #d1800e;
}
.class-yz3z55g1v .fill-blue {
  fill: #3b7ded;
}
.class-yz3z55g1v .fill-blue-shadow {
  fill: #1f6bea;
}
.class-yz3z55g1v .fill-blue-shadow-extra {
  fill: #145eda;
}
.class-yz3z55g1v .stop-color-blue {
  stop-color: #3b7ded;
}
.class-yz3z55g1v .stop-color-blue-shadow {
  stop-color: #1f6bea;
}
.class-yz3z55g1v .stop-color-blue-shadow-extra {
  stop-color: #145eda;
}
.class-yz3z55g1v .fill-body-detail {
  fill: #ffffff;
}</style></svg></g><g transform="matrix(-3.18390092879257,0,0,3.18390092879257,329.33033401750527,5.27616086925584)"><svg xmlns="http://www.w3.org/2000/svg" version="1.1" xmlns:xlink="http://www.w3.org/1999/xlink" xmlns:svgjs="http://svgjs.com/svgjs" width="32.3" height="28.42"><svg xmlns="http://www.w3.org/2000/svg" version="1.1" xmlns:xlink="http://www.w3.org/1999/xlink" xmlns:svgjs="http://svgjs.com/svgjs" width="32.3" height="28.42" class="class-lqj7343ko"><svg xmlns="http://www.w3.org/2000/svg" viewBox="0 0 32.3 28.42" class="class-lqj7343ko">
    <g data-name="Layer 2">
        <g data-name="Layer 1" class="fill-white">
            <ellipse cx="16.15" cy="10.76" rx="16.15" ry="10.76"></ellipse>
            <path d="M8.76 10.78v17.64L27.55 9.63 8.76 10.78z"></path>
        </g>
    </g>
</svg></svg><style>.class-lqj7343ko .fill-skin {
  fill: #f1d9b1;
}
.class-lqj7343ko .fill-skin-shadow {
  fill: #ebc78d;
}
.class-lqj7343ko .fill-white {
  fill: #fbfcfb;
}
.class-lqj7343ko .fill-white-shadow {
  fill: #dee6de;
}
.class-lqj7343ko .fill-white-shadow-extra {
  fill: #c4d2c4;
}
.class-lqj7343ko .stop-color-white {
  stop-color: #fbfcfb;
}
.class-lqj7343ko .stop-color-white-shadow {
  stop-color: #dee6de;
}
.class-lqj7343ko .stop-color-white-shadow-extra {
  stop-color: #c4d2c4;
}
.class-lqj7343ko .stroke-white {
  stroke: #fbfcfb;
}
.class-lqj7343ko .stroke-white-shadow {
  stroke: #dee6de;
}
.class-lqj7343ko .stroke-white-shadow-extra {
  stroke: #b4c6b4;
}
.class-lqj7343ko .fill-yellow {
  fill: #eaea00;
}
.class-lqj7343ko .fill-yellow-shadow {
  fill: #dada00;
}
.class-lqj7343ko .fill-yellow-shadow-extra {
  fill: #cbcb00;
}
.class-lqj7343ko .stop-color-yellow {
  stop-color: #eaea00;
}
.class-lqj7343ko .stop-color-yellow-shadow {
  stop-color: #dada00;
}
.class-lqj7343ko .stop-color-yellow-shadow-extra {
  stop-color: #cbcb00;
}
.class-lqj7343ko .fill-green {
  fill: #2ba24c;
}
.class-lqj7343ko .fill-green-shadow {
  fill: #279244;
}
.class-lqj7343ko .fill-green-shadow-extra {
  fill: #23833d;
}
.class-lqj7343ko .stop-color-green {
  stop-color: #2ba24c;
}
.class-lqj7343ko .stop-color-green-shadow {
  stop-color: #279244;
}
.class-lqj7343ko .stop-color-green-shadow-extra {
  stop-color: #23833d;
}
.class-lqj7343ko .stroke-green {
  stroke: #2ba24c;
}
.class-lqj7343ko .stroke-green-shadow {
  stroke: #279244;
}
.class-lqj7343ko .stroke-green-shadow-extra {
  stroke: #217a39;
}
.class-lqj7343ko .fill-red {
  fill: #ce3827;
}
.class-lqj7343ko .fill-red-shadow {
  fill: #b93223;
}
.class-lqj7343ko .fill-red-shadow-extra {
  fill: #a62d1f;
}
.class-lqj7343ko .stop-color-red {
  stop-color: #ce3827;
}
.class-lqj7343ko .stop-color-red-shadow {
  stop-color: #b93223;
}
.class-lqj7343ko .stop-color-red-shadow-extra {
  stop-color: #a62d1f;
}
.class-lqj7343ko .fill-orange {
  fill: #f09c25;
}
.class-lqj7343ko .fill-orange-shadow {
  fill: #e98f10;
}
.class-lqj7343ko .fill-orange-shadow-extra {
  fill: #d1800e;
}
.class-lqj7343ko .stop-color-orange {
  stop-color: #f09c25;
}
.class-lqj7343ko .stop-color-orange-shadow {
  stop-color: #e98f10;
}
.class-lqj7343ko .stop-color-orange-shadow-extra {
  stop-color: #d1800e;
}
.class-lqj7343ko .fill-blue {
  fill: #3b7ded;
}
.class-lqj7343ko .fill-blue-shadow {
  fill: #1f6bea;
}
.class-lqj7343ko .fill-blue-shadow-extra {
  fill: #145eda;
}
.class-lqj7343ko .stop-color-blue {
  stop-color: #3b7ded;
}
.class-lqj7343ko .stop-color-blue-shadow {
  stop-color: #1f6bea;
}
.class-lqj7343ko .stop-color-blue-shadow-extra {
  stop-color: #145eda;
}
.class-lqj7343ko .fill-body-detail {
  fill: #ffffff;
}</style></svg></g></svg>