<svg xmlns="http://www.w3.org/2000/svg" version="1.1" xmlns:xlink="http://www.w3.org/1999/xlink" xmlns:svgjs="http://svgjs.com/svgjs" width="376.40999999999997" height="382.8085114125042"><g transform="matrix(0.8280059746079164,0,0,0.8280059746079163,-0.01315944101952482,35.32331851510118)"><svg xmlns="http://www.w3.org/2000/svg" version="1.1" xmlns:xlink="http://www.w3.org/1999/xlink" xmlns:svgjs="http://svgjs.com/svgjs" width="321.36" height="281.89"><svg xmlns="http://www.w3.org/2000/svg" version="1.1" xmlns:xlink="http://www.w3.org/1999/xlink" xmlns:svgjs="http://svgjs.com/svgjs" width="321.36" height="281.89" class="class-3eu28iy2t"><svg xmlns="http://www.w3.org/2000/svg" viewBox="0 0 321.36 281.89" class="class-3eu28iy2t">
    <g data-name="Layer 2">
        <g data-name="Layer 1">
            <path d="M175 4.53l6.7 25.8a122.3 122.3 0 0087.61 87.6l25.79 6.71a6.06 6.06 0 010 11.72l-25.79 6.7a122.31 122.31 0 00-87.61 87.61l-6.7 25.79a6.06 6.06 0 01-11.73 0l-6.7-25.79a122.3 122.3 0 00-87.6-87.61l-25.8-6.7a6.06 6.06 0 010-11.72l25.8-6.71a122.29 122.29 0 0087.6-87.6l6.7-25.8a6.06 6.06 0 0111.73 0z" class="fill-color-1"></path>
            <path d="M172.82 50.29l4.27 16.43a77.87 77.87 0 0055.78 55.78l16.42 4.27a3.85 3.85 0 010 7.46l-16.42 4.27a77.85 77.85 0 00-55.78 55.78l-4.27 16.42a3.86 3.86 0 01-7.47 0l-4.26-16.42a77.88 77.88 0 00-55.79-55.78l-16.42-4.27a3.85 3.85 0 010-7.46l16.42-4.27a77.9 77.9 0 0055.79-55.78l4.26-16.43a3.86 3.86 0 017.47 0z" class="fill-color-0"></path>
            <path d="M170.94 90.6l2.13 8.17a38.71 38.71 0 0027.74 27.75l8.17 2.12a1.92 1.92 0 010 3.71l-8.17 2.13a38.71 38.71 0 00-27.74 27.74l-2.13 8.17a1.92 1.92 0 01-3.71 0l-2.12-8.17a38.74 38.74 0 00-27.75-27.74l-8.17-2.13a1.92 1.92 0 010-3.71l8.17-2.12a38.74 38.74 0 0027.75-27.75l2.12-8.17a1.92 1.92 0 013.71 0z" class="fill-color-0-shadow"></path>
            <path d="M233 274.47a7.42 7.42 0 11-14.84 0M216.39 35.82a3.71 3.71 0 110 7.42M132.66 160.8a7.42 7.42 0 110-14.84M34.88 188.19a3.71 3.71 0 010 7.42" class="fill-color-2"></path>
            <path d="M128 94.48l.25 1a4.49 4.49 0 003.22 3.22l.95.25a.22.22 0 010 .43l-.95.25a4.49 4.49 0 00-3.22 3.22l-.25 1a.22.22 0 01-.43 0l-.24-1a4.5 4.5 0 00-3.23-3.22l-.95-.25a.22.22 0 010-.43l.95-.25a4.5 4.5 0 003.23-3.22l.24-1a.22.22 0 01.43 0z" class="fill-color-0-shadow"></path>
            <path d="M7.55 61.05l.37 1.43a6.78 6.78 0 004.85 4.85l1.43.37a.34.34 0 010 .65l-1.43.37a6.77 6.77 0 00-4.85 4.85L7.55 75a.34.34 0 01-.65 0l-.37-1.43a6.77 6.77 0 00-4.85-4.85l-1.43-.37a.34.34 0 010-.65l1.43-.37a6.78 6.78 0 004.85-4.85l.37-1.43a.33.33 0 01.65 0z" class="fill-color-1"></path>
            <path d="M315 161.93l.35 1.32a6.25 6.25 0 004.48 4.49l1.32.34a.31.31 0 010 .6l-1.32.35a6.24 6.24 0 00-4.48 4.48l-.35 1.32a.31.31 0 01-.6 0l-.34-1.32a6.25 6.25 0 00-4.49-4.48l-1.32-.35a.31.31 0 010-.6l1.32-.34a6.26 6.26 0 004.49-4.49l.34-1.32a.31.31 0 01.6 0z" class="fill-color-0-shadow"></path>
        </g>
    </g>
</svg></svg><style>.class-3eu28iy2t .fill-skin {
  fill: #f1d9b1;
}
.class-3eu28iy2t .fill-skin-shadow {
  fill: #ebc78d;
}
.class-3eu28iy2t .fill-hair {
  fill: #3c473b;
}
.class-3eu28iy2t .fill-hair-shadow {
  fill: #364035;
}
.class-3eu28iy2t .fill-white {
  fill: #fbfcfb;
}
.class-3eu28iy2t .fill-white-shadow {
  fill: #dee6de;
}
.class-3eu28iy2t .fill-white-shadow-extra {
  fill: #c4d2c4;
}
.class-3eu28iy2t .stop-color-white {
  stop-color: #fbfcfb;
}
.class-3eu28iy2t .stop-color-white-shadow {
  stop-color: #dee6de;
}
.class-3eu28iy2t .stop-color-white-shadow-extra {
  stop-color: #c4d2c4;
}
.class-3eu28iy2t .stroke-white {
  stroke: #fbfcfb;
}
.class-3eu28iy2t .stroke-white-shadow {
  stroke: #dee6de;
}
.class-3eu28iy2t .stroke-white-shadow-extra {
  stroke: #b4c6b4;
}
.class-3eu28iy2t .fill-yellow {
  fill: #eaea00;
}
.class-3eu28iy2t .fill-yellow-shadow {
  fill: #dada00;
}
.class-3eu28iy2t .fill-yellow-shadow-extra {
  fill: #cbcb00;
}
.class-3eu28iy2t .stop-color-yellow {
  stop-color: #eaea00;
}
.class-3eu28iy2t .stop-color-yellow-shadow {
  stop-color: #dada00;
}
.class-3eu28iy2t .stop-color-yellow-shadow-extra {
  stop-color: #cbcb00;
}
.class-3eu28iy2t .fill-green {
  fill: #2ba24c;
}
.class-3eu28iy2t .fill-green-shadow {
  fill: #279244;
}
.class-3eu28iy2t .fill-green-shadow-extra {
  fill: #23833d;
}
.class-3eu28iy2t .stop-color-green {
  stop-color: #2ba24c;
}
.class-3eu28iy2t .stop-color-green-shadow {
  stop-color: #279244;
}
.class-3eu28iy2t .stop-color-green-shadow-extra {
  stop-color: #23833d;
}
.class-3eu28iy2t .stroke-green {
  stroke: #2ba24c;
}
.class-3eu28iy2t .stroke-green-shadow {
  stroke: #279244;
}
.class-3eu28iy2t .stroke-green-shadow-extra {
  stroke: #217a39;
}
.class-3eu28iy2t .fill-red {
  fill: #ce3827;
}
.class-3eu28iy2t .fill-red-shadow {
  fill: #b93223;
}
.class-3eu28iy2t .fill-red-shadow-extra {
  fill: #a62d1f;
}
.class-3eu28iy2t .stop-color-red {
  stop-color: #ce3827;
}
.class-3eu28iy2t .stop-color-red-shadow {
  stop-color: #b93223;
}
.class-3eu28iy2t .stop-color-red-shadow-extra {
  stop-color: #a62d1f;
}
.class-3eu28iy2t .fill-orange {
  fill: #f09c25;
}
.class-3eu28iy2t .fill-orange-shadow {
  fill: #e98f10;
}
.class-3eu28iy2t .fill-orange-shadow-extra {
  fill: #d1800e;
}
.class-3eu28iy2t .stop-color-orange {
  stop-color: #f09c25;
}
.class-3eu28iy2t .stop-color-orange-shadow {
  stop-color: #e98f10;
}
.class-3eu28iy2t .stop-color-orange-shadow-extra {
  stop-color: #d1800e;
}
.class-3eu28iy2t .fill-blue {
  fill: #3b7ded;
}
.class-3eu28iy2t .fill-blue-shadow {
  fill: #1f6bea;
}
.class-3eu28iy2t .fill-blue-shadow-extra {
  fill: #145eda;
}
.class-3eu28iy2t .stop-color-blue {
  stop-color: #3b7ded;
}
.class-3eu28iy2t .stop-color-blue-shadow {
  stop-color: #1f6bea;
}
.class-3eu28iy2t .stop-color-blue-shadow-extra {
  stop-color: #145eda;
}
.class-3eu28iy2t .fill-color-0 {
  fill: #3c473b;
}
.class-3eu28iy2t .fill-color-0-shadow {
  fill: #364035;
}
.class-3eu28iy2t .fill-color-0-shadow-extra {
  fill: #2d362c;
}
.class-3eu28iy2t .stop-color-color-0 {
  stop-color: #3c473b;
}
.class-3eu28iy2t .fill-color-1 {
  fill: #b2bcab;
}
.class-3eu28iy2t .fill-color-1-shadow {
  fill: #9fac97;
}
.class-3eu28iy2t .fill-color-1-shadow-extra {
  fill: #84957a;
}
.class-3eu28iy2t .fill-color-2 {
  fill: #3c473b;
}
.class-3eu28iy2t .fill-color-2-shadow {
  fill: #364035;
}
.class-3eu28iy2t .fill-color-2-shadow-extra {
  fill: #2d362c;
}
.class-3eu28iy2t .fill-body-detail {
  fill: #ffffff;
}
.class-3eu28iy2t .stroke-color-0 {
  stroke: #3c473b;
}
.class-3eu28iy2t .stroke-color-0-shadow {
  stroke: #364035;
}
.class-3eu28iy2t .stroke-color-0-shadow-extra {
  stroke: #2d362c;
}
.class-3eu28iy2t .stroke-color-1 {
  stroke: #b2bcab;
}
.class-3eu28iy2t .stroke-color-1-shadow {
  stroke: #9fac97;
}
.class-3eu28iy2t .stroke-color-1-shadow-extra {
  stroke: #84957a;
}
.class-3eu28iy2t .stroke-color-2 {
  stroke: #3c473b;
}
.class-3eu28iy2t .stroke-color-2-shadow {
  stroke: #364035;
}
.class-3eu28iy2t .stroke-color-2-shadow-extra {
  stroke: #2d362c;
}</style></svg></g><g transform="matrix(1,0,0,1,151,46.49851141250417)"><svg xmlns="http://www.w3.org/2000/svg" version="1.1" xmlns:xlink="http://www.w3.org/1999/xlink" xmlns:svgjs="http://svgjs.com/svgjs" width="83.65" height="311.6"><svg xmlns="http://www.w3.org/2000/svg" version="1.1" xmlns:xlink="http://www.w3.org/1999/xlink" xmlns:svgjs="http://svgjs.com/svgjs" width="83.65" height="311.6" class="class-tfsejmhzm"><svg xmlns="http://www.w3.org/2000/svg" viewBox="0 0 83.65 311.6" class="class-tfsejmhzm">
    <g data-name="Layer 2">
        <g data-name="Layer 1">
            <path d="M50.3 31.52c13.33-9.66 6-24 6-24z" class="fill-hair-shadow"></path>
            <path d="M28.85 270.88l2.89 20s-1.29 5.23-4.92 4.91c-2-.18-2.1-7.83-7.78-7.62 0 0 3.69-5.69 3-16.27z" class="fill-skin-shadow"></path>
            <path d="M32.56 291.71a10.77 10.77 0 00-1.12-4l-.18-.19v.09s-1.41 4.42-5 4.24c-2-.11-1.91-6.55-7.58-6.24a7 7 0 00-1.56.23c-1.62 9.69-17 17.6-17 17.6-.94 1.79 1.39 4.32 16.35 1.77a106.56 106.56 0 0016.79-4.57s-.26-6-.7-8.93z" class="fill-hair-shadow"></path>
            <path d="M70.43 283l.82 12.11s3-7.35 7.69-1.51a119.85 119.85 0 01-2.39-11.76c-.86-5.97-6.12 1.16-6.12 1.16z" class="fill-skin-shadow"></path>
            <path d="M55.82 124.86s7.13 58.42 8.94 72.27S75 269.88 80.5 283.29c0 0-1.63 4.1-12.5 1 0 0-5.85-5.39-16.32-75.36-2.14-14.28-14.68-61.18-16-61s-4.15 63.16-5.41 79.59c-1.25 16.28.74 45.66 1.49 55.35 0 0-18.88-2.23-18.41-4.2 9.3-39 2.55-101.26 1.37-152.75z" class="fill-color-1"></path>
            <path d="M56.39 202.9c.7 4.73.76 12-3.51 14.14l2 14.4C63.39 280.9 63 286.26 63 286.26c10.87 3.13 17.5-3 17.5-3C75 269.88 66.57 211 64.76 197.13s-8.94-72.27-8.94-72.27l-41 1c0 3.35.3 5.86.25 9.07a60.71 60.71 0 0028.73 5.66" class="fill-color-1-shadow"></path>
            <path d="M31.52 135l1.48-2.27 1.11 2.17A81.54 81.54 0 0057 130.21l-.54-5.32-41.87 1.29-.43 5.14S19.85 135 31.52 135z" class="fill-white"></path>
            <path d="M56.5 124.89l-5 .16-7.57 4.87.91 3.64A94.64 94.64 0 0057 130.21z" class="fill-skin-shadow"></path>
            <path d="M62 80s-11.25 15.42-4 46.9c0 0-25.65 11-44.89 1.69 0 0 8.63-22.32 13.25-81.1 0 0 28.73-12.41 48.05-6 0 0-.74 20.91-9.84 56.36 0 0-8.3 1-13.3-4.26" class="fill-color-0"></path>
            <path d="M42.45 54.8l3.34-2 4.07 9.2a36.81 36.81 0 008.37-22h-1.95zM62.47 62L58 89.37l-13.55-3.89S55.27 81.87 62.47 62z" class="fill-color-0-shadow"></path>
            <path d="M26.35 47.49S5.89 78 11.91 101.92a104.25 104.25 0 0015.24-5.65l17.71-29.4" class="fill-color-0"></path>
            <path d="M27.29 56.35S22.68 74 22.78 80l9.67 8.6-5.9 10.59c-5.68 1.73-7.79 2.86-14.64 2.77 0-.04-6.5-18.43 15.38-45.61z" class="fill-color-0-shadow"></path>
            <path d="M19.13 104.45S37 95.73 44 103.93c0 0 1.59 2 1.33 26.79A75.69 75.69 0 0058 126.9c-2.28-9.89-1-18 .78-24.94 3.42.86 10.87 2 10.87 2 7.53-22.52 4.76-62.42 4.76-62.42h-.07a24.07 24.07 0 00-5.39 9.83s-2.21 18-6.3 36.88c0 0-1.09 5-5.66 4.41l-18.77-3.12-12.41.69-4 .19" class="fill-color-0-shadow"></path>
            <path d="M20.1 83.05l-4.26-.48s-6 5.21-1.11 14.41l5.9-.85s4.82-6.8-.53-13.08z" class="fill-white"></path>
            <path d="M42.24 90s-20.42 3.13-23.38 3.61c0 0-4.91-3.76-1.39-10.06l19.39 2.62z" class="fill-skin"></path>
            <path d="M18.86 93.59c3-.48 23.38-3.61 23.38-3.61l-2.86-3.12a80.27 80.27 0 01-23.11.14 7.48 7.48 0 002.59 6.59z" class="fill-skin-shadow"></path>
            <path d="M30.42 84.29c9.77.19 32.1 1.34 32.1 1.34s4.8 4-2.5 11.29c0 0-22.24-4.21-39.29-11.06" class="fill-skin"></path>
            <path d="M22.63 86.6C39.68 93.46 60 96.92 60 96.92c2.41-2.42 3.5-4.47 3.88-6.13-35-1.05-40.38-7-44.62-12" class="fill-skin-shadow"></path>
            <path d="M59.69 85.52l3.84.11S67 92 61.47 99L57 98.11l-.76-1.91 1.65.3a13 13 0 001.8-10.98z" class="fill-white"></path>
            <path d="M47.6 84.9s2.5-2.89 8.2-3.48c0 0 4.69 2.54 5 6.08 0 0-1.07 3.29-3.59 2s-4-3.95-6.24-4.29a17.4 17.4 0 00-3.37-.31zM54.58 25.12l-11-4.26s.63 14.71-.69 17-4.52 3.54-4.52 3.54c-.21 3.54 4.12 13.43 4.12 13.43C43.63 54.26 57.64 41 57.64 41s-2.78-1.37-2.92-8.62-.14-11.26-.14-11.26" class="fill-skin"></path>
            <path d="M54.72 31.38c-.14-7.26-.14-10.26-.14-10.26l-11-.26S43.93 32 43.45 37c3.14 1.15 9.28 4.15 9.88 10.1 2.43-2.28 3.31-7 3.31-7s-1.78-1.47-1.92-8.72z" class="fill-skin-shadow"></path>
            <path d="M70.54 292.07c-.48 6.07-1.59 13.57-1.4 17.72 3.5 2.64 12.31 2.28 14.35-.35.77-1-1.28-15.74-5.95-19.68 0 0-6.08-1.58-7 2.31z" class="fill-hair-shadow"></path>
            <path d="M56.37 37.83s-7.8 7.63-11.72 8.92l-2.2 8 5.25-2.56 2.16 4.11s6.31-5.83 8.38-16.77zM38.49 43.12s-3.84 6.13-2 15.82L39 55.33l2.46-2.56s-2.79-4.92-2.97-9.65z" class="fill-color-0-shadow"></path>
            <path d="M43.35 35.87s-6.83.78-9.09 9.61l-1 9.85 4-3.87 5.17 3.34s-3.5-8.59-2-10.52 2.92-8.41 2.92-8.41z" class="fill-white"></path>
            <path d="M61 86.52s-2-3.86-5.2-5.1a10.93 10.93 0 00-4.49 3.48s3.71.88 5 2.2 5.55.9 4.69-.58zM27.48 86.36c1.62-2 2.94-2.07 2.94-2.07-2.51-2.77-6.54-7.45-6.54-7.45a13.89 13.89 0 00-8.52-1.76c6.38 4 2.4 7.78 7.28 11.53 3.08.7 4.23.51 4.84-.25z" class="fill-skin-shadow"></path>
            <path d="M31.81 282.84c-.67-8.66-2.11-34.18-1.75-50.84-3.95 11.16-5.69 24.69-13.91 31.38-2 14.28-3.51 17.1-3.51 17.1 4.68 5.24 19.17 2.36 19.17 2.36z" class="fill-color-1-shadow"></path>
            <path d="M32.56 291.71a10.77 10.77 0 00-1.12-4l-.18-.19v.09s-1.41 4.42-5 4.24c-2-.11-1.91-6.55-7.58-6.24a7 7 0 00-1.56.23c-1.62 9.69-17 17.6-17 17.6-.94 1.79 1.39 4.32 16.35 1.77a106.56 106.56 0 0016.79-4.57s-.26-6-.7-8.93z" class="fill-hair-shadow"></path>
            <path d="M33.32 300.63s-.11-2-.29-4.23c-4.81 1.8-4.18 3.38-8.48 5.07-4.67 1.82-16.34 3.35-16.34 3.35l-.57-.39A2.67 2.67 0 006 304a20.73 20.73 0 01-5.81-.49c-.89 1.79 1.52 4.26 16.37 1.73a106.56 106.56 0 0016.76-4.61zM83.49 309.44a4.65 4.65 0 00.12-2 5.23 5.23 0 01-2.77 1.88l-.51-1.32a1.84 1.84 0 00-1.71-1.15h-2.93a1.84 1.84 0 00-1.55.85l-1 1.58c-1.29-.13-3.45-.81-4-1.75v2.26c3.5 2.64 12.31 2.28 14.35-.35z" class="fill-white"></path>
            <path d="M36 19.24l.61 4.68a13.33 13.33 0 002.81 6.61l2.59 3.2a5.7 5.7 0 004.29 2.14 5.73 5.73 0 005-2.74l1.43-2.26a13.67 13.67 0 001.84-4.76L56 18.43S58.66 5.75 47 5 36 19.24 36 19.24z" class="fill-skin"></path>
            <path d="M46.54 5c-7.54-.45-10.16 5-11.08 9.32a35.16 35.16 0 0011.67 8c2.6 1.07 4.67 4.6 6.33 7.93a66.1 66.1 0 002-7.22l.43-4.61S58.77 5.76 46.54 5z" class="fill-skin-shadow"></path>
            <path d="M50.07 21.85c0 2.42 1.52 5.06 3.08 4.39 2.38-1 3.09-3.24 3.09-5.66s-1.38-3.11-3.09-3.11-3.08 1.96-3.08 4.38z" class="fill-skin-shadow"></path>
            <path d="M54.19 23c-.61-1 .05-1.89 0-3a1.61 1.61 0 00-.15-.6 3.42 3.42 0 00-.26-.46 4 4 0 00-.77-.87 3.62 3.62 0 00-1-.58 6.48 6.48 0 00-.63-.17c-.42-.09-.85-.15-1.27-.26L50 17h-.16a20.38 20.38 0 01-2.57-1 1.89 1.89 0 00.2.2 4.62 4.62 0 001.27.71l.42.17a13.51 13.51 0 001.71.5 20.82 20.82 0 01-8-.41h-.24c-.32-.09-.64-.19-.95-.3.23.18.47.36.72.53a12.74 12.74 0 001.1.6c.66.24 1.37.71.09.41h-.15a15.49 15.49 0 01-2.77-1.09 5.17 5.17 0 01-2.37-2.34c-.31 1.07-.83 2.11-1.05 3.2a28 28 0 00-.16 2.9V21.23a7.9 7.9 0 01-.12.83 5.93 5.93 0 01-.45 1.19c-3-4.79-6.23-12.7-1.05-17.21a5.32 5.32 0 00-.57.16c-2.95 1.18.45-1.35 1-1.91a13 13 0 013.6-2h.06l.44-.23a12.7 12.7 0 013.2-.48C43.13 1.18 40-.5 42 .15c1.82.63 3.77.92 5.62 1.5-.8-.55-.54-2.14-.15-1.5v.07a1.41 1.41 0 00.23.33l.3.26h.06l.32.23c.82.53 2 .77 2.48 1.62a6.57 6.57 0 011 .31 7.69 7.69 0 012.84 2l.27.32a15.41 15.41 0 013.43 8.46v.08a2.42 2.42 0 00.12.35v.09a1.57 1.57 0 00.41.61c-.07.41-.88-.15-1.07-.29-.16-.13-.32-.26-.47-.4 0 .47-.13 1-.17 1.43V15.95c-.11 2.49-1.77 4.82-2.89 7.12a1 1 0 01-.14-.07zM48.35 1.35z" class="fill-hair-shadow"></path>
            <path fill="none" stroke-miterlimit="10" stroke-width=".25" d="M39.9 23.84h5.44" class="stroke-color-1"></path>
            <path d="M45.06 22.74h3.28v2.19h-3.28zM39.19 22.74h3.28v2.19h-3.28z" class="fill-white"></path>
            <path d="M36.6 23.2a5.93 5.93 0 00.45-1.2 7.9 7.9 0 00.12-.83V21a28 28 0 01.16-2.9c.22-1.09.74-2.13 1.05-3.2a5.46 5.46 0 001.89 2.1c-2.36-3.46-1.8-9.82-1.8-9.82a5.91 5.91 0 00-2.47 4.5c-.26-5.76 5.13-7.91 5.13-7.91-1.34-.33-3.49.66-3.49.66 2.91-2.38 8-2.63 8-2.63l-2.29-.26a12.85 12.85 0 00-3.2.46l-.35.11h-.06a13 13 0 00-3.6 2c-.57.56-4 3.09-1 1.91a5.32 5.32 0 01.41-.02c-5.18 4.5-1.98 12.41 1.05 17.2z" class="fill-hair"></path>
            <path d="M42.9 17.14h-.01.01z" class="fill-color-1"></path>
            <path d="M38.47 7.18c-1.37.77-2.93 6.55-.89 10.05.25-.77.58-1.52.8-2.29a5.17 5.17 0 002.37 2.34 15.49 15.49 0 002.77 1.09h.15c1.28.3.57-.17-.09-.41a12.74 12.74 0 01-1.12-.67c-.25-.17-.49-.35-.72-.53.31.11.63.21.95.3h.24a20.82 20.82 0 008 .41c-13-.81-12.46-10.29-12.46-10.29z" class="fill-hair"></path>
            <path d="M40.21 9.54A6.42 6.42 0 0045 13.4s-3.18-2.32-4-4.9a.54.54 0 00-.73-.17c-.48.28-.06 1.21-.06 1.21zM50.3 5.34a5.06 5.06 0 012.12.19c-1.27-1.48-2.31-1-2.31-1s-.63 1.03.19.81z" class="fill-hair"></path>
            <circle cx="50.19" cy="7.16" r=".31" class="fill-hair"></circle>
        </g>
    </g>
</svg></svg><style>.class-tfsejmhzm .fill-skin {
  fill: #f1d9b1;
}
.class-tfsejmhzm .fill-skin-shadow {
  fill: #ebc78d;
}
.class-tfsejmhzm .fill-hair {
  fill: #fbfcfb;
}
.class-tfsejmhzm .fill-hair-shadow {
  fill: #dee6de;
}
.class-tfsejmhzm .fill-white {
  fill: #fbfcfb;
}
.class-tfsejmhzm .fill-white-shadow {
  fill: #dee6de;
}
.class-tfsejmhzm .fill-white-shadow-extra {
  fill: #c4d2c4;
}
.class-tfsejmhzm .stop-color-white {
  stop-color: #fbfcfb;
}
.class-tfsejmhzm .stop-color-white-shadow {
  stop-color: #dee6de;
}
.class-tfsejmhzm .stop-color-white-shadow-extra {
  stop-color: #c4d2c4;
}
.class-tfsejmhzm .stroke-white {
  stroke: #fbfcfb;
}
.class-tfsejmhzm .stroke-white-shadow {
  stroke: #dee6de;
}
.class-tfsejmhzm .stroke-white-shadow-extra {
  stroke: #b4c6b4;
}
.class-tfsejmhzm .fill-yellow {
  fill: #eaea00;
}
.class-tfsejmhzm .fill-yellow-shadow {
  fill: #dada00;
}
.class-tfsejmhzm .fill-yellow-shadow-extra {
  fill: #cbcb00;
}
.class-tfsejmhzm .stop-color-yellow {
  stop-color: #eaea00;
}
.class-tfsejmhzm .stop-color-yellow-shadow {
  stop-color: #dada00;
}
.class-tfsejmhzm .stop-color-yellow-shadow-extra {
  stop-color: #cbcb00;
}
.class-tfsejmhzm .fill-green {
  fill: #2ba24c;
}
.class-tfsejmhzm .fill-green-shadow {
  fill: #279244;
}
.class-tfsejmhzm .fill-green-shadow-extra {
  fill: #23833d;
}
.class-tfsejmhzm .stop-color-green {
  stop-color: #2ba24c;
}
.class-tfsejmhzm .stop-color-green-shadow {
  stop-color: #279244;
}
.class-tfsejmhzm .stop-color-green-shadow-extra {
  stop-color: #23833d;
}
.class-tfsejmhzm .stroke-green {
  stroke: #2ba24c;
}
.class-tfsejmhzm .stroke-green-shadow {
  stroke: #279244;
}
.class-tfsejmhzm .stroke-green-shadow-extra {
  stroke: #217a39;
}
.class-tfsejmhzm .fill-red {
  fill: #ce3827;
}
.class-tfsejmhzm .fill-red-shadow {
  fill: #b93223;
}
.class-tfsejmhzm .fill-red-shadow-extra {
  fill: #a62d1f;
}
.class-tfsejmhzm .stop-color-red {
  stop-color: #ce3827;
}
.class-tfsejmhzm .stop-color-red-shadow {
  stop-color: #b93223;
}
.class-tfsejmhzm .stop-color-red-shadow-extra {
  stop-color: #a62d1f;
}
.class-tfsejmhzm .fill-orange {
  fill: #f09c25;
}
.class-tfsejmhzm .fill-orange-shadow {
  fill: #e98f10;
}
.class-tfsejmhzm .fill-orange-shadow-extra {
  fill: #d1800e;
}
.class-tfsejmhzm .stop-color-orange {
  stop-color: #f09c25;
}
.class-tfsejmhzm .stop-color-orange-shadow {
  stop-color: #e98f10;
}
.class-tfsejmhzm .stop-color-orange-shadow-extra {
  stop-color: #d1800e;
}
.class-tfsejmhzm .fill-blue {
  fill: #3b7ded;
}
.class-tfsejmhzm .fill-blue-shadow {
  fill: #1f6bea;
}
.class-tfsejmhzm .fill-blue-shadow-extra {
  fill: #145eda;
}
.class-tfsejmhzm .stop-color-blue {
  stop-color: #3b7ded;
}
.class-tfsejmhzm .stop-color-blue-shadow {
  stop-color: #1f6bea;
}
.class-tfsejmhzm .stop-color-blue-shadow-extra {
  stop-color: #145eda;
}
.class-tfsejmhzm .fill-color-0 {
  fill: #fbfcfb;
}
.class-tfsejmhzm .fill-color-0-shadow {
  fill: #dee6de;
}
.class-tfsejmhzm .fill-color-0-shadow-extra {
  fill: #b4c6b4;
}
.class-tfsejmhzm .stop-color-color-0 {
  stop-color: #fbfcfb;
}
.class-tfsejmhzm .fill-color-1 {
  fill: #8a9475;
}
.class-tfsejmhzm .fill-color-1-shadow {
  fill: #7c8668;
}
.class-tfsejmhzm .fill-color-1-shadow-extra {
  fill: #687057;
}
.class-tfsejmhzm .fill-body-detail {
  fill: #ffffff;
}
.class-tfsejmhzm .stroke-color-0 {
  stroke: #fbfcfb;
}
.class-tfsejmhzm .stroke-color-0-shadow {
  stroke: #dee6de;
}
.class-tfsejmhzm .stroke-color-0-shadow-extra {
  stroke: #b4c6b4;
}
.class-tfsejmhzm .stroke-color-1 {
  stroke: #8a9475;
}
.class-tfsejmhzm .stroke-color-1-shadow {
  stroke: #7c8668;
}
.class-tfsejmhzm .stroke-color-1-shadow-extra {
  stroke: #687057;
}</style></svg></g><g transform="matrix(0.8964362424933152,0,0,0.8964362424933153,54.975602587378134,95.49438771140683)"><svg xmlns="http://www.w3.org/2000/svg" version="1.1" xmlns:xlink="http://www.w3.org/1999/xlink" xmlns:svgjs="http://svgjs.com/svgjs" width="155.72" height="228.13"><svg xmlns="http://www.w3.org/2000/svg" version="1.1" xmlns:xlink="http://www.w3.org/1999/xlink" xmlns:svgjs="http://svgjs.com/svgjs" width="155.72" height="228.13" class="class-5liryx7lq"><svg xmlns="http://www.w3.org/2000/svg" viewBox="0 0 155.72 228.13" class="class-5liryx7lq">
    <defs>
        <clipPath id="a">
            <path d="M57.19 139.94s11.53 13.81 38.65 5.92c0 0-7.83-42.36-3.65-55.94S109.42 50.08 109.42 24c0 0-2.08-4.63-7.83-2.54 0 0-1 24.59-10.56 42.87a25.88 25.88 0 01-13.44 11.9l-17.74 7C55 85.21 50.56 89.21 50.1 94.4c-2.68 30.71-8.11 37.14-15.94 41.79l7.84 2.73s12.63-3.83 15.2-31.6z" fill="none"></path>
        </clipPath>
    </defs>
    <g data-name="Layer 2">
        <g data-name="Layer 1">
            <path d="M124.7 211.63l12.09-.34 3 7.42-16.91-3.2c-5.54-1.05 1.82-3.88 1.82-3.88z" class="fill-white"></path>
            <path d="M133 211.72s3.35 1 3.79 4.1a2.16 2.16 0 00-.21 1.9 2.07 2.07 0 002.16 1.22c1.84-.19 6.13-.12 11 3.43 4.38 3.19 4.87 4.13 4.87 4.13s.76 1 1.12-1.5-2.67-9.57-6.05-11.67c0 0-3.68-2.07-3.17-3.62a11.09 11.09 0 00-3.61-3 3 3 0 00-3.51.36 29.61 29.61 0 01-6.39 4.65z" class="fill-hair-shadow"></path>
            <path d="M16.53 219a9.52 9.52 0 002-5.51v-11.4h6.07s-.1 10.46 1.11 15.52c0 0-3.15 8.87-9.18 1.39z" class="fill-white"></path>
            <path d="M25.71 217.61l.88 6.66a1.75 1.75 0 01-1.39 1.94 28.61 28.61 0 01-5.17.62l-.56-.23a4.23 4.23 0 00-2.46-.21 86 86 0 01-10.77 1.73 18.55 18.55 0 01-4.24-.31c-1.78-.54-2.45-1.11-1.7-1.35 5.32-1.7 13.5-8 14.5-9a2.48 2.48 0 012.26-.65l.52.12a2.48 2.48 0 011.84 1.69l.06.18s3.94 1.73 6.23-1.19z" class="fill-hair-shadow"></path>
            <path d="M92.1 146.81s-16.69 57.5-9.82 60.95 49.84 2.91 49.84 2.91 2.34 7.08-.78 10.34c0 0-54.53 3-61.37-2.89s-3.89-57.58-3.89-57.58l-38.53-7.42c-2.73 18.29-2.23 38.56.26 60 0 0-7.84 4.06-11.2.56-3-19.38-3.21-42.37-3.31-67.06 0 0-1.24-9.11 11.1-8.74 11.42.35 36.28 2.47 36.28 2.47L65.59 129l21.6 2.72s7 2.59 4.91 15.09z" class="fill-color-0"></path>
            <path d="M102.74 24.27s-1.31-5.4-3.27-7.2a52.43 52.43 0 01-5.24-6.71s.33-1.15 2 0 4.91 5.24 5.4 1.8S104.38.29 104.38.29s1.22-.78.89 1.11-1 9.41 0 8.22C106.51 8.2 108-.72 109.42.05c.74.39-2.45 10.64-2.09 11.7.16.49.51.08.51.08s2.74-7.7 3.5-7.36c.42.18-.33 3-1 5s-1.38 3.76-.94 3.76 2.07-4.06 2.07-4.06.47-.22.39.43a30.51 30.51 0 01-3.2 10.63c-2.54 4.54-2.54 6.88-2.54 6.88z" class="fill-skin"></path>
            <path d="M101.49 23.19v-2.76s4.36-2 7.37 1.38l-.55 3.9z" class="fill-white"></path>
            <path d="M24.4 137.92c11.42.35 36.28 2.47 36.28 2.47L65.59 129l21.6 2.72s7 2.63 4.91 15.13c0 0-.49 1.71-1.28 4.56-5.42 1.92-17 6.91-17.71 14.74-.89 10.23-2.55 45.28 1.59 46.79s27.88 4.54 58.23 2.23c.12 2.06-.15 4.37-1.59 5.88 0 0-54.53 3-61.37-2.89s-3.89-57.58-3.89-57.58l-38.53-7.42c-.71 4.79-1.2 9.73-1.5 14.78a22.2 22.2 0 00-12.31 10.26c-.32-10.06-.4-20.62-.44-31.5 0-.04-1.24-9.15 11.1-8.78z" class="fill-color-0-shadow"></path>
            <path d="M105.18 19.87s-.06 1.82-.21 4.6l-3.48-1.28v-2.76a7.73 7.73 0 013.69-.56z" class="fill-white-shadow"></path>
            <path d="M57.19 139.94s11.53 13.81 38.65 5.92c0 0-7.83-42.36-3.65-55.94S109.42 50.08 109.42 24c0 0-2.08-4.63-7.83-2.54 0 0-1 24.59-10.56 42.87a25.88 25.88 0 01-13.44 11.9l-17.74 7C55 85.21 50.56 89.21 50.1 94.4c-2.68 30.71-8.11 37.14-15.94 41.79l7.84 2.73s12.63-3.83 15.2-31.6z" class="fill-color-1"></path>
            <path d="M48.07 126.74c.28-1.79-.77-4.52-2.06-7.08 1.73-5.86 3.1-13.89 4.09-25.26.46-5.19 4.91-9.19 9.75-11.11l17.74-7A25.88 25.88 0 0091 64.36c9.59-18.28 10.56-42.87 10.56-42.87a7.66 7.66 0 013.54-.49c-.18 4.58-1 22-3.64 29.63a13.4 13.4 0 001 10.77C98.65 73 94.29 83.08 92.19 89.92A35.28 35.28 0 0091 98.73c-3.18.8-18.14 5.1-20.42 16.06-2.55 12.28-3.9 27.67-3.9 27.67s5.08 4.61 28.7.85c.28 1.62.45 2.55.45 2.55-27.12 7.89-38.65-5.92-38.65-5.92v-32.62c-2.57 27.77-15.2 31.6-15.2 31.6l-2.34-.82s7.78-7.1 8.43-11.36z" class="fill-color-1-shadow"></path>
            <path d="M77.59 76.26s-1 15.13-7.73 22.33c0 0-9.52-6.69-10-15.3z" class="fill-white"></path>
            <path d="M64.25 70.58v8.09s0 2.84-1 3.27c0 0 1.4 6.43 4.79 6.28s7.36-3.57 6.6-10.8c0 0-3.78.88-3.78-6.84s-6.61-4.52-6.61 0z" class="fill-skin"></path>
            <path d="M64.25 78.67v-8.09a4.81 4.81 0 01.53-2.18l5.35-.34.57.87a10 10 0 01.13 1.65c0 3.55.8 5.28 1.66 6.11-2.42 2.09-6.09 5.8-7.24 9.94a14.08 14.08 0 01-2-4.69c1.04-.43 1-3.27 1-3.27z" class="fill-skin-shadow"></path>
            <path d="M42 138.92a5.93 5.93 0 00-4.19-3.74 6.71 6.71 0 00-6.3 2.66c-1 1.65-.49 3-.25 3.19a2.58 2.58 0 01.06.88c0 .64.76 1.2.82 1.58 1.41 8.08 1.5.65 2-.74 0 0 .55 7.53 1.75.59a14.93 14.93 0 011.19-1.69c.76-.9 2.26-3.09 4.92-2.73z" class="fill-skin"></path>
            <path d="M73.87 47.79a4.08 4.08 0 00-3.64-3l1.24 1.09s-11.53-4-16.76 5.34c-1.18 2.12-.19 4.51.13 6.9.5 3.66 3.75 10.68 6.63 12.47l4.64.21s10.44-4.38 10.5-14.13c.04-8.06-2.74-8.88-2.74-8.88z" class="fill-hair-shadow"></path>
            <path d="M70 76.28c1.75-1.48 4.61-3.37 5.52-8A16.78 16.78 0 0077 62.76c.11-1.2-.81-1.6-1.24-.46 0 .12-.4-.07-.4-.2l-.16-.08c2.61-4.19-2.6-9.36-6.13-8.65a15.66 15.66 0 01-5.79.1c-2-.35-7.59 3.59-5.78 9.09.07.21-.47.81-.51.59a2.83 2.83 0 00-.07-.36c-.33-1.35-1.63-.91-1.34.45s.92 4.19 2.44 5c0 0 2.22 6.7 6 8.42h4.73a1.89 1.89 0 001.25-.38z" class="fill-skin"></path>
            <path d="M56.93 62.83a2.83 2.83 0 01.07.36c0 .22.58-.38.51-.59-1.81-5.5 3.8-9.44 5.78-9.09a15.66 15.66 0 005.79-.1 5.81 5.81 0 014.84 1.9c-2.06-.12-7.46-.18-7.63 2.45-.21 3.26 0 10.3 0 10.3s2 0 .86 1c-.91.78-3.59 4.51-1.71 7.68H64c-3.75-1.74-6-8.44-6-8.44-1.52-.83-2.18-3.76-2.44-5s1.04-1.82 1.37-.47z" class="fill-skin-shadow"></path>
            <path d="M64 45.16a16.56 16.56 0 017.5.69l-1.24-1.09a4.08 4.08 0 013.64 3s4.64 2.5 5 5a15.5 15.5 0 01-1.9 9.6c-.17-.42-.59-.9-1.64.56l-.16-.86c.49-2.19 3.3-7.6-1.87-12.2 0 0 1.77 2.28.72 3.48 0 0-4-8.8-12-.78 0 0 .9-4.91 7.86-4.42.09 0-.63-2.54-5.91-2.98z" class="fill-hair"></path>
            <path d="M69 71.54h-4.59s2.04 2.99 4.59 0z" class="fill-white"></path>
            <path d="M64.07 63.19s-1-1.76-4-1.06l-.86.24h1a.84.84 0 01.78.51 1 1 0 00.68.56 1 1 0 00.94-.3.83.83 0 01.92-.19zM69.19 63.19s1-1.76 4-1.06l.86.24h-1a.87.87 0 00-.79.51 1 1 0 01-1.61.26.83.83 0 00-.92-.19z" class="fill-hair-shadow"></path>
            <path d="M155.69 225c.37-2.46-2.67-9.57-6.05-11.67 0 0-3.68-2.07-3.17-3.62a11.09 11.09 0 00-3.61-3 3 3 0 00-3.51.36l-.31.27c6.9 3.65 11.43 8 14 12 2.81 4.33 1.5 7.16 1.5 7.16.13.12.81.79 1.15-1.5zM2 227.81a18.55 18.55 0 004.21.31A86 86 0 0017 226.39a4.23 4.23 0 012.46.21l.56.23a28.61 28.61 0 005.17-.62 1.75 1.75 0 001.39-1.94l-.06-.46c-4.41.89-15 3-19.27 3.59-5.37.69-7-.94-7-.94-.7.24-.03.81 1.75 1.35z" class="fill-color-1"></path>
            <path d="M40.38 136.52a6.49 6.49 0 011.61 2.4c-2.65-.36-4.15 1.83-4.89 2.73a14.93 14.93 0 00-1.19 1.69c-1.2 6.94-1.75-.59-1.75-.59-.53 1.39-.62 8.82-2 .74-.06-.38-.84-.94-.82-1.58a2.58 2.58 0 00-.06-.88 2.66 2.66 0 01-.05-2.61 8.59 8.59 0 009.15-1.9z" class="fill-skin-shadow"></path>
            <g clip-path="url(#a)">
                <path d="M79.68 73.87s-.18 19.64-9.51 27.34c0 0-11.19-6.57-12-17.8" stroke-miterlimit="10" stroke-width=".5" fill="none" class="stroke-color-1"></path>
            </g>
        </g>
    </g>
</svg></svg><style>.class-5liryx7lq .fill-skin {
  fill: #f1d9b1;
}
.class-5liryx7lq .fill-skin-shadow {
  fill: #ebc78d;
}
.class-5liryx7lq .fill-hair {
  fill: #8a9475;
}
.class-5liryx7lq .fill-hair-shadow {
  fill: #7c8668;
}
.class-5liryx7lq .fill-white {
  fill: #fbfcfb;
}
.class-5liryx7lq .fill-white-shadow {
  fill: #dee6de;
}
.class-5liryx7lq .fill-white-shadow-extra {
  fill: #c4d2c4;
}
.class-5liryx7lq .stop-color-white {
  stop-color: #fbfcfb;
}
.class-5liryx7lq .stop-color-white-shadow {
  stop-color: #dee6de;
}
.class-5liryx7lq .stop-color-white-shadow-extra {
  stop-color: #c4d2c4;
}
.class-5liryx7lq .stroke-white {
  stroke: #fbfcfb;
}
.class-5liryx7lq .stroke-white-shadow {
  stroke: #dee6de;
}
.class-5liryx7lq .stroke-white-shadow-extra {
  stroke: #b4c6b4;
}
.class-5liryx7lq .fill-yellow {
  fill: #eaea00;
}
.class-5liryx7lq .fill-yellow-shadow {
  fill: #dada00;
}
.class-5liryx7lq .fill-yellow-shadow-extra {
  fill: #cbcb00;
}
.class-5liryx7lq .stop-color-yellow {
  stop-color: #eaea00;
}
.class-5liryx7lq .stop-color-yellow-shadow {
  stop-color: #dada00;
}
.class-5liryx7lq .stop-color-yellow-shadow-extra {
  stop-color: #cbcb00;
}
.class-5liryx7lq .fill-green {
  fill: #2ba24c;
}
.class-5liryx7lq .fill-green-shadow {
  fill: #279244;
}
.class-5liryx7lq .fill-green-shadow-extra {
  fill: #23833d;
}
.class-5liryx7lq .stop-color-green {
  stop-color: #2ba24c;
}
.class-5liryx7lq .stop-color-green-shadow {
  stop-color: #279244;
}
.class-5liryx7lq .stop-color-green-shadow-extra {
  stop-color: #23833d;
}
.class-5liryx7lq .stroke-green {
  stroke: #2ba24c;
}
.class-5liryx7lq .stroke-green-shadow {
  stroke: #279244;
}
.class-5liryx7lq .stroke-green-shadow-extra {
  stroke: #217a39;
}
.class-5liryx7lq .fill-red {
  fill: #ce3827;
}
.class-5liryx7lq .fill-red-shadow {
  fill: #b93223;
}
.class-5liryx7lq .fill-red-shadow-extra {
  fill: #a62d1f;
}
.class-5liryx7lq .stop-color-red {
  stop-color: #ce3827;
}
.class-5liryx7lq .stop-color-red-shadow {
  stop-color: #b93223;
}
.class-5liryx7lq .stop-color-red-shadow-extra {
  stop-color: #a62d1f;
}
.class-5liryx7lq .fill-orange {
  fill: #f09c25;
}
.class-5liryx7lq .fill-orange-shadow {
  fill: #e98f10;
}
.class-5liryx7lq .fill-orange-shadow-extra {
  fill: #d1800e;
}
.class-5liryx7lq .stop-color-orange {
  stop-color: #f09c25;
}
.class-5liryx7lq .stop-color-orange-shadow {
  stop-color: #e98f10;
}
.class-5liryx7lq .stop-color-orange-shadow-extra {
  stop-color: #d1800e;
}
.class-5liryx7lq .fill-blue {
  fill: #3b7ded;
}
.class-5liryx7lq .fill-blue-shadow {
  fill: #1f6bea;
}
.class-5liryx7lq .fill-blue-shadow-extra {
  fill: #145eda;
}
.class-5liryx7lq .stop-color-blue {
  stop-color: #3b7ded;
}
.class-5liryx7lq .stop-color-blue-shadow {
  stop-color: #1f6bea;
}
.class-5liryx7lq .stop-color-blue-shadow-extra {
  stop-color: #145eda;
}
.class-5liryx7lq .fill-color-0 {
  fill: #8a9475;
}
.class-5liryx7lq .fill-color-0-shadow {
  fill: #7c8668;
}
.class-5liryx7lq .fill-color-0-shadow-extra {
  fill: #687057;
}
.class-5liryx7lq .stop-color-color-0 {
  stop-color: #8a9475;
}
.class-5liryx7lq .fill-color-1 {
  fill: #fbfcfb;
}
.class-5liryx7lq .fill-color-1-shadow {
  fill: #dee6de;
}
.class-5liryx7lq .fill-color-1-shadow-extra {
  fill: #b4c6b4;
}
.class-5liryx7lq .fill-body-detail {
  fill: #ffffff;
}
.class-5liryx7lq .stroke-color-0 {
  stroke: #8a9475;
}
.class-5liryx7lq .stroke-color-0-shadow {
  stroke: #7c8668;
}
.class-5liryx7lq .stroke-color-0-shadow-extra {
  stroke: #687057;
}
.class-5liryx7lq .stroke-color-1 {
  stroke: #fbfcfb;
}
.class-5liryx7lq .stroke-color-1-shadow {
  stroke: #dee6de;
}
.class-5liryx7lq .stroke-color-1-shadow-extra {
  stroke: #b4c6b4;
}</style></svg></g><g transform="matrix(1,0,0,1,210,52.49851141250417)"><svg xmlns="http://www.w3.org/2000/svg" version="1.1" xmlns:xlink="http://www.w3.org/1999/xlink" xmlns:svgjs="http://svgjs.com/svgjs" width="166.41" height="205.26"><svg xmlns="http://www.w3.org/2000/svg" version="1.1" xmlns:xlink="http://www.w3.org/1999/xlink" xmlns:svgjs="http://svgjs.com/svgjs" width="166.41" height="205.26" class="class-xjxf9lif3"><svg xmlns="http://www.w3.org/2000/svg" viewBox="0 0 166.41 205.26" class="class-xjxf9lif3">
    <g data-name="Layer 2">
        <g data-name="Layer 1">
            <path d="M27.45 156.21s6.1 7.26 9.36 9l-3 4.32s-7.3-4.53-11.61-3.22-1.92-9.53 5.25-10.1z" class="fill-skin"></path>
            <path d="M25.22 152.64s-4.55 4.29-9.74 8.67c-3.67 3.08-8.08 5.16-9.56 10.43 0 0 .64 1.1 2.81.22s8.75-4.32 14.85-3.68c0 0 1.8-2.28.92-4.46s2.35-6.2 6.21-3.87c0 .05.39-2.88-5.49-7.31z" class="fill-hair-shadow"></path>
            <path d="M50.41 141.43s2.94 9 5.28 11.9l-4.38 2.88s-5-7-9.55-7.39 1.8-9.55 8.65-7.39z" class="fill-skin-shadow"></path>
            <path d="M49.69 137.28s-5.83 2.27-12.28 4.38c-4.56 1.49-9.42 1.76-12.78 6.08 0 0 .18 1.26 2.52 1.26s9.74-.72 15.15 2.17c0 0 2.52-1.45 2.52-3.79s4.51-4.87 7.22-1.26c-.04 0 1.44-2.53-2.35-8.84z" class="fill-hair-shadow"></path>
            <path d="M145.25 34.33s12.63-10.46 15-11 5.59-5.59 6.13-9.74-3.06 4-2.7-.9 0-10.1.72-12.08-6 1.08-6.85 6.13-1.81 14.06-12.27 20.92-.03 6.67-.03 6.67z" class="fill-skin"></path>
            <path d="M145.66 34c2.17-1.78 12.47-10.18 14.56-10.66 2.34-.54 5.59-5.59 6.13-9.74s-3.06 4-2.7-.9 0-10.1.72-12.08-5.22.75-6.64 5.3c1.72 4 3.58 11-1.6 16a22.56 22.56 0 01-10.68 5.62l-.2.14a18.87 18.87 0 00-3.74 3z" class="fill-skin-shadow"></path>
            <path d="M33.64 82.29s-11.9 7-17.49 4.73-14.24-8.7-15.5-8.7-.9-2.16 3.06-2.16h5.77S7.68 74.9 7.5 74s8.65 8.12 22 3.61 4.14 4.68 4.14 4.68z" class="fill-skin"></path>
            <path d="M16.15 87c4.43 1.76 12.81-2.23 16.11-4A31.94 31.94 0 0035 76.36a19.12 19.12 0 00-5.5 1.24 24.5 24.5 0 01-4.83 1.11c-.14 2.35-.88 5.45-3.78 5.45a123.56 123.56 0 01-12.34-1.22 54.75 54.75 0 007.6 4.06z" class="fill-skin-shadow"></path>
            <path d="M115.51 27.5c-4.23-1.95-2.27-4.22-2.43-11.54s-13.65-3.25-13.65-3.25A14.27 14.27 0 0098.24 10c-2-9.13-8.89-8.51-8.89-8.51 2.83.44 4.59 2.9 5.62 5.05-3.07-2-7-2-10.82-1.15-6.17 1.46-3.57 10.89-13 12.68s-6.66 10.56-10.56 19.5S45 49.44 45 49.44c4.25 2.44 9.89-1.63 9.89-1.63C51 52 50.68 58.7 52.63 66.18s-5.36 17.55-11.21 23.39-1.3 14.14-1.3 14.14c.32-5.2 8.12-6.5 17.06-5.69s14.57-9.91 14.57-9.91c-1.51 5.06 2.65 6.5 2.65 6.5C74.08 87.79 85 85 94.23 83.73s21.26-27.27 25.35-34.94.16-19.34-4.07-21.29z" class="fill-hair-shadow"></path>
            <path d="M84.15 5.4c-6.17 1.46-3.57 10.89-13 12.68s-6.66 10.56-10.56 19.5S45 49.44 45 49.44c4.25 2.44 9.89-1.63 9.89-1.63C51 52 50.68 58.7 52.63 66.18s-5.36 17.55-11.21 23.39c-4.6 4.61-2.77 10.71-1.78 13.11.56-3.34 2.35-7.31 6.93-10.83 10.45-8 18.67-15.1 18.1-29.06s.19-16.06 6.5-20.84.19-13 5.35-17.2S81.6 7.92 89.77 11.37c5 2.08 3.52-4.39-1-6.5a19.14 19.14 0 00-4.62.53z" class="fill-hair"></path>
            <path d="M104.69 137.82l15.14-2.52s-5.72 60.22-23.39 70c0 0-24.93-1.08-48.73-51.21 0 0 1.8-5.41 8.65-5.41 0 0 15.92 34.74 32.87 40.75 0 0 7.16-22.36 6.8-43.27s8.66-8.34 8.66-8.34z" class="fill-color-1-shadow"></path>
            <path d="M119.83 135.3C103.6 120.87 82 132.05 82 132.05s-7 53-15.55 51.93-30.23-22.36-30.23-22.36-6.85 1.81-6.49 9c0 0 24.52 28.75 40 28 0 0 6.49 7.32 26.68-38.84z" class="fill-color-1"></path>
            <path d="M114.29 141.1c-4-3.58-23.75-5.82-32.67-6.67-.63 4.39-2.12 14.18-4.2 23.91 2.37 2.15 9.1 8.8 11.67 17.11 2.21-4.37 4.63-9.53 7.3-15.63z" class="fill-color-1-shadow"></path>
            <path d="M27.15 77.24S104 51.64 146.88 25.31c0 0 5.05 2.17 5.05 7.21 0 0-36.07 25.25-34.62 34.26s7.57 14.43-3.25 23.8c0 0-8.07 18.25 7.1 40.16a9.52 9.52 0 01-3.35 13.77c-6.53 3.49-17.28 6.18-33.83 2.35-6.67-1.54-8.21-1-8-7.87.14-4.85 3.41-18.74 6.62-26.41 8.29-19.83-.38-41.11-16.2-37.5S29.66 84.8 29.66 84.8s-4.66-2.87-2.51-7.56z" class="fill-color-0"></path>
            <path d="M84.42 87.46c16.74 2.85 15-7.32 15-7.32C90 73.45 80.64 60.5 64.69 63.58c12.94-5.23 40.58-16.64 53.76-23a18.74 18.74 0 009.46.41c2.87-.75 17.31-8.65 23.14-11.87a7 7 0 01.88 3.4s-36.07 25.25-34.62 34.26 7.57 14.43-3.25 23.8c0 0-8.07 18.25 7.1 40.16a9.52 9.52 0 01-3.35 13.77c-6.53 3.49-22 7.36-38.09 1.91-2.85-1-3.06-1.22-3.74-4.57 11.78 1.49 25.64-.74 28.71-4 4.35-4.66 2.7-38.18-18.9-40.2a65.69 65.69 0 00-1.37-10.19z" class="fill-color-0-shadow"></path>
            <path d="M100.78 38.1s20.31 9.9 11.84 24.36A203.71 203.71 0 0199.33 83S75.1 52.75 93 40.1c8.11-5.77 7.78-2 7.78-2z" class="fill-white"></path>
            <path d="M100.78 38.1s.33-3.77-7.81 2c-6.33 4.48-7.38 11.16-6.09 17.9 2.57 0 6.52.31 8.05 2.7 2.33 3.66 4.35 14 4.35 14l5-17.66s5.87-.36 7.72 6.44c.21-.34.41-.69.62-1C121.09 48 100.78 38.1 100.78 38.1z" class="fill-white-shadow"></path>
            <path d="M99.28 74.72s7.93-20.92 8.11-23.8c0 0-2.88-.73-5.77-13.71l-1.18-6.67-9.1 7.57s10.27 11.26 7.94 36.61z" class="fill-skin"></path>
            <path d="M101.62 37.21l-.28-1.61A36.64 36.64 0 0097 36.89a42.21 42.21 0 00-2 7.06 45.12 45.12 0 012.63 7.19 18.86 18.86 0 018.91 3.37 22.46 22.46 0 00.92-3.59s-2.95-.73-5.84-13.71z" class="fill-skin-shadow"></path>
            <path d="M87.25 17.57c-3.33.85-5.23 5.11-4.93 8.55a21.6 21.6 0 001.84 8.49c-.09 1.87.32 4.52 2.49 5 4.18 6 9 6.83 11.15 6.07 5.93-2.07 5.55-11.23 5.56-11.25a6.53 6.53 0 00.8-3.41v-.18c-.48-4.19-2-4.09-2-4.09C100 19.11 95 15.16 87.25 17.57z" class="fill-skin"></path>
            <path d="M104.15 31.08v-.18c-.48-4.19-2-4.09-2-4.09-1.24-4.41-3.41-7.59-6.49-9-5.8 1.94-10.41 7.59-13 11.51a20.16 20.16 0 001.56 5.33c-.09 1.88.32 4.52 2.48 5a19.67 19.67 0 002 2.48c1.93-3.62 6.77-10.2 14.44-4.33a20.43 20.43 0 00.25-3.33 6.53 6.53 0 00.8-3.41z" class="fill-skin-shadow"></path>
            <path d="M97.81 32a.85.85 0 10-1.64.48" class="fill-hair-shadow"></path>
            <path d="M98.22 41a6.2 6.2 0 00-3.67 1.52A3.2 3.2 0 0098.22 41z" class="fill-color-1"></path>
            <path d="M94.55 20.49S92.7 33.2 84.21 42.86s-1.92-26-1.92-26 13.17-3.17 18.15-.2 3.69 11.23 3.69 11.23-8.57-2.95-9.58-7.4z" class="fill-hair-shadow"></path>
            <path d="M71.66 53.6s-1.16-6.67 4.58-9.88 4-11.63 4-13.27-.24-9.76 9.41-9.81c0 0-7.79 1.57-6.26 7.88s2.79 14-1.9 16.8-7.83 2.59-9.83 8.28zM101.67 12.17c.33 1.08 1.33 2.83 3.53 2.45s5.49-.5 7.82.68c-.7-4.69-7.68-3.89-11.35-3.13z" class="fill-hair"></path>
            <path d="M150.85 22.91a4.07 4.07 0 013.92 3.9l1.16-.85c-.44-3.65-4.25-4-4.25-4z" class="fill-hair-shadow"></path>
            <ellipse cx="153.39" cy="23.11" rx="1.45" ry="1.04" class="fill-color-0"></ellipse>
        </g>
    </g>
</svg></svg><style>.class-xjxf9lif3 .fill-skin {
  fill: #f1d9b1;
}
.class-xjxf9lif3 .fill-skin-shadow {
  fill: #ebc78d;
}
.class-xjxf9lif3 .fill-hair {
  fill: #8a9475;
}
.class-xjxf9lif3 .fill-hair-shadow {
  fill: #7c8668;
}
.class-xjxf9lif3 .fill-white {
  fill: #fbfcfb;
}
.class-xjxf9lif3 .fill-white-shadow {
  fill: #dee6de;
}
.class-xjxf9lif3 .fill-white-shadow-extra {
  fill: #c4d2c4;
}
.class-xjxf9lif3 .stop-color-white {
  stop-color: #fbfcfb;
}
.class-xjxf9lif3 .stop-color-white-shadow {
  stop-color: #dee6de;
}
.class-xjxf9lif3 .stop-color-white-shadow-extra {
  stop-color: #c4d2c4;
}
.class-xjxf9lif3 .stroke-white {
  stroke: #fbfcfb;
}
.class-xjxf9lif3 .stroke-white-shadow {
  stroke: #dee6de;
}
.class-xjxf9lif3 .stroke-white-shadow-extra {
  stroke: #b4c6b4;
}
.class-xjxf9lif3 .fill-yellow {
  fill: #eaea00;
}
.class-xjxf9lif3 .fill-yellow-shadow {
  fill: #dada00;
}
.class-xjxf9lif3 .fill-yellow-shadow-extra {
  fill: #cbcb00;
}
.class-xjxf9lif3 .stop-color-yellow {
  stop-color: #eaea00;
}
.class-xjxf9lif3 .stop-color-yellow-shadow {
  stop-color: #dada00;
}
.class-xjxf9lif3 .stop-color-yellow-shadow-extra {
  stop-color: #cbcb00;
}
.class-xjxf9lif3 .fill-green {
  fill: #2ba24c;
}
.class-xjxf9lif3 .fill-green-shadow {
  fill: #279244;
}
.class-xjxf9lif3 .fill-green-shadow-extra {
  fill: #23833d;
}
.class-xjxf9lif3 .stop-color-green {
  stop-color: #2ba24c;
}
.class-xjxf9lif3 .stop-color-green-shadow {
  stop-color: #279244;
}
.class-xjxf9lif3 .stop-color-green-shadow-extra {
  stop-color: #23833d;
}
.class-xjxf9lif3 .stroke-green {
  stroke: #2ba24c;
}
.class-xjxf9lif3 .stroke-green-shadow {
  stroke: #279244;
}
.class-xjxf9lif3 .stroke-green-shadow-extra {
  stroke: #217a39;
}
.class-xjxf9lif3 .fill-red {
  fill: #ce3827;
}
.class-xjxf9lif3 .fill-red-shadow {
  fill: #b93223;
}
.class-xjxf9lif3 .fill-red-shadow-extra {
  fill: #a62d1f;
}
.class-xjxf9lif3 .stop-color-red {
  stop-color: #ce3827;
}
.class-xjxf9lif3 .stop-color-red-shadow {
  stop-color: #b93223;
}
.class-xjxf9lif3 .stop-color-red-shadow-extra {
  stop-color: #a62d1f;
}
.class-xjxf9lif3 .fill-orange {
  fill: #f09c25;
}
.class-xjxf9lif3 .fill-orange-shadow {
  fill: #e98f10;
}
.class-xjxf9lif3 .fill-orange-shadow-extra {
  fill: #d1800e;
}
.class-xjxf9lif3 .stop-color-orange {
  stop-color: #f09c25;
}
.class-xjxf9lif3 .stop-color-orange-shadow {
  stop-color: #e98f10;
}
.class-xjxf9lif3 .stop-color-orange-shadow-extra {
  stop-color: #d1800e;
}
.class-xjxf9lif3 .fill-blue {
  fill: #3b7ded;
}
.class-xjxf9lif3 .fill-blue-shadow {
  fill: #1f6bea;
}
.class-xjxf9lif3 .fill-blue-shadow-extra {
  fill: #145eda;
}
.class-xjxf9lif3 .stop-color-blue {
  stop-color: #3b7ded;
}
.class-xjxf9lif3 .stop-color-blue-shadow {
  stop-color: #1f6bea;
}
.class-xjxf9lif3 .stop-color-blue-shadow-extra {
  stop-color: #145eda;
}
.class-xjxf9lif3 .fill-color-0 {
  fill: #8a9475;
}
.class-xjxf9lif3 .fill-color-0-shadow {
  fill: #7c8668;
}
.class-xjxf9lif3 .fill-color-0-shadow-extra {
  fill: #687057;
}
.class-xjxf9lif3 .stop-color-color-0 {
  stop-color: #8a9475;
}
.class-xjxf9lif3 .fill-color-1 {
  fill: #fbfcfb;
}
.class-xjxf9lif3 .fill-color-1-shadow {
  fill: #dee6de;
}
.class-xjxf9lif3 .fill-color-1-shadow-extra {
  fill: #b4c6b4;
}
.class-xjxf9lif3 .fill-body-detail {
  fill: #ffffff;
}
.class-xjxf9lif3 .stroke-color-0 {
  stroke: #8a9475;
}
.class-xjxf9lif3 .stroke-color-0-shadow {
  stroke: #7c8668;
}
.class-xjxf9lif3 .stroke-color-0-shadow-extra {
  stroke: #687057;
}
.class-xjxf9lif3 .stroke-color-1 {
  stroke: #fbfcfb;
}
.class-xjxf9lif3 .stroke-color-1-shadow {
  stroke: #dee6de;
}
.class-xjxf9lif3 .stroke-color-1-shadow-extra {
  stroke: #b4c6b4;
}</style></svg></g><g transform="matrix(1,0,0,1,190,47.49851141250417)"><svg xmlns="http://www.w3.org/2000/svg" version="1.1" xmlns:xlink="http://www.w3.org/1999/xlink" xmlns:svgjs="http://svgjs.com/svgjs" width="82.63" height="335.31"><svg xmlns="http://www.w3.org/2000/svg" version="1.1" xmlns:xlink="http://www.w3.org/1999/xlink" xmlns:svgjs="http://svgjs.com/svgjs" width="82.63" height="335.31" class="class-rl9le0k97"><svg xmlns="http://www.w3.org/2000/svg" viewBox="0 0 82.63 335.31" class="class-rl9le0k97">
    <defs>
        <clipPath id="a">
            <path fill="none" d="M57.4 105.95l-6.42 14.51-23.42 29.35 1.36 7.24 33.42-14.34v-30.99l-4.94-5.77z"></path>
        </clipPath>
    </defs>
    <g data-name="Layer 2">
        <g data-name="Layer 1">
            <path d="M26.81 141.73s-8.51 5.88-8.51 11" stroke-miterlimit="10" fill="none" class="stroke-hair-shadow"></path>
            <path d="M9 285.27l-5.22 6s.46 2.46 1.58 2.84c0 0 2.75.76 3-.61a61.56 61.56 0 00.64-8.23zM45.83 319.83L44.75 322v4.88s2 1.72 5.78.47-4.7-7.52-4.7-7.52zM23.47 60.81a3.29 3.29 0 002.26-.41c.93-.6.58-.77-.27-.77a1.47 1.47 0 01-.3-.08 1.62 1.62 0 01-.41-.22 3.44 3.44 0 01-.77-.88 6.74 6.74 0 01-.15-4c.11-.51.26-1 .42-1.51a6.26 6.26 0 01.31-.82 8.2 8.2 0 01.44-.72 6.15 6.15 0 01.37-.52 11.34 11.34 0 014.51-3.19c2.66-1.08 5.83-2 6.47-5.21a5 5 0 00-4.45-7A7.49 7.49 0 0025.25 38c-4.3 3.94-7 8.95-6.73 14.94.34 3.23 1.7 7.17 4.95 7.87z" class="fill-hair-shadow"></path>
            <path d="M30.12 42.16c0 2.48 2 3.51 4.5 3.51s4.49-1 4.49-3.51a4.5 4.5 0 10-9 0z" class="fill-white"></path>
            <path d="M50.68 304.52a4.22 4.22 0 00-3.85 1.84.27.27 0 00.1.46c-1.11 4-1 8.08-1.57 12.12a24.88 24.88 0 01-.61 3.07c.24 1.41 9 10.93 12.82 11.95l.51.14H58.68l.21.06h.28c2.67.73 10.71 1.2 14.69.86 3.51-.3-7.54-5.44-12.44-11.76l-.05-.07-.06-.07-.12-.16a7.86 7.86 0 01-.88-1.2l-3.83-.6H58l2.31.57-2.62-.55H58h-1.52l1.21.05c-1.45-2.37-2.25-4.9-3.5-7.37s-3-.06-3-.08 3 0 3 0c-.06-.16-.13-.31-.19-.46v-.06c-.83-2.43.06-4.76-1-7.11a.14.14 0 010-.06.14.14 0 010-.06v-.09c-.47-.68-1-1.72-2.32-1.42z" class="fill-color-0"></path>
            <path d="M55.13 323.65a5.32 5.32 0 01-3.65-1c-1.18-1-1.57-2.57-2.08-4s-1.42-3-2.93-3.25a.82.82 0 01-.57-.25.68.68 0 010-.47l.5-4.11a25.28 25.28 0 016.57-1c1.21 6 7.25 12.29 7.25 12.29-.62 1.14-4.02 1.74-5.09 1.79z" class="fill-white"></path>
            <path d="M8.75 284.29a10.39 10.39 0 00-1.61 2.79 8.54 8.54 0 00-.24 2.57v16.29a14.65 14.65 0 00.6 5c1.08 2.95 3.89 4.85 6.53 6.54 1.39.9 6.4 2.85 7.31 2.08s-3.1-4-3.56-4.93c-1.89-3.83-1.3-8.37-.42-12.54a106 106 0 013.88-13.75 10.37 10.37 0 00.84-3.48 6.25 6.25 0 00-3.85-5.39c-5.64-2.55-6.73.88-9.48 4.82z" class="fill-color-0-shadow"></path>
            <path d="M11.59 296.34a5.68 5.68 0 00-.34 2.19c.2 1.5 1.66 2.5 3.1 3a2.91 2.91 0 003-.38 3.35 3.35 0 00.66-1.43l3.68-13.15a.74.74 0 000-.36c0-.18-.21-.29-.36-.39-1.8-1.11-7.23-3.1-8.63-.55-.67 1.22-.1 3.55-.17 4.89a28.54 28.54 0 01-.94 6.18z" class="fill-white"></path>
            <path d="M56.41 97.24c3.05.65 3.91-8.49 5.72-10.84 2.76-3.6 5.61-6.67 8.39-10.25 4.53-5.66 10.92-8.4 12.11-16a123.55 123.55 0 00-1.3-13.11c-1.45-7.45-3.87-14.92-4.62-22.57a22.86 22.86 0 01-.1-4.22c0-.12 0-.24.07-.36 1-3.14 3.46-6.25 3.67-9.59a19.62 19.62 0 00-.53-3.74c-.43-1.78-.86 1-1 1.9-.11.37-.18 1.85-.49 2.09a11.62 11.62 0 01-.15-1.22v1c-.15-2 .49-6.3 0-7.55-.63-1.55-1.86 3.21-1.94 4.07a5.54 5.54 0 01-.12.69 1.66 1.66 0 01-.06.21l-.3 2c-.32-4.6-.71-9.32-1.65-9.75-1.29-.55-.8 7.26-.82 8.34v.4a1.14 1.14 0 01-.09.26c-1.46-1.32-3.43-7.66-5.2-7-.54.2 1.69 4.62 1.58 7a38.63 38.63 0 010 3.88v.7a2.26 2.26 0 000 .26c-2.26.12-4.76-1.37-6.91-.09a.5.5 0 00.16.8c2.81 2.34 6.22 4.03 8.17 7.45.07.16.13.32.19.49.75 2.23.64 4.76 1 7.12.45 3.13 1 6.23 1.31 9.4a.49.49 0 010 .12c.42 7.18 1.39 14.56.17 21.81a9 9 0 01-.3 1c-.1.25-.2.49-.32.73-.56 1-1.18 2.06-1.82 3.05-3.89 6.12-10.9 10.08-17.38 15.87-2 1.75.83 6 1.21 8.74.62 2.22-.66 6.47 1.35 6.91z" class="fill-skin"></path>
            <path d="M75.51 68.31c1.81-2 4.34-3.32 6.76-5.94-1.93 5.48-8.78 12.35-12.5 16.48-10 11.06-10.16 18.71-13 18.44 0-4.74-4.89-6.18 4.62-15.33 4.53-3.32 12.04-11.31 14.12-13.65z" class="fill-skin-shadow"></path>
            <path d="M30 224s.14.4.31.91c-.19-.07-.31-.23-.31-.91zM30.57 225.89v-.06z" class="fill-color-1-shadow"></path>
            <path d="M20.66 159.16c-.16-2.07-.42-4.26.29-6.26.57-.77 1.76-.79 2.64-1 3.75-1.21 8.83-.57 13.46.35 7.31-2.67 15.47-.58 23.29-1.17 8 17.42-2.85 58.19-4.27 71.71-.8 6.67.39 13 .23 19.93 0 14.49-4.14 61 1 67.19-2 2.19-9.21 1.94-12.48 1.28a103 103 0 001.59-18.08c.42-7.5-4.09-50.47-5.51-64.25 0 0-.33 8.18-7.54 7.94l-7.85 8.28a70.65 70.65 0 013.49-9.26l-.49-.18.71-.39a35.65 35.65 0 002.3-9.4h-1c.1-.86-.1-.82-.3-.92L30 224l2.94 2.94c-.69-19.42-12.15-48.28-12.24-67.76z" class="fill-color-1"></path>
            <path d="M30.94 226.94l-.35-1.06zM30.57 225.83c-.1-.3-.21-.63-.3-.92.1.29.2.62.3.92z" class="fill-color-1-shadow"></path>
            <path d="M29 224c-5.37-43.43-16-47.11-9.3-67.76l1-1v3.91a29.1 29.1 0 01-.16-3.85l41-2.41c.36 1.56.66 3.18.89 4.85-8.9 6-30.63 8.43-31 12.78-.47 5.54 6.5 38.1 3.59 51s4.28 12.57 4.28 12.57-16.61 36.68-16.69 54.37c0 0-9.64.46-12.76-5.69 3.31-5.64 9.41-5.23 13.94-42.2A57.53 57.53 0 0129 224" class="fill-color-1-shadow"></path>
            <path d="M13.33 137.62c-1.67-4-4.15-7.42-5.48-11.68a9.42 9.42 0 01-.06-2.43 23.48 23.48 0 011.51-6.11c.66-1.55.4-4 1.32-5.28l1-2c5.9-8.23 10.17-12.6 11.3-14.51 2.58-4.29 10-9.06 6-12.73-1.61-1.77-8.21-.55-11.45 3.38a102.83 102.83 0 00-6.36 11.06c-1.22 2.07-9.08 17.4-10 20.47-1.65 4.21-.4 9.35 2.18 13.31m18.23-34.82l.2-.29a2.75 2.75 0 01-.2.29z" class="fill-skin"></path>
            <path d="M2.3 131.09a14.3 14.3 0 01-1.6-12.18c6.6-5.3 6.71-11.64 18.24-24.87a29.4 29.4 0 013.3-3.04c.77-.53 3.42-1.34 4-.85-.08 3.1-.07 9.68-2.36 8.5-3.14-1.62-8.76 9.6-12.28 14.52l-.05.07a21.58 21.58 0 00-2.25 4.16 23.57 23.57 0 00-.78 2.33 24.53 24.53 0 00-.73 3.78 9.42 9.42 0 00.06 2.43c1.33 4.26 3.81 7.66 5.48 11.68 1.79 4.4 4.33 8.39 5.32 13.31 1.2 6.53-1.26 11.85-5.75 11.95-1.35.16-7.1-2.08-7.44-4.53a.24.24 0 01.34-.24c4.71 1.9 7.12-.64 6.91-2.08 0-.28-1.78.81-2 1-1.17 1.29-.37-2 .46-3.25.84-1.05 3-2.34 2.47-4.51-2.85-8.11-8.06-11.47-11.34-18.18zm19.22-34.81a2.75 2.75 0 00.19-.28l-.2.29z" class="fill-skin-shadow"></path>
            <path d="M27.53 138.41c1.83-4.84-2.36-14-4.52-33.65-.41-3.71.18-10.5 2.9-18.25 0-.09 0-.17.05-.24a13.54 13.54 0 00.17-3.94c.23 0-1-.24 2.57-.53 13.39-1.1 13.3 4.32 25.94-2 .75-.37 3.81 14.23 4 15.59 2.89 10.18-9.18 17.44-6.73 36l.12.53c1.22 5.35 3.46 9.85 10.49 22v.07c0-.03 0 0 0 0l.34 1.07c-15.74 7.8-44.7 5.36-44.63 3.77.42-7.9 7.46-15.57 9.3-20.42z" class="fill-color-0"></path>
            <path d="M39.93 65.61c-.86 0-2 .07-2.61.77-.09 1.15 0 2.31-.08 3.46 0 8.72-5.38 11.37-6.44 11.65-.52.09-2.84.44-3.36.44-.27 0-.71-.09-.61.33a15.85 15.85 0 001.35 5.61C32 96.74 47 98.31 53.07 90.83c1.94-3.12 1.34-7.14 1.15-10.64 0-.08 0-.2-.15-.22a9.51 9.51 0 01-1.77 0c-.33 0-.65-.07-1-.13a13.21 13.21 0 01-2.73-.84 3.3 3.3 0 01-.41-.23l-.28-.21a3.7 3.7 0 01-.28-.28l-.31-.39a7.33 7.33 0 01-.84-1.59c-.84-2.56-.83-5.3-1.11-8v-.63c0-.45 0-.91-.1-1.35.28.23.29-.16.06-.3-1.12-.6-2.5-.28-3.74-.39-.56.05-1.1-.01-1.63-.02z" class="fill-skin"></path>
            <path d="M35.32 77.57a13.84 13.84 0 001.92-7.74c.09-1.15 0-2.31.08-3.46.59-.7 1.75-.72 2.61-.77.53 0 1.07.07 1.6.11 1.24.11 2.62-.21 3.74.39.23.14.22.53-.06.3.06.45.07.9.1 1.35v.63c.2 1.84 0 1.88.27 3.71a25.72 25.72 0 01-2 1.65c-2.23 1.17-4.57 3.39-7.05 3.75a9.49 9.49 0 01-1.21.08z" class="fill-skin-shadow"></path>
            <path d="M39.28 40.27c-3.44-.13-6.46 3.42-7.15 6.81a21.84 21.84 0 00-.64 8.66c-.62 1.78-1 4.43 1 5.49 2.3 7 6.66 8.83 9 9 .6 0 2.61-1.42 3.79-2 1-.62 3.49-3.27 3.78-4.2s.95-3 1-3a6.51 6.51 0 001.72-3v-.18c.72-4.16-.77-4.5-.77-4.5-.01-8.01-3.66-13.21-11.73-13.08z" class="fill-skin"></path>
            <path d="M35.46 66.82a15.94 15.94 0 01-3-5.55c-1.94-1.06-1.59-3.71-1-5.49a21.24 21.24 0 01.4-7.7c7.39-1 13.27-1.8 13.65 2.91 0 0-.83 3.84-7.06 6.54-2.45 1.03-3.91 5.17-2.99 9.29z" class="fill-skin-shadow"></path>
            <path d="M50.11 54.73c1.35 0 2.23-4.52 2.15-5.61-.11-2.35-.87-3.72-2.49-5.7-2.3-2.62-7.59-5.42-11.5-5-4.85-.17-7.05 4.07-8.22 7.44a15.15 15.15 0 00-.42 4.29c-.07.73.3 1.53-.06 2.21a2.67 2.67 0 01-.5.62 4.07 4.07 0 01-.59.4 5 5 0 01-2.47.4c-1.43-.14.54.9.92 1a10.23 10.23 0 003.74.7c.45 1.74.42 2 2.6 5.76 0 0-.5-4.68-.45-5.77 3.55-.26 9.57-1.22 11.5-3.86 1.19 1.82 1.52 2.72 3.92 3" class="fill-hair-shadow"></path>
            <path d="M42.32 91.11a24.64 24.64 0 01-.68 4.18 5.35 5.35 0 001.73.19 15.4 15.4 0 01-.54-2 12 12 0 01-.51-2.37z" class="fill-skin-shadow"></path>
            <path d="M17.42 156.08zM19.85 142.72z" class="fill-color-0-shadow"></path>
            <path d="M44 41.58a16.54 16.54 0 00-6.58-1.44c-.7 0-2.37.31-2.82-.3a.76.76 0 01-.09-.33 6.45 6.45 0 014.57-1.85c3.91-.43 8.36 2.16 10.66 4.78a11.26 11.26 0 012.49 6.68c.08 1.09-.8 5.57-2.15 5.61a15.7 15.7 0 01-.48 4.85s-1.31-4.76-1.35-5c-.26 0-.49-.07-.7-.11a1.7 1.7 0 010-.55 16.8 16.8 0 00-.93-9.17 6.1 6.1 0 012.5 4.25c.57-3.5-1.94-5.91-5.12-7.42z" class="fill-hair"></path>
            <path d="M41.1 52a3.49 3.49 0 002-2.8 1.34 1.34 0 00-1.16.57c-.29.35-.48.77-.74 1.14a5.66 5.66 0 01-2.68 1.79 5.38 5.38 0 002.58-.7zM25.08 40.29a6.72 6.72 0 015-2.57c.31 0 2.68-.21 1.94-1-.31-.33-2.14.09-2.53.19a6.8 6.8 0 00-4.41 3.38z" class="fill-hair"></path>
            <path d="M45.33 57.05a.85.85 0 10-1.7 0" class="fill-hair-shadow"></path>
            <path d="M43.17 65.84a6.16 6.16 0 00-3.94.42 3.19 3.19 0 003.94-.42z" class="fill-color-1"></path>
            <path d="M36.07 104.44c-8.46-2.39-5.8-13.47-11.28-14.36-.85-.13-2.56 8.43-1.78 14.68 2.34 18.66 6.35 28.81 4.52 33.65s-8.88 12.52-9.23 20.45c0 .89 7.08 1.88 17.26 1.62-5.38-16.64-1.43-44.09 7.69-47.87C54.46 108 54.4 101.86 54.4 101.86s-6.26 4.41-18.33 2.58z" class="fill-color-0-shadow"></path>
            <path d="M53.44 167s-.78 4-.44 13-2.51 32.12-4.38 45.54-.32 19.64-.32 19.64c1.21 6.49 4.43 43.31 1.64 66.45a26.82 26.82 0 01-5.09-.46 103 103 0 001.59-18.08c.42-7.5-4.09-50.47-5.51-64.25 0 0 6-25.93 3.79-50.32a5.67 5.67 0 013-5.88 15.88 15.88 0 005.72-5.64z" class="fill-color-1-shadow"></path>
            <g clip-path="url(#a)">
                <path d="M56 104.31s2.72 38.41-26.34 49.86" stroke-miterlimit="10" fill="none" class="stroke-hair-shadow"></path>
            </g>
            <path d="M32.51 153a47.73 47.73 0 01-6.28-1c-3.11-.7-3.67-.94-7.46-1.65 0 0-6 11.61-1.05 13.74 9.42 4.01 14.49.5 14.79-11.09z" class="fill-hair-shadow"></path>
            <path d="M32.51 153a10.83 10.83 0 01-3.51 5.1 8.31 8.31 0 01-6 1.75 10.45 10.45 0 01-3.11-.78 4.64 4.64 0 01-2.46-2.14 4.57 4.57 0 01-.2-3.21 8.39 8.39 0 011.43-2.79 9.89 9.89 0 00-1 2.88 4.09 4.09 0 00.37 2.83 4.2 4.2 0 002.2 1.76 10.84 10.84 0 002.89.72 8.22 8.22 0 005.64-1.45 12.13 12.13 0 003.75-4.67z" class="fill-color-0"></path>
            <path d="M22.768 159.534l-1.55 1.027-1.027-1.551 1.551-1.027z" class="fill-white"></path>
            <path d="M51.21 121.12l8.84-17.91-1-7.72-7.84 25.63z" class="fill-color-0"></path>
        </g>
    </g>
</svg></svg><style>.class-rl9le0k97 .fill-skin {
  fill: #f1d9b1;
}
.class-rl9le0k97 .fill-skin-shadow {
  fill: #ebc78d;
}
.class-rl9le0k97 .fill-hair {
  fill: #b2bcab;
}
.class-rl9le0k97 .fill-hair-shadow {
  fill: #9fac97;
}
.class-rl9le0k97 .fill-white {
  fill: #fbfcfb;
}
.class-rl9le0k97 .fill-white-shadow {
  fill: #dee6de;
}
.class-rl9le0k97 .fill-white-shadow-extra {
  fill: #c4d2c4;
}
.class-rl9le0k97 .stop-color-white {
  stop-color: #fbfcfb;
}
.class-rl9le0k97 .stop-color-white-shadow {
  stop-color: #dee6de;
}
.class-rl9le0k97 .stop-color-white-shadow-extra {
  stop-color: #c4d2c4;
}
.class-rl9le0k97 .stroke-white {
  stroke: #fbfcfb;
}
.class-rl9le0k97 .stroke-white-shadow {
  stroke: #dee6de;
}
.class-rl9le0k97 .stroke-white-shadow-extra {
  stroke: #b4c6b4;
}
.class-rl9le0k97 .fill-yellow {
  fill: #eaea00;
}
.class-rl9le0k97 .fill-yellow-shadow {
  fill: #dada00;
}
.class-rl9le0k97 .fill-yellow-shadow-extra {
  fill: #cbcb00;
}
.class-rl9le0k97 .stop-color-yellow {
  stop-color: #eaea00;
}
.class-rl9le0k97 .stop-color-yellow-shadow {
  stop-color: #dada00;
}
.class-rl9le0k97 .stop-color-yellow-shadow-extra {
  stop-color: #cbcb00;
}
.class-rl9le0k97 .fill-green {
  fill: #2ba24c;
}
.class-rl9le0k97 .fill-green-shadow {
  fill: #279244;
}
.class-rl9le0k97 .fill-green-shadow-extra {
  fill: #23833d;
}
.class-rl9le0k97 .stop-color-green {
  stop-color: #2ba24c;
}
.class-rl9le0k97 .stop-color-green-shadow {
  stop-color: #279244;
}
.class-rl9le0k97 .stop-color-green-shadow-extra {
  stop-color: #23833d;
}
.class-rl9le0k97 .stroke-green {
  stroke: #2ba24c;
}
.class-rl9le0k97 .stroke-green-shadow {
  stroke: #279244;
}
.class-rl9le0k97 .stroke-green-shadow-extra {
  stroke: #217a39;
}
.class-rl9le0k97 .fill-red {
  fill: #ce3827;
}
.class-rl9le0k97 .fill-red-shadow {
  fill: #b93223;
}
.class-rl9le0k97 .fill-red-shadow-extra {
  fill: #a62d1f;
}
.class-rl9le0k97 .stop-color-red {
  stop-color: #ce3827;
}
.class-rl9le0k97 .stop-color-red-shadow {
  stop-color: #b93223;
}
.class-rl9le0k97 .stop-color-red-shadow-extra {
  stop-color: #a62d1f;
}
.class-rl9le0k97 .fill-orange {
  fill: #f09c25;
}
.class-rl9le0k97 .fill-orange-shadow {
  fill: #e98f10;
}
.class-rl9le0k97 .fill-orange-shadow-extra {
  fill: #d1800e;
}
.class-rl9le0k97 .stop-color-orange {
  stop-color: #f09c25;
}
.class-rl9le0k97 .stop-color-orange-shadow {
  stop-color: #e98f10;
}
.class-rl9le0k97 .stop-color-orange-shadow-extra {
  stop-color: #d1800e;
}
.class-rl9le0k97 .fill-blue {
  fill: #3b7ded;
}
.class-rl9le0k97 .fill-blue-shadow {
  fill: #1f6bea;
}
.class-rl9le0k97 .fill-blue-shadow-extra {
  fill: #145eda;
}
.class-rl9le0k97 .stop-color-blue {
  stop-color: #3b7ded;
}
.class-rl9le0k97 .stop-color-blue-shadow {
  stop-color: #1f6bea;
}
.class-rl9le0k97 .stop-color-blue-shadow-extra {
  stop-color: #145eda;
}
.class-rl9le0k97 .fill-color-0 {
  fill: #b2bcab;
}
.class-rl9le0k97 .fill-color-0-shadow {
  fill: #9fac97;
}
.class-rl9le0k97 .fill-color-0-shadow-extra {
  fill: #84957a;
}
.class-rl9le0k97 .stop-color-color-0 {
  stop-color: #b2bcab;
}
.class-rl9le0k97 .fill-color-1 {
  fill: #8a9475;
}
.class-rl9le0k97 .fill-color-1-shadow {
  fill: #7c8668;
}
.class-rl9le0k97 .fill-color-1-shadow-extra {
  fill: #687057;
}
.class-rl9le0k97 .fill-color-2 {
  fill: #b2bcab;
}
.class-rl9le0k97 .fill-color-2-shadow {
  fill: #9fac97;
}
.class-rl9le0k97 .fill-color-2-shadow-extra {
  fill: #84957a;
}
.class-rl9le0k97 .fill-body-detail {
  fill: #ffffff;
}
.class-rl9le0k97 .stroke-color-0 {
  stroke: #b2bcab;
}
.class-rl9le0k97 .stroke-color-0-shadow {
  stroke: #9fac97;
}
.class-rl9le0k97 .stroke-color-0-shadow-extra {
  stroke: #84957a;
}
.class-rl9le0k97 .stroke-color-1 {
  stroke: #8a9475;
}
.class-rl9le0k97 .stroke-color-1-shadow {
  stroke: #7c8668;
}
.class-rl9le0k97 .stroke-color-1-shadow-extra {
  stroke: #687057;
}
.class-rl9le0k97 .stroke-color-2 {
  stroke: #b2bcab;
}
.class-rl9le0k97 .stroke-color-2-shadow {
  stroke: #9fac97;
}
.class-rl9le0k97 .stroke-color-2-shadow-extra {
  stroke: #84957a;
}</style></svg></g><g transform="matrix(0.3686999383857056,0,0,0.36869993838570553,307.968,252.22030562076048)"><svg xmlns="http://www.w3.org/2000/svg" version="1.1" xmlns:xlink="http://www.w3.org/1999/xlink" xmlns:svgjs="http://svgjs.com/svgjs" width="64.92" height="58.16"><svg xmlns="http://www.w3.org/2000/svg" version="1.1" xmlns:xlink="http://www.w3.org/1999/xlink" xmlns:svgjs="http://svgjs.com/svgjs" width="64.92" height="58.16" class="class-ure66fq37"><svg xmlns="http://www.w3.org/2000/svg" xmlns:xlink="http://www.w3.org/1999/xlink" viewBox="0 0 64.92 58.16" class="class-ure66fq37">
    <defs>
        <symbol id="a" data-name="New Symbol 14" viewBox="0 0 64.92 58.16">
            <path d="M47 4.17L28.44 30.6a5.42 5.42 0 01-7.24 1.51l-2.73-1.66L15 28.33a9.86 9.86 0 00-13.57 3.31 9.85 9.85 0 003.33 13.55l3.51 2.12 14.94 9.07.82.5a8.83 8.83 0 0011.81-2.48l27.28-38.86a9.82 9.82 0 00-2.37-13.7l-.09-.06A9.82 9.82 0 0047 4.17z" class="fill-color-0"></path>
            <path d="M57 4.1A7.41 7.41 0 0049.07 7l-14 20M4.06 32.36a7.1 7.1 0 019.07-2M16.39 32.36h0" fill="none" stroke-linecap="round" stroke-miterlimit="10" stroke-width="2" class="stroke-color-1"></path>
            <path d="M35.84 54.4l27.28-38.86a9.8 9.8 0 001.27-8.81C58.62 17.27 43.8 41.8 30.82 42.3c-14.72.57-21.72-9.93-30.7-4a9.82 9.82 0 004.64 6.94l3.51 2.12 14.94 9.07.82.5a8.83 8.83 0 0011.81-2.53z" class="fill-color-0-shadow"></path>
        </symbol>
    </defs>
    <g data-name="Layer 2">
        <use width="64.92" height="58.16" xlink:href="#a" data-name="Layer 1"></use>
    </g>
</svg></svg><style>.class-ure66fq37 .fill-skin {
  fill: #f1d9b1;
}
.class-ure66fq37 .fill-skin-shadow {
  fill: #ebc78d;
}
.class-ure66fq37 .fill-hair {
  fill: #3c473b;
}
.class-ure66fq37 .fill-hair-shadow {
  fill: #364035;
}
.class-ure66fq37 .fill-white {
  fill: #fbfcfb;
}
.class-ure66fq37 .fill-white-shadow {
  fill: #dee6de;
}
.class-ure66fq37 .fill-white-shadow-extra {
  fill: #c4d2c4;
}
.class-ure66fq37 .stop-color-white {
  stop-color: #fbfcfb;
}
.class-ure66fq37 .stop-color-white-shadow {
  stop-color: #dee6de;
}
.class-ure66fq37 .stop-color-white-shadow-extra {
  stop-color: #c4d2c4;
}
.class-ure66fq37 .stroke-white {
  stroke: #fbfcfb;
}
.class-ure66fq37 .stroke-white-shadow {
  stroke: #dee6de;
}
.class-ure66fq37 .stroke-white-shadow-extra {
  stroke: #b4c6b4;
}
.class-ure66fq37 .fill-yellow {
  fill: #eaea00;
}
.class-ure66fq37 .fill-yellow-shadow {
  fill: #dada00;
}
.class-ure66fq37 .fill-yellow-shadow-extra {
  fill: #cbcb00;
}
.class-ure66fq37 .stop-color-yellow {
  stop-color: #eaea00;
}
.class-ure66fq37 .stop-color-yellow-shadow {
  stop-color: #dada00;
}
.class-ure66fq37 .stop-color-yellow-shadow-extra {
  stop-color: #cbcb00;
}
.class-ure66fq37 .fill-green {
  fill: #2ba24c;
}
.class-ure66fq37 .fill-green-shadow {
  fill: #279244;
}
.class-ure66fq37 .fill-green-shadow-extra {
  fill: #23833d;
}
.class-ure66fq37 .stop-color-green {
  stop-color: #2ba24c;
}
.class-ure66fq37 .stop-color-green-shadow {
  stop-color: #279244;
}
.class-ure66fq37 .stop-color-green-shadow-extra {
  stop-color: #23833d;
}
.class-ure66fq37 .stroke-green {
  stroke: #2ba24c;
}
.class-ure66fq37 .stroke-green-shadow {
  stroke: #279244;
}
.class-ure66fq37 .stroke-green-shadow-extra {
  stroke: #217a39;
}
.class-ure66fq37 .fill-red {
  fill: #ce3827;
}
.class-ure66fq37 .fill-red-shadow {
  fill: #b93223;
}
.class-ure66fq37 .fill-red-shadow-extra {
  fill: #a62d1f;
}
.class-ure66fq37 .stop-color-red {
  stop-color: #ce3827;
}
.class-ure66fq37 .stop-color-red-shadow {
  stop-color: #b93223;
}
.class-ure66fq37 .stop-color-red-shadow-extra {
  stop-color: #a62d1f;
}
.class-ure66fq37 .fill-orange {
  fill: #f09c25;
}
.class-ure66fq37 .fill-orange-shadow {
  fill: #e98f10;
}
.class-ure66fq37 .fill-orange-shadow-extra {
  fill: #d1800e;
}
.class-ure66fq37 .stop-color-orange {
  stop-color: #f09c25;
}
.class-ure66fq37 .stop-color-orange-shadow {
  stop-color: #e98f10;
}
.class-ure66fq37 .stop-color-orange-shadow-extra {
  stop-color: #d1800e;
}
.class-ure66fq37 .fill-blue {
  fill: #3b7ded;
}
.class-ure66fq37 .fill-blue-shadow {
  fill: #1f6bea;
}
.class-ure66fq37 .fill-blue-shadow-extra {
  fill: #145eda;
}
.class-ure66fq37 .stop-color-blue {
  stop-color: #3b7ded;
}
.class-ure66fq37 .stop-color-blue-shadow {
  stop-color: #1f6bea;
}
.class-ure66fq37 .stop-color-blue-shadow-extra {
  stop-color: #145eda;
}
.class-ure66fq37 .fill-color-0 {
  fill: #3c473b;
}
.class-ure66fq37 .fill-color-0-shadow {
  fill: #364035;
}
.class-ure66fq37 .fill-color-0-shadow-extra {
  fill: #2d362c;
}
.class-ure66fq37 .stop-color-color-0 {
  stop-color: #3c473b;
}
.class-ure66fq37 .fill-color-1 {
  fill: #b2bcab;
}
.class-ure66fq37 .fill-color-1-shadow {
  fill: #9fac97;
}
.class-ure66fq37 .fill-color-1-shadow-extra {
  fill: #84957a;
}
.class-ure66fq37 .fill-body-detail {
  fill: #ffffff;
}
.class-ure66fq37 .stroke-color-0 {
  stroke: #3c473b;
}
.class-ure66fq37 .stroke-color-0-shadow {
  stroke: #364035;
}
.class-ure66fq37 .stroke-color-0-shadow-extra {
  stroke: #2d362c;
}
.class-ure66fq37 .stroke-color-1 {
  stroke: #b2bcab;
}
.class-ure66fq37 .stroke-color-1-shadow {
  stroke: #9fac97;
}
.class-ure66fq37 .stroke-color-1-shadow-extra {
  stroke: #84957a;
}</style></svg></g><g transform="matrix(0.469202778696659,0,0,0.4692027786966591,200.99792045025285,0.000006868612912214189)"><svg xmlns="http://www.w3.org/2000/svg" version="1.1" xmlns:xlink="http://www.w3.org/1999/xlink" xmlns:svgjs="http://svgjs.com/svgjs" width="30.23" height="25.7"><svg xmlns="http://www.w3.org/2000/svg" version="1.1" xmlns:xlink="http://www.w3.org/1999/xlink" xmlns:svgjs="http://svgjs.com/svgjs" width="30.23" height="25.7" class="class-jqbzx0s1l"><svg xmlns="http://www.w3.org/2000/svg" viewBox="0 0 30.23 25.7" class="class-jqbzx0s1l">
    <g data-name="Layer 2">
        <g data-name="Layer 1">
            <path d="M15.13 25.7a.76.76 0 01-.43-.14c-.4-.28-9.94-7.09-13.46-12.83a8.38 8.38 0 0113.87-9.35A8.39 8.39 0 0129 12.71c-3.5 5.76-13 12.57-13.45 12.85a.71.71 0 01-.42.14z" class="fill-color-0"></path>
            <path d="M21.84 0a8.18 8.18 0 00-1.4.12c2 .76 5 2.71 3.37 7.35-1.45 4.06-4.86 8-7.36 10.49a5.71 5.71 0 01-6.71 1 31.87 31.87 0 01-9-7.11c.13.29.28.57.44.85 3.52 5.74 13.06 12.55 13.46 12.83a.76.76 0 00.43.14.71.71 0 00.42-.14c.41-.28 10-7.09 13.47-12.83A8.39 8.39 0 0021.84 0z" class="fill-color-0-shadow"></path>
            <path d="M8.38 0a7.71 7.71 0 00-1.07.08 8.7 8.7 0 015.8 4.41.7.7 0 001.24 0l.76-1.12A8.36 8.36 0 008.38 0z" class="fill-color-0-shadow"></path>
            <path d="M5.51 2.83a5.15 5.15 0 00-3 3.66S4.14 3.8 5.8 3.54A.42.42 0 006.07 3c-.07-.36-.56-.17-.56-.17z" class="fill-color-1"></path>
            <circle cx="7.63" cy="2.89" r=".32" class="fill-color-1"></circle>
        </g>
    </g>
</svg></svg><style>.class-jqbzx0s1l .fill-skin {
  fill: #f1d9b1;
}
.class-jqbzx0s1l .fill-skin-shadow {
  fill: #ebc78d;
}
.class-jqbzx0s1l .fill-hair {
  fill: #3c473b;
}
.class-jqbzx0s1l .fill-hair-shadow {
  fill: #364035;
}
.class-jqbzx0s1l .fill-white {
  fill: #fbfcfb;
}
.class-jqbzx0s1l .fill-white-shadow {
  fill: #dee6de;
}
.class-jqbzx0s1l .fill-white-shadow-extra {
  fill: #c4d2c4;
}
.class-jqbzx0s1l .stop-color-white {
  stop-color: #fbfcfb;
}
.class-jqbzx0s1l .stop-color-white-shadow {
  stop-color: #dee6de;
}
.class-jqbzx0s1l .stop-color-white-shadow-extra {
  stop-color: #c4d2c4;
}
.class-jqbzx0s1l .stroke-white {
  stroke: #fbfcfb;
}
.class-jqbzx0s1l .stroke-white-shadow {
  stroke: #dee6de;
}
.class-jqbzx0s1l .stroke-white-shadow-extra {
  stroke: #b4c6b4;
}
.class-jqbzx0s1l .fill-yellow {
  fill: #eaea00;
}
.class-jqbzx0s1l .fill-yellow-shadow {
  fill: #dada00;
}
.class-jqbzx0s1l .fill-yellow-shadow-extra {
  fill: #cbcb00;
}
.class-jqbzx0s1l .stop-color-yellow {
  stop-color: #eaea00;
}
.class-jqbzx0s1l .stop-color-yellow-shadow {
  stop-color: #dada00;
}
.class-jqbzx0s1l .stop-color-yellow-shadow-extra {
  stop-color: #cbcb00;
}
.class-jqbzx0s1l .fill-green {
  fill: #2ba24c;
}
.class-jqbzx0s1l .fill-green-shadow {
  fill: #279244;
}
.class-jqbzx0s1l .fill-green-shadow-extra {
  fill: #23833d;
}
.class-jqbzx0s1l .stop-color-green {
  stop-color: #2ba24c;
}
.class-jqbzx0s1l .stop-color-green-shadow {
  stop-color: #279244;
}
.class-jqbzx0s1l .stop-color-green-shadow-extra {
  stop-color: #23833d;
}
.class-jqbzx0s1l .stroke-green {
  stroke: #2ba24c;
}
.class-jqbzx0s1l .stroke-green-shadow {
  stroke: #279244;
}
.class-jqbzx0s1l .stroke-green-shadow-extra {
  stroke: #217a39;
}
.class-jqbzx0s1l .fill-red {
  fill: #ce3827;
}
.class-jqbzx0s1l .fill-red-shadow {
  fill: #b93223;
}
.class-jqbzx0s1l .fill-red-shadow-extra {
  fill: #a62d1f;
}
.class-jqbzx0s1l .stop-color-red {
  stop-color: #ce3827;
}
.class-jqbzx0s1l .stop-color-red-shadow {
  stop-color: #b93223;
}
.class-jqbzx0s1l .stop-color-red-shadow-extra {
  stop-color: #a62d1f;
}
.class-jqbzx0s1l .fill-orange {
  fill: #f09c25;
}
.class-jqbzx0s1l .fill-orange-shadow {
  fill: #e98f10;
}
.class-jqbzx0s1l .fill-orange-shadow-extra {
  fill: #d1800e;
}
.class-jqbzx0s1l .stop-color-orange {
  stop-color: #f09c25;
}
.class-jqbzx0s1l .stop-color-orange-shadow {
  stop-color: #e98f10;
}
.class-jqbzx0s1l .stop-color-orange-shadow-extra {
  stop-color: #d1800e;
}
.class-jqbzx0s1l .fill-blue {
  fill: #3b7ded;
}
.class-jqbzx0s1l .fill-blue-shadow {
  fill: #1f6bea;
}
.class-jqbzx0s1l .fill-blue-shadow-extra {
  fill: #145eda;
}
.class-jqbzx0s1l .stop-color-blue {
  stop-color: #3b7ded;
}
.class-jqbzx0s1l .stop-color-blue-shadow {
  stop-color: #1f6bea;
}
.class-jqbzx0s1l .stop-color-blue-shadow-extra {
  stop-color: #145eda;
}
.class-jqbzx0s1l .fill-color-0 {
  fill: #3c473b;
}
.class-jqbzx0s1l .fill-color-0-shadow {
  fill: #364035;
}
.class-jqbzx0s1l .fill-color-0-shadow-extra {
  fill: #2d362c;
}
.class-jqbzx0s1l .stop-color-color-0 {
  stop-color: #3c473b;
}
.class-jqbzx0s1l .fill-color-1 {
  fill: #8a9475;
}
.class-jqbzx0s1l .fill-color-1-shadow {
  fill: #7c8668;
}
.class-jqbzx0s1l .fill-color-1-shadow-extra {
  fill: #687057;
}
.class-jqbzx0s1l .fill-body-detail {
  fill: #ffffff;
}
.class-jqbzx0s1l .stroke-color-0 {
  stroke: #3c473b;
}
.class-jqbzx0s1l .stroke-color-0-shadow {
  stroke: #364035;
}
.class-jqbzx0s1l .stroke-color-0-shadow-extra {
  stroke: #2d362c;
}
.class-jqbzx0s1l .stroke-color-1 {
  stroke: #8a9475;
}
.class-jqbzx0s1l .stroke-color-1-shadow {
  stroke: #7c8668;
}
.class-jqbzx0s1l .stroke-color-1-shadow-extra {
  stroke: #687057;
}</style></svg></g><g transform="matrix(0.31664876476906556,0,0,0.3166487647690655,290.4474484852792,122.21827527013976)"><svg xmlns="http://www.w3.org/2000/svg" version="1.1" xmlns:xlink="http://www.w3.org/1999/xlink" xmlns:svgjs="http://svgjs.com/svgjs" width="93.1" height="60.34"><svg xmlns="http://www.w3.org/2000/svg" version="1.1" xmlns:xlink="http://www.w3.org/1999/xlink" xmlns:svgjs="http://svgjs.com/svgjs" width="93.1" height="60.34" class="class-amynycw7j"><svg xmlns="http://www.w3.org/2000/svg" viewBox="0 0 93.1 60.34" class="class-amynycw7j">
    <g data-name="Layer 2">
        <g data-name="Layer 1">
            <path d="M3.5 56.14s48.05 9.43 79-41" fill="none" stroke-linecap="round" stroke-miterlimit="10" stroke-width="7" class="stroke-color-0"></path>
            <path d="M88.17 22.6l-15.1-10.13L93.09 0l-4.92 22.6z" class="fill-color-0"></path>
        </g>
    </g>
</svg></svg><style>.class-amynycw7j .fill-skin {
  fill: #f1d9b1;
}
.class-amynycw7j .fill-skin-shadow {
  fill: #ebc78d;
}
.class-amynycw7j .fill-hair {
  fill: #b2bcab;
}
.class-amynycw7j .fill-hair-shadow {
  fill: #9fac97;
}
.class-amynycw7j .fill-white {
  fill: #fbfcfb;
}
.class-amynycw7j .fill-white-shadow {
  fill: #dee6de;
}
.class-amynycw7j .fill-white-shadow-extra {
  fill: #c4d2c4;
}
.class-amynycw7j .stop-color-white {
  stop-color: #fbfcfb;
}
.class-amynycw7j .stop-color-white-shadow {
  stop-color: #dee6de;
}
.class-amynycw7j .stop-color-white-shadow-extra {
  stop-color: #c4d2c4;
}
.class-amynycw7j .stroke-white {
  stroke: #fbfcfb;
}
.class-amynycw7j .stroke-white-shadow {
  stroke: #dee6de;
}
.class-amynycw7j .stroke-white-shadow-extra {
  stroke: #b4c6b4;
}
.class-amynycw7j .fill-yellow {
  fill: #eaea00;
}
.class-amynycw7j .fill-yellow-shadow {
  fill: #dada00;
}
.class-amynycw7j .fill-yellow-shadow-extra {
  fill: #cbcb00;
}
.class-amynycw7j .stop-color-yellow {
  stop-color: #eaea00;
}
.class-amynycw7j .stop-color-yellow-shadow {
  stop-color: #dada00;
}
.class-amynycw7j .stop-color-yellow-shadow-extra {
  stop-color: #cbcb00;
}
.class-amynycw7j .fill-green {
  fill: #2ba24c;
}
.class-amynycw7j .fill-green-shadow {
  fill: #279244;
}
.class-amynycw7j .fill-green-shadow-extra {
  fill: #23833d;
}
.class-amynycw7j .stop-color-green {
  stop-color: #2ba24c;
}
.class-amynycw7j .stop-color-green-shadow {
  stop-color: #279244;
}
.class-amynycw7j .stop-color-green-shadow-extra {
  stop-color: #23833d;
}
.class-amynycw7j .stroke-green {
  stroke: #2ba24c;
}
.class-amynycw7j .stroke-green-shadow {
  stroke: #279244;
}
.class-amynycw7j .stroke-green-shadow-extra {
  stroke: #217a39;
}
.class-amynycw7j .fill-red {
  fill: #ce3827;
}
.class-amynycw7j .fill-red-shadow {
  fill: #b93223;
}
.class-amynycw7j .fill-red-shadow-extra {
  fill: #a62d1f;
}
.class-amynycw7j .stop-color-red {
  stop-color: #ce3827;
}
.class-amynycw7j .stop-color-red-shadow {
  stop-color: #b93223;
}
.class-amynycw7j .stop-color-red-shadow-extra {
  stop-color: #a62d1f;
}
.class-amynycw7j .fill-orange {
  fill: #f09c25;
}
.class-amynycw7j .fill-orange-shadow {
  fill: #e98f10;
}
.class-amynycw7j .fill-orange-shadow-extra {
  fill: #d1800e;
}
.class-amynycw7j .stop-color-orange {
  stop-color: #f09c25;
}
.class-amynycw7j .stop-color-orange-shadow {
  stop-color: #e98f10;
}
.class-amynycw7j .stop-color-orange-shadow-extra {
  stop-color: #d1800e;
}
.class-amynycw7j .fill-blue {
  fill: #3b7ded;
}
.class-amynycw7j .fill-blue-shadow {
  fill: #1f6bea;
}
.class-amynycw7j .fill-blue-shadow-extra {
  fill: #145eda;
}
.class-amynycw7j .stop-color-blue {
  stop-color: #3b7ded;
}
.class-amynycw7j .stop-color-blue-shadow {
  stop-color: #1f6bea;
}
.class-amynycw7j .stop-color-blue-shadow-extra {
  stop-color: #145eda;
}
.class-amynycw7j .fill-color-0 {
  fill: #b2bcab;
}
.class-amynycw7j .fill-color-0-shadow {
  fill: #9fac97;
}
.class-amynycw7j .fill-color-0-shadow-extra {
  fill: #84957a;
}
.class-amynycw7j .stop-color-color-0 {
  stop-color: #b2bcab;
}
.class-amynycw7j .fill-body-detail {
  fill: #ffffff;
}
.class-amynycw7j .stroke-color-0 {
  stroke: #b2bcab;
}
.class-amynycw7j .stroke-color-0-shadow {
  stroke: #9fac97;
}
.class-amynycw7j .stroke-color-0-shadow-extra {
  stroke: #84957a;
}</style></svg></g></svg>