<svg xmlns="http://www.w3.org/2000/svg" version="1.1" xmlns:xlink="http://www.w3.org/1999/xlink" xmlns:svgjs="http://svgjs.com/svgjs" width="504.5549441212993" height="531.2"><g transform="matrix(2.8629471039206806,0,0,2.86294710392068,118.03731628156547,274.4925237848696)"><svg xmlns="http://www.w3.org/2000/svg" version="1.1" xmlns:xlink="http://www.w3.org/1999/xlink" xmlns:svgjs="http://svgjs.com/svgjs" width="100.08" height="75.66"><svg xmlns="http://www.w3.org/2000/svg" version="1.1" xmlns:xlink="http://www.w3.org/1999/xlink" xmlns:svgjs="http://svgjs.com/svgjs" width="100.08" height="75.66" class="class-9u80fnd0p"><svg xmlns="http://www.w3.org/2000/svg" viewBox="0 0 100.08 75.66" class="class-9u80fnd0p">
    <g data-name="Layer 2">
        <g data-name="Layer 1">
            <path d="M100.08 20.52v.32A3.06 3.06 0 0199 23.18l-59.4 50a7.93 7.93 0 01-8.6 1.06L1.72 59.92A3.08 3.08 0 010 57.13a4.72 4.72 0 011.61-3.51l60.1-52.33a5.25 5.25 0 016-.65l30.38 16.52a3.8 3.8 0 011.99 3.36z" fill-rule="evenodd" class="fill-color-0"></path>
            <path d="M100.08 21.15v-.63a3.74 3.74 0 00-1-2.56c.21 1.44-1.45 2.77-1.45 2.77S45.84 64.53 39.43 70c-3.76 3.22-7.26 1.67-7.26 1.67S5.87 59 2.94 57.55a5 5 0 01-2.29-2.78A4.83 4.83 0 000 57.13a4.1 4.1 0 001.72 3.4L31 74.85a7.93 7.93 0 008.6-1.06l59.4-50a3.72 3.72 0 001.08-2.64z" fill-rule="evenodd" class="fill-color-1"></path>
            <path d="M64.6 3.2l29.61 15.72a.91.91 0 01.16 1.5l-55 46.85L6.76 51.13 62.22 3.41a2 2 0 012.38-.21z" fill-rule="evenodd" class="fill-color-2"></path>
            <ellipse cx="18.8" cy="61.17" rx="2.62" ry="1.88" class="fill-color-2"></ellipse>
            <rect x="75.18" y="36.43" width="11.21" height="1.34" rx=".67" transform="rotate(-40.23 80.784 37.096)" class="fill-color-2"></rect>
            <path fill="none" stroke-miterlimit="10" d="M80.25 36.19l.62 2.08" class="stroke-color-1"></path>
            <circle cx="77.88" cy="8.21" r=".73" class="fill-color-1-shadow"></circle>
            <rect x="14.55" y="65.41" width="3.27" height=".89" rx=".44" transform="rotate(25.8 16.183 65.843)" class="fill-color-1-shadow"></rect>
        </g>
    </g>
</svg></svg><style>.class-9u80fnd0p .fill-skin {
  fill: #f1d9b1;
}
.class-9u80fnd0p .fill-skin-shadow {
  fill: #ebc78d;
}
.class-9u80fnd0p .fill-hair {
  fill: #8a9475;
}
.class-9u80fnd0p .fill-hair-shadow {
  fill: #7c8668;
}
.class-9u80fnd0p .fill-white {
  fill: #fbfcfb;
}
.class-9u80fnd0p .fill-white-shadow {
  fill: #dee6de;
}
.class-9u80fnd0p .fill-white-shadow-extra {
  fill: #c4d2c4;
}
.class-9u80fnd0p .stop-color-white {
  stop-color: #fbfcfb;
}
.class-9u80fnd0p .stop-color-white-shadow {
  stop-color: #dee6de;
}
.class-9u80fnd0p .stop-color-white-shadow-extra {
  stop-color: #c4d2c4;
}
.class-9u80fnd0p .stroke-white {
  stroke: #fbfcfb;
}
.class-9u80fnd0p .stroke-white-shadow {
  stroke: #dee6de;
}
.class-9u80fnd0p .stroke-white-shadow-extra {
  stroke: #b4c6b4;
}
.class-9u80fnd0p .fill-yellow {
  fill: #eaea00;
}
.class-9u80fnd0p .fill-yellow-shadow {
  fill: #dada00;
}
.class-9u80fnd0p .fill-yellow-shadow-extra {
  fill: #cbcb00;
}
.class-9u80fnd0p .stop-color-yellow {
  stop-color: #eaea00;
}
.class-9u80fnd0p .stop-color-yellow-shadow {
  stop-color: #dada00;
}
.class-9u80fnd0p .stop-color-yellow-shadow-extra {
  stop-color: #cbcb00;
}
.class-9u80fnd0p .fill-green {
  fill: #2ba24c;
}
.class-9u80fnd0p .fill-green-shadow {
  fill: #279244;
}
.class-9u80fnd0p .fill-green-shadow-extra {
  fill: #23833d;
}
.class-9u80fnd0p .stop-color-green {
  stop-color: #2ba24c;
}
.class-9u80fnd0p .stop-color-green-shadow {
  stop-color: #279244;
}
.class-9u80fnd0p .stop-color-green-shadow-extra {
  stop-color: #23833d;
}
.class-9u80fnd0p .stroke-green {
  stroke: #2ba24c;
}
.class-9u80fnd0p .stroke-green-shadow {
  stroke: #279244;
}
.class-9u80fnd0p .stroke-green-shadow-extra {
  stroke: #217a39;
}
.class-9u80fnd0p .fill-red {
  fill: #ce3827;
}
.class-9u80fnd0p .fill-red-shadow {
  fill: #b93223;
}
.class-9u80fnd0p .fill-red-shadow-extra {
  fill: #a62d1f;
}
.class-9u80fnd0p .stop-color-red {
  stop-color: #ce3827;
}
.class-9u80fnd0p .stop-color-red-shadow {
  stop-color: #b93223;
}
.class-9u80fnd0p .stop-color-red-shadow-extra {
  stop-color: #a62d1f;
}
.class-9u80fnd0p .fill-orange {
  fill: #f09c25;
}
.class-9u80fnd0p .fill-orange-shadow {
  fill: #e98f10;
}
.class-9u80fnd0p .fill-orange-shadow-extra {
  fill: #d1800e;
}
.class-9u80fnd0p .stop-color-orange {
  stop-color: #f09c25;
}
.class-9u80fnd0p .stop-color-orange-shadow {
  stop-color: #e98f10;
}
.class-9u80fnd0p .stop-color-orange-shadow-extra {
  stop-color: #d1800e;
}
.class-9u80fnd0p .fill-blue {
  fill: #3b7ded;
}
.class-9u80fnd0p .fill-blue-shadow {
  fill: #1f6bea;
}
.class-9u80fnd0p .fill-blue-shadow-extra {
  fill: #145eda;
}
.class-9u80fnd0p .stop-color-blue {
  stop-color: #3b7ded;
}
.class-9u80fnd0p .stop-color-blue-shadow {
  stop-color: #1f6bea;
}
.class-9u80fnd0p .stop-color-blue-shadow-extra {
  stop-color: #145eda;
}
.class-9u80fnd0p .fill-color-0 {
  fill: #8a9475;
}
.class-9u80fnd0p .fill-color-0-shadow {
  fill: #7c8668;
}
.class-9u80fnd0p .fill-color-0-shadow-extra {
  fill: #687057;
}
.class-9u80fnd0p .stop-color-color-0 {
  stop-color: #8a9475;
}
.class-9u80fnd0p .fill-color-1 {
  fill: #3c473b;
}
.class-9u80fnd0p .fill-color-1-shadow {
  fill: #364035;
}
.class-9u80fnd0p .fill-color-1-shadow-extra {
  fill: #2d362c;
}
.class-9u80fnd0p .fill-color-2 {
  fill: #fbfcfb;
}
.class-9u80fnd0p .fill-color-2-shadow {
  fill: #dee6de;
}
.class-9u80fnd0p .fill-color-2-shadow-extra {
  fill: #b4c6b4;
}
.class-9u80fnd0p .fill-body-detail {
  fill: #ffffff;
}
.class-9u80fnd0p .stroke-color-0 {
  stroke: #8a9475;
}
.class-9u80fnd0p .stroke-color-0-shadow {
  stroke: #7c8668;
}
.class-9u80fnd0p .stroke-color-0-shadow-extra {
  stroke: #687057;
}
.class-9u80fnd0p .stroke-color-1 {
  stroke: #3c473b;
}
.class-9u80fnd0p .stroke-color-1-shadow {
  stroke: #364035;
}
.class-9u80fnd0p .stroke-color-1-shadow-extra {
  stroke: #2d362c;
}
.class-9u80fnd0p .stroke-color-2 {
  stroke: #fbfcfb;
}
.class-9u80fnd0p .stroke-color-2-shadow {
  stroke: #dee6de;
}
.class-9u80fnd0p .stroke-color-2-shadow-extra {
  stroke: #b4c6b4;
}</style></svg></g><g transform="matrix(1.0735250243454781,0,0,1.073525024345478,0.030912636196383403,212.28158322713335)"><svg xmlns="http://www.w3.org/2000/svg" version="1.1" xmlns:xlink="http://www.w3.org/1999/xlink" xmlns:svgjs="http://svgjs.com/svgjs" width="115.67" height="62.31"><svg xmlns="http://www.w3.org/2000/svg" version="1.1" xmlns:xlink="http://www.w3.org/1999/xlink" xmlns:svgjs="http://svgjs.com/svgjs" width="115.67" height="62.31" class="class-93plb9iez"><svg xmlns="http://www.w3.org/2000/svg" viewBox="0 0 115.67 62.31" class="class-93plb9iez">
    <g data-name="Layer 2">
        <g data-name="Layer 1">
            <path d="M105 32.47v-.59a12.57 12.57 0 00-8.89-12 29.43 29.43 0 00-52-7.16 21.3 21.3 0 00-27.62 16.84h-.11a16.38 16.38 0 00-1.2 32.72h85.22a15.27 15.27 0 004.6-29.81z" class="fill-color-0"></path>
            <path d="M115.67 47A15.27 15.27 0 00105 32.47v-.59a12.52 12.52 0 00-2.5-7.53A30.29 30.29 0 0091 21c-1.22-8.45-7.48-14.9-15-14.9-6 0-11.12 4-13.63 9.87a22.37 22.37 0 00-20.43 22.2 23.07 23.07 0 00-3.42-.17 22.36 22.36 0 00-22.36 22.31c0 .68 0 1.35.1 2h84.11A15.27 15.27 0 00115.67 47z" class="fill-color-0-shadow"></path>
            <path d="M56.35 45s-6.25-9.55-20.09-8.43M77.42 25.45S83.09 18.2 94.14 20M67.78 14.68a16.17 16.17 0 00-6.54-.11" fill="none" stroke-linecap="round" stroke-miterlimit="10" stroke-width="3" class="stroke-color-0"></path>
            <circle cx="59.11" cy="49.82" r="1.28" class="fill-color-0"></circle>
        </g>
    </g>
</svg></svg><style>.class-93plb9iez .fill-skin {
  fill: #f1d9b1;
}
.class-93plb9iez .fill-skin-shadow {
  fill: #ebc78d;
}
.class-93plb9iez .fill-hair {
  fill: #8a9475;
}
.class-93plb9iez .fill-hair-shadow {
  fill: #7c8668;
}
.class-93plb9iez .fill-white {
  fill: #fbfcfb;
}
.class-93plb9iez .fill-white-shadow {
  fill: #dee6de;
}
.class-93plb9iez .fill-white-shadow-extra {
  fill: #c4d2c4;
}
.class-93plb9iez .stop-color-white {
  stop-color: #fbfcfb;
}
.class-93plb9iez .stop-color-white-shadow {
  stop-color: #dee6de;
}
.class-93plb9iez .stop-color-white-shadow-extra {
  stop-color: #c4d2c4;
}
.class-93plb9iez .stroke-white {
  stroke: #fbfcfb;
}
.class-93plb9iez .stroke-white-shadow {
  stroke: #dee6de;
}
.class-93plb9iez .stroke-white-shadow-extra {
  stroke: #b4c6b4;
}
.class-93plb9iez .fill-yellow {
  fill: #eaea00;
}
.class-93plb9iez .fill-yellow-shadow {
  fill: #dada00;
}
.class-93plb9iez .fill-yellow-shadow-extra {
  fill: #cbcb00;
}
.class-93plb9iez .stop-color-yellow {
  stop-color: #eaea00;
}
.class-93plb9iez .stop-color-yellow-shadow {
  stop-color: #dada00;
}
.class-93plb9iez .stop-color-yellow-shadow-extra {
  stop-color: #cbcb00;
}
.class-93plb9iez .fill-green {
  fill: #2ba24c;
}
.class-93plb9iez .fill-green-shadow {
  fill: #279244;
}
.class-93plb9iez .fill-green-shadow-extra {
  fill: #23833d;
}
.class-93plb9iez .stop-color-green {
  stop-color: #2ba24c;
}
.class-93plb9iez .stop-color-green-shadow {
  stop-color: #279244;
}
.class-93plb9iez .stop-color-green-shadow-extra {
  stop-color: #23833d;
}
.class-93plb9iez .stroke-green {
  stroke: #2ba24c;
}
.class-93plb9iez .stroke-green-shadow {
  stroke: #279244;
}
.class-93plb9iez .stroke-green-shadow-extra {
  stroke: #217a39;
}
.class-93plb9iez .fill-red {
  fill: #ce3827;
}
.class-93plb9iez .fill-red-shadow {
  fill: #b93223;
}
.class-93plb9iez .fill-red-shadow-extra {
  fill: #a62d1f;
}
.class-93plb9iez .stop-color-red {
  stop-color: #ce3827;
}
.class-93plb9iez .stop-color-red-shadow {
  stop-color: #b93223;
}
.class-93plb9iez .stop-color-red-shadow-extra {
  stop-color: #a62d1f;
}
.class-93plb9iez .fill-orange {
  fill: #f09c25;
}
.class-93plb9iez .fill-orange-shadow {
  fill: #e98f10;
}
.class-93plb9iez .fill-orange-shadow-extra {
  fill: #d1800e;
}
.class-93plb9iez .stop-color-orange {
  stop-color: #f09c25;
}
.class-93plb9iez .stop-color-orange-shadow {
  stop-color: #e98f10;
}
.class-93plb9iez .stop-color-orange-shadow-extra {
  stop-color: #d1800e;
}
.class-93plb9iez .fill-blue {
  fill: #3b7ded;
}
.class-93plb9iez .fill-blue-shadow {
  fill: #1f6bea;
}
.class-93plb9iez .fill-blue-shadow-extra {
  fill: #145eda;
}
.class-93plb9iez .stop-color-blue {
  stop-color: #3b7ded;
}
.class-93plb9iez .stop-color-blue-shadow {
  stop-color: #1f6bea;
}
.class-93plb9iez .stop-color-blue-shadow-extra {
  stop-color: #145eda;
}
.class-93plb9iez .fill-color-0 {
  fill: #8a9475;
}
.class-93plb9iez .fill-color-0-shadow {
  fill: #7c8668;
}
.class-93plb9iez .fill-color-0-shadow-extra {
  fill: #687057;
}
.class-93plb9iez .stop-color-color-0 {
  stop-color: #8a9475;
}
.class-93plb9iez .fill-body-detail {
  fill: #ffffff;
}
.class-93plb9iez .stroke-color-0 {
  stroke: #8a9475;
}
.class-93plb9iez .stroke-color-0-shadow {
  stroke: #7c8668;
}
.class-93plb9iez .stroke-color-0-shadow-extra {
  stroke: #687057;
}</style></svg></g><g transform="matrix(1.7358342591987455,0,0,1.7358342591987455,303.82097948845455,300.24670903845544)"><svg xmlns="http://www.w3.org/2000/svg" version="1.1" xmlns:xlink="http://www.w3.org/1999/xlink" xmlns:svgjs="http://svgjs.com/svgjs" width="115.67" height="62.31"><svg xmlns="http://www.w3.org/2000/svg" version="1.1" xmlns:xlink="http://www.w3.org/1999/xlink" xmlns:svgjs="http://svgjs.com/svgjs" width="115.67" height="62.31" class="class-76v211pjf"><svg xmlns="http://www.w3.org/2000/svg" viewBox="0 0 115.67 62.31" class="class-76v211pjf">
    <g data-name="Layer 2">
        <g data-name="Layer 1">
            <path d="M105 32.47v-.59a12.57 12.57 0 00-8.89-12 29.43 29.43 0 00-52-7.16 21.3 21.3 0 00-27.62 16.84h-.11a16.38 16.38 0 00-1.2 32.72h85.22a15.27 15.27 0 004.6-29.81z" class="fill-color-0"></path>
            <path d="M115.67 47A15.27 15.27 0 00105 32.47v-.59a12.52 12.52 0 00-2.5-7.53A30.29 30.29 0 0091 21c-1.22-8.45-7.48-14.9-15-14.9-6 0-11.12 4-13.63 9.87a22.37 22.37 0 00-20.43 22.2 23.07 23.07 0 00-3.42-.17 22.36 22.36 0 00-22.36 22.31c0 .68 0 1.35.1 2h84.11A15.27 15.27 0 00115.67 47z" class="fill-color-0-shadow"></path>
            <path d="M56.35 45s-6.25-9.55-20.09-8.43M77.42 25.45S83.09 18.2 94.14 20M67.78 14.68a16.17 16.17 0 00-6.54-.11" fill="none" stroke-linecap="round" stroke-miterlimit="10" stroke-width="3" class="stroke-color-0"></path>
            <circle cx="59.11" cy="49.82" r="1.28" class="fill-color-0"></circle>
        </g>
    </g>
</svg></svg><style>.class-76v211pjf .fill-skin {
  fill: #f1d9b1;
}
.class-76v211pjf .fill-skin-shadow {
  fill: #ebc78d;
}
.class-76v211pjf .fill-hair {
  fill: #8a9475;
}
.class-76v211pjf .fill-hair-shadow {
  fill: #7c8668;
}
.class-76v211pjf .fill-white {
  fill: #fbfcfb;
}
.class-76v211pjf .fill-white-shadow {
  fill: #dee6de;
}
.class-76v211pjf .fill-white-shadow-extra {
  fill: #c4d2c4;
}
.class-76v211pjf .stop-color-white {
  stop-color: #fbfcfb;
}
.class-76v211pjf .stop-color-white-shadow {
  stop-color: #dee6de;
}
.class-76v211pjf .stop-color-white-shadow-extra {
  stop-color: #c4d2c4;
}
.class-76v211pjf .stroke-white {
  stroke: #fbfcfb;
}
.class-76v211pjf .stroke-white-shadow {
  stroke: #dee6de;
}
.class-76v211pjf .stroke-white-shadow-extra {
  stroke: #b4c6b4;
}
.class-76v211pjf .fill-yellow {
  fill: #eaea00;
}
.class-76v211pjf .fill-yellow-shadow {
  fill: #dada00;
}
.class-76v211pjf .fill-yellow-shadow-extra {
  fill: #cbcb00;
}
.class-76v211pjf .stop-color-yellow {
  stop-color: #eaea00;
}
.class-76v211pjf .stop-color-yellow-shadow {
  stop-color: #dada00;
}
.class-76v211pjf .stop-color-yellow-shadow-extra {
  stop-color: #cbcb00;
}
.class-76v211pjf .fill-green {
  fill: #2ba24c;
}
.class-76v211pjf .fill-green-shadow {
  fill: #279244;
}
.class-76v211pjf .fill-green-shadow-extra {
  fill: #23833d;
}
.class-76v211pjf .stop-color-green {
  stop-color: #2ba24c;
}
.class-76v211pjf .stop-color-green-shadow {
  stop-color: #279244;
}
.class-76v211pjf .stop-color-green-shadow-extra {
  stop-color: #23833d;
}
.class-76v211pjf .stroke-green {
  stroke: #2ba24c;
}
.class-76v211pjf .stroke-green-shadow {
  stroke: #279244;
}
.class-76v211pjf .stroke-green-shadow-extra {
  stroke: #217a39;
}
.class-76v211pjf .fill-red {
  fill: #ce3827;
}
.class-76v211pjf .fill-red-shadow {
  fill: #b93223;
}
.class-76v211pjf .fill-red-shadow-extra {
  fill: #a62d1f;
}
.class-76v211pjf .stop-color-red {
  stop-color: #ce3827;
}
.class-76v211pjf .stop-color-red-shadow {
  stop-color: #b93223;
}
.class-76v211pjf .stop-color-red-shadow-extra {
  stop-color: #a62d1f;
}
.class-76v211pjf .fill-orange {
  fill: #f09c25;
}
.class-76v211pjf .fill-orange-shadow {
  fill: #e98f10;
}
.class-76v211pjf .fill-orange-shadow-extra {
  fill: #d1800e;
}
.class-76v211pjf .stop-color-orange {
  stop-color: #f09c25;
}
.class-76v211pjf .stop-color-orange-shadow {
  stop-color: #e98f10;
}
.class-76v211pjf .stop-color-orange-shadow-extra {
  stop-color: #d1800e;
}
.class-76v211pjf .fill-blue {
  fill: #3b7ded;
}
.class-76v211pjf .fill-blue-shadow {
  fill: #1f6bea;
}
.class-76v211pjf .fill-blue-shadow-extra {
  fill: #145eda;
}
.class-76v211pjf .stop-color-blue {
  stop-color: #3b7ded;
}
.class-76v211pjf .stop-color-blue-shadow {
  stop-color: #1f6bea;
}
.class-76v211pjf .stop-color-blue-shadow-extra {
  stop-color: #145eda;
}
.class-76v211pjf .fill-color-0 {
  fill: #8a9475;
}
.class-76v211pjf .fill-color-0-shadow {
  fill: #7c8668;
}
.class-76v211pjf .fill-color-0-shadow-extra {
  fill: #687057;
}
.class-76v211pjf .stop-color-color-0 {
  stop-color: #8a9475;
}
.class-76v211pjf .fill-body-detail {
  fill: #ffffff;
}
.class-76v211pjf .stroke-color-0 {
  stroke: #8a9475;
}
.class-76v211pjf .stroke-color-0-shadow {
  stroke: #7c8668;
}
.class-76v211pjf .stroke-color-0-shadow-extra {
  stroke: #687057;
}</style></svg></g><g transform="matrix(1.7358342591987455,0,0,1.7358342591987455,156.18318517279937,-0.001987729671895977)"><svg xmlns="http://www.w3.org/2000/svg" version="1.1" xmlns:xlink="http://www.w3.org/1999/xlink" xmlns:svgjs="http://svgjs.com/svgjs" width="100.12" height="306.02"><svg xmlns="http://www.w3.org/2000/svg" version="1.1" xmlns:xlink="http://www.w3.org/1999/xlink" xmlns:svgjs="http://svgjs.com/svgjs" width="100.12" height="306.02" class="class-mqobjh6w1"><svg xmlns="http://www.w3.org/2000/svg" viewBox="0 0 100.12 306.02" class="class-mqobjh6w1">
    <g data-name="Layer 2">
        <g data-name="Layer 1">
            <path d="M60.73 42.81a3.45 3.45 0 00-2.36-2.2c-1.3-.34-4-1.18-4.95-3.42-1.27-3-4.37-4.17-5.68-4.52a.33.33 0 01-.1-.59c.76-.51 2.38-1 5 .76 0 0-2-5.12-1.1-5.4s1.54.93 2.07 2.18a1.64 1.64 0 012.13-.18 5 5 0 015.56 2.36c2.13 3.41 5.18 14.67 5.18 14.67l-4.18 2z" class="fill-skin-shadow"></path>
            <path d="M60.64 46.78a7.83 7.83 0 016.85-1.32S74.22 72.19 72.2 91c0 0-9.72-.42-21.68-10.89l-6-30.66s7 7.22 20.68 27.26c.01.04-.97-18.49-4.56-29.93z" class="fill-white-shadow"></path>
            <path d="M34 41.92s6.59.36 13.1 6.16l-.47 7.26z" class="fill-white-shadow"></path>
            <path d="M51.72 20.51l-2.31-1.8a10.77 10.77 0 01-2.81-4.81c-.51-4.49-4.32-7.81-4.32-7.81-1.73-3.8-11.12-.35-17.28 6.32s-2.8 11.7 2.17 13.51a6.22 6.22 0 011.59.88c.08.75 1.14 1.62 1.24 2.62C31.19 41.22 24.85 45 24.85 45l15.41 5.79s-3.2-3.42-3.9-5.55c-.13-.4 1.29-1.28 1.28-2.34 0-2 2.37-6 5.23-7.07s6.37-1.89 7.79-2.38c1.79-.62 1.59-2.05 1.59-3.64 0 0-.4-.5-1.18-1.52s.06-1.1.21-1.66c.36-1.3-.86-1.18-.3-2.23a1.55 1.55 0 00-.34-1.84l.49-.3c.87-.58 1.46-1.19.59-1.75z" class="fill-skin"></path>
            <path d="M36.36 45.21c-.13-.4 1.29 1.65 1.28.58 0-2 1.79-8.68 5.23-10 2.81-1.08 6.37-1.89 7.79-2.38a2.06 2.06 0 001.5-1.63 48.67 48.67 0 00-9.42-.6A4.34 4.34 0 0138.5 28l-2.32-8.73s6.67-6.78-3.61-2.62-3.42 14-3.42 14C30.39 36.18 26 44.78 26 44.78l11.27 2.35a8.24 8.24 0 01-.91-1.92z" class="fill-skin-shadow"></path>
            <path d="M46.87 11.84a8.19 8.19 0 00-4.49-8S39.19-.89 36 .15a4.62 4.62 0 013.22 4 5.28 5.28 0 00-6.39-.86s2.48.13 3.25 1.28c0 0-10.07-.62-12 6.3 0 0-8.24 3.36.94 15.59 0 0 3.86 4.13 4.29 8 0 0 5.94-3.48 5.37-8.35a3.92 3.92 0 01-3.83-3.18c-.31-1.6.33-2.34 1.05-2.68a2.39 2.39 0 012.75.6 3.91 3.91 0 01.9 1.6l.36.87a2.5 2.5 0 002.54 1.54 5 5 0 01.92-4.9c1.86-2.16 4.37-5.78 4.11-9.42 0 0 2.68.84 2.92 2.1" class="fill-hair"></path>
            <path d="M43 18.43A7.88 7.88 0 0145.22 17a1.83 1.83 0 01.15.67l.41.33a6.67 6.67 0 01-2.78.43z" class="fill-hair-shadow"></path>
            <path d="M62.19 111.42L59.71 115l-22.33 9.11-7.45-9.11-1.46-1.51a7.2 7.2 0 01-2-4.8c-.28-9.86-.76-43.49-5.49-63.74 0 0 12.78-2.18 21.24 3.63 12.46 8.54 19.97 62.84 19.97 62.84z" class="fill-white"></path>
            <path d="M24.65 70.7c1.37 15.89 1.62 31.69 1.8 37.94a7.2 7.2 0 002 4.8l1.48 1.56 7.45 9.11L59.71 115l2.29-3.29c-7.88-4.22-17-4.86-19.39-5.7-6.47-2.28-11-30.17-10.6-45.94 0 0-2.16 2.87-7.35 9.66" class="fill-white-shadow"></path>
            <path d="M27.09 255.22L16.74 267l4.89 9.17s7.24-13.09 10.81-19.51-5.35-1.44-5.35-1.44z" class="fill-white"></path>
            <path d="M32.13 126.57s-.82 14.27 3.21 21.73c0 0 17.31 52.69 15 60.78s-28.72 50.61-28.72 50.61a16.29 16.29 0 008.63 6.31 159.74 159.74 0 0120.29-31.92c13-15.81 17.05-21.12 10.73-40S48.8 127.81 48.8 127.81z" class="fill-color-0-shadow"></path>
            <path d="M78.69 294.14a12.34 12.34 0 01-2.57-7.14v-14.73h-7.88s.13 13.55-1.44 20.11c0 0 4.08 11.49 11.89 1.76z" class="fill-white"></path>
            <path d="M66.8 292.38L65.66 301a2.26 2.26 0 001.8 2.51 37.13 37.13 0 006.7.81l.72-.29a5.48 5.48 0 013.2-.28A114 114 0 0092 306a24.38 24.38 0 005.47-.39c2.34-.71 3.21-1.45 2.23-1.76-6.89-2.2-17.49-10.4-18.78-11.7a3.21 3.21 0 00-2.94-.84l-.67.15a3.22 3.22 0 00-2.31 2.19l-.07.24s-5.16 2.28-8.13-1.51zM18.7 264.76s-.52 4.5 2.93 6.61a2.79 2.79 0 012.37.73 2.68 2.68 0 01.34 3.2c-1.16 2.09-3.29 7.22-1.56 14.84 1.55 6.85 2.4 7.91 2.4 7.91s.77 1.4-2.35.58-10-8.1-10.78-13.19c0 0-.57-5.45-2.68-5.64a14.28 14.28 0 01-1.74-5.8 3.85 3.85 0 012.23-4c2.57-1.21 6.59-3.2 8.84-5.24z" class="fill-hair-shadow"></path>
            <path d="M30.41 114.81c16.85-4 27.58 0 27.58 0s.74 16.13.74 18.28c0 5.28 16.9 69.15 18.63 76s3.44 76.46 3.44 76.46c-4 2.87-14.36 0-14.36 0s2.3-54.58-5.17-76.46-19.94-62.5-19.94-62.5c-.25-.78-.48-1.54-.7-2.3l-5.29 4c-10.22-11.48-4.93-33.48-4.93-33.48z" class="fill-color-0"></path>
            <path d="M80.28 266.66c-7.1-5.87-11.55-14.56-13.93-20.36.9 20.13.09 39.24.09 39.24s10.34 2.87 14.36 0c0 0-.19-8.02-.52-18.88zM44 155.05c-1.67-5.2-2.7-8.47-2.7-8.47-.25-.78-.48-1.54-.7-2.3l-5.29 4c-10.22-11.49-4.93-33.49-4.93-33.49 1.76-.42 3.44-.75 5.06-1 7.32 3.58 14.23 9.86 19.76 11.23.03-.02-16.13 14.56-11.2 30.03z" class="fill-color-0-shadow"></path>
            <path d="M58.23 115.77s-10.87-4.24-28 0l-.41 1.89s16.22-4.26 28.45-.14z" class="fill-hair-shadow"></path>
            <path d="M33.09 118.92h-1.05v-4.4h1.05z" class="fill-hair-shadow"></path>
            <path d="M42.12 118.02h-1.05v-4.4h1.05z" class="fill-color-0-shadow"></path>
            <path d="M52.8 118.02h1.06v-3.6l-1.06-.81v4.41z" class="fill-color-0"></path>
            <path d="M44.63 129.5s-4-4.77-2.62-9.17c.5-1.61 2.32.75.74-2.87-1-2.25 1.41-1.38 3.36-.4a12.21 12.21 0 013.46 2.59c2 2.19 6 6.26 7.17 6.34a11.66 11.66 0 01-6-1.56" class="fill-skin"></path>
            <path d="M22.1 73.82C14.22 84 13.35 90.91 13.35 90.91 17.08 98.77 44.79 116 44.79 116c.38 7.24-3.6 9.17-3.6 9.17-8.6-3.85-38.88-21.38-41-31.31S21 44.9 21 44.9a22.7 22.7 0 011.1 28.92z" class="fill-white"></path>
            <path d="M25 44.5s21.9 6.7 31.76 45.24c0 0-1.08-48.95-31.76-45.24z" class="fill-white-shadow"></path>
            <path d="M41.2 46.47a4.54 4.54 0 014.12 4.23C59 71.75 60.16 89.25 61 95.76a.61.61 0 01-1.08.47L57.6 92a8.44 8.44 0 01-.93-2.89c-2.24-16.47-10.41-32.55-13.41-38a1.27 1.27 0 00-.86-.63 12.5 12.5 0 00-3.27-.38c-2.62.27 2.07-3.63 2.07-3.63z" class="fill-color-1"></path>
            <path d="M22.41 59.09C18.35 66.74 5.11 86.59 7.8 91s11.2 17.16 36.61 29.35c-.94 3.68-3.22 4.79-3.22 4.79-8.6-3.85-38.88-21.38-41-31.31S21 44.9 21 44.9s5.47 6.53 1.41 14.19z" class="fill-white-shadow"></path>
            <path d="M25 44.5l2.11-3.71S34.48 40.47 43 47l-3 5.3c-5-3.88-9.23-7.37-15-7.8z" class="fill-white"></path>
            <path d="M24 10.9c1.94-6.92 12-6.3 12-6.3-.77-1.15-3.25-1.28-3.25-1.28a5.28 5.28 0 016.39.86A4.62 4.62 0 0036 .15a2.84 2.84 0 01.49-.1c4 .68 3.92 4.54 5.12 4.87 1.41.39 2.79 3 2.79 3l-2.82-1.37c1.49 1.09 0 3.41 0 3.41S39.7 6.08 40 10s-.62 3-2.17 9.46c-.7 2.93-.21 4.54.55 5.45a2.5 2.5 0 01-2.52-1.54l-.36-.87a3.91 3.91 0 00-.9-1.6 2.39 2.39 0 00-2.75-.6c-.72.34-1.36 1.08-1.05 2.68a3.92 3.92 0 003.83 3.18c.57 4.87-5.37 8.35-5.37 8.35-.43-3.85-4.29-8-4.29-8C15.8 14.26 24 10.9 24 10.9z" class="fill-hair-shadow"></path>
            <path d="M97.49 305.61A24.38 24.38 0 0192 306a114 114 0 01-13.94-2.24 5.48 5.48 0 00-3.2.28l-.72.29a37.13 37.13 0 01-6.7-.81 2.26 2.26 0 01-1.8-2.51l.08-.6c5.71 1.16 19.43 3.94 25 4.65 7 .9 9-1.21 9-1.21.98.31.11 1.05-2.23 1.76zM22.83 298.63c-3.12-.83-10-8.1-10.78-13.19 0 0-.57-5.45-2.68-5.64a14.28 14.28 0 01-1.74-5.8 3.85 3.85 0 012.23-4l.49-.23c.8 10.09 3.65 17.71 7.09 22.87 3.7 5.56 7.74 5.45 7.74 5.45.09.15.55 1.31-2.35.54z" class="fill-color-1"></path>
        </g>
    </g>
</svg></svg><style>.class-mqobjh6w1 .fill-skin {
  fill: #f1d9b1;
}
.class-mqobjh6w1 .fill-skin-shadow {
  fill: #ebc78d;
}
.class-mqobjh6w1 .fill-hair {
  fill: #8a9475;
}
.class-mqobjh6w1 .fill-hair-shadow {
  fill: #7c8668;
}
.class-mqobjh6w1 .fill-white {
  fill: #fbfcfb;
}
.class-mqobjh6w1 .fill-white-shadow {
  fill: #dee6de;
}
.class-mqobjh6w1 .fill-white-shadow-extra {
  fill: #c4d2c4;
}
.class-mqobjh6w1 .stop-color-white {
  stop-color: #fbfcfb;
}
.class-mqobjh6w1 .stop-color-white-shadow {
  stop-color: #dee6de;
}
.class-mqobjh6w1 .stop-color-white-shadow-extra {
  stop-color: #c4d2c4;
}
.class-mqobjh6w1 .stroke-white {
  stroke: #fbfcfb;
}
.class-mqobjh6w1 .stroke-white-shadow {
  stroke: #dee6de;
}
.class-mqobjh6w1 .stroke-white-shadow-extra {
  stroke: #b4c6b4;
}
.class-mqobjh6w1 .fill-yellow {
  fill: #eaea00;
}
.class-mqobjh6w1 .fill-yellow-shadow {
  fill: #dada00;
}
.class-mqobjh6w1 .fill-yellow-shadow-extra {
  fill: #cbcb00;
}
.class-mqobjh6w1 .stop-color-yellow {
  stop-color: #eaea00;
}
.class-mqobjh6w1 .stop-color-yellow-shadow {
  stop-color: #dada00;
}
.class-mqobjh6w1 .stop-color-yellow-shadow-extra {
  stop-color: #cbcb00;
}
.class-mqobjh6w1 .fill-green {
  fill: #2ba24c;
}
.class-mqobjh6w1 .fill-green-shadow {
  fill: #279244;
}
.class-mqobjh6w1 .fill-green-shadow-extra {
  fill: #23833d;
}
.class-mqobjh6w1 .stop-color-green {
  stop-color: #2ba24c;
}
.class-mqobjh6w1 .stop-color-green-shadow {
  stop-color: #279244;
}
.class-mqobjh6w1 .stop-color-green-shadow-extra {
  stop-color: #23833d;
}
.class-mqobjh6w1 .stroke-green {
  stroke: #2ba24c;
}
.class-mqobjh6w1 .stroke-green-shadow {
  stroke: #279244;
}
.class-mqobjh6w1 .stroke-green-shadow-extra {
  stroke: #217a39;
}
.class-mqobjh6w1 .fill-red {
  fill: #ce3827;
}
.class-mqobjh6w1 .fill-red-shadow {
  fill: #b93223;
}
.class-mqobjh6w1 .fill-red-shadow-extra {
  fill: #a62d1f;
}
.class-mqobjh6w1 .stop-color-red {
  stop-color: #ce3827;
}
.class-mqobjh6w1 .stop-color-red-shadow {
  stop-color: #b93223;
}
.class-mqobjh6w1 .stop-color-red-shadow-extra {
  stop-color: #a62d1f;
}
.class-mqobjh6w1 .fill-orange {
  fill: #f09c25;
}
.class-mqobjh6w1 .fill-orange-shadow {
  fill: #e98f10;
}
.class-mqobjh6w1 .fill-orange-shadow-extra {
  fill: #d1800e;
}
.class-mqobjh6w1 .stop-color-orange {
  stop-color: #f09c25;
}
.class-mqobjh6w1 .stop-color-orange-shadow {
  stop-color: #e98f10;
}
.class-mqobjh6w1 .stop-color-orange-shadow-extra {
  stop-color: #d1800e;
}
.class-mqobjh6w1 .fill-blue {
  fill: #3b7ded;
}
.class-mqobjh6w1 .fill-blue-shadow {
  fill: #1f6bea;
}
.class-mqobjh6w1 .fill-blue-shadow-extra {
  fill: #145eda;
}
.class-mqobjh6w1 .stop-color-blue {
  stop-color: #3b7ded;
}
.class-mqobjh6w1 .stop-color-blue-shadow {
  stop-color: #1f6bea;
}
.class-mqobjh6w1 .stop-color-blue-shadow-extra {
  stop-color: #145eda;
}
.class-mqobjh6w1 .fill-color-0 {
  fill: #8a9475;
}
.class-mqobjh6w1 .fill-color-0-shadow {
  fill: #7c8668;
}
.class-mqobjh6w1 .fill-color-0-shadow-extra {
  fill: #687057;
}
.class-mqobjh6w1 .stop-color-color-0 {
  stop-color: #8a9475;
}
.class-mqobjh6w1 .fill-color-1 {
  fill: #3c473b;
}
.class-mqobjh6w1 .fill-color-1-shadow {
  fill: #364035;
}
.class-mqobjh6w1 .fill-color-1-shadow-extra {
  fill: #2d362c;
}
.class-mqobjh6w1 .fill-body-detail {
  fill: #ffffff;
}
.class-mqobjh6w1 .stroke-color-0 {
  stroke: #8a9475;
}
.class-mqobjh6w1 .stroke-color-0-shadow {
  stroke: #7c8668;
}
.class-mqobjh6w1 .stroke-color-0-shadow-extra {
  stroke: #687057;
}
.class-mqobjh6w1 .stroke-color-1 {
  stroke: #3c473b;
}
.class-mqobjh6w1 .stroke-color-1-shadow {
  stroke: #364035;
}
.class-mqobjh6w1 .stroke-color-1-shadow-extra {
  stroke: #2d362c;
}</style></svg></g><g transform="matrix(1.7358342591987455,0,0,1.7358342591987455,131.923450923105,154.4198153951715)"><svg xmlns="http://www.w3.org/2000/svg" version="1.1" xmlns:xlink="http://www.w3.org/1999/xlink" xmlns:svgjs="http://svgjs.com/svgjs" width="54.96" height="54.96"><svg xmlns="http://www.w3.org/2000/svg" version="1.1" xmlns:xlink="http://www.w3.org/1999/xlink" xmlns:svgjs="http://svgjs.com/svgjs" width="54.96" height="54.96" class="class-8neb7pfvl"><svg xmlns="http://www.w3.org/2000/svg" viewBox="0 0 54.96 54.96" class="class-8neb7pfvl">
    <g data-name="Layer 2">
        <g data-name="Layer 1">
            <circle cx="27.42" cy="28" r="20" class="fill-white"></circle>
            <path d="M18.48 37.13h18s4.73 0 4.73-4.74v-9.82s0-4.74-4.73-4.74h-18s-4.74 0-4.74 4.74v9.82s0 4.74 4.74 4.74zm5.34-14.92l9 5.28-9 5.29z" fill="none"></path>
            <path d="M23.82 22.21v10.57l9-5.28-9-5.29z" class="fill-color-0"></path>
            <path d="M27.48 55A27.48 27.48 0 100 27.48 27.48 27.48 0 0027.48 55zM13.74 22.57c0-4.74 4.74-4.74 4.74-4.74h18c4.73 0 4.73 4.74 4.73 4.74v9.82c0 4.74-4.73 4.74-4.73 4.74h-18c-4.74 0-4.74-4.74-4.74-4.74z" class="fill-color-0"></path>
        </g>
    </g>
</svg></svg><style>.class-8neb7pfvl .fill-skin {
  fill: #f1d9b1;
}
.class-8neb7pfvl .fill-skin-shadow {
  fill: #ebc78d;
}
.class-8neb7pfvl .fill-hair {
  fill: #fbfcfb;
}
.class-8neb7pfvl .fill-hair-shadow {
  fill: #dee6de;
}
.class-8neb7pfvl .fill-white {
  fill: #fbfcfb;
}
.class-8neb7pfvl .fill-white-shadow {
  fill: #dee6de;
}
.class-8neb7pfvl .fill-white-shadow-extra {
  fill: #c4d2c4;
}
.class-8neb7pfvl .stop-color-white {
  stop-color: #fbfcfb;
}
.class-8neb7pfvl .stop-color-white-shadow {
  stop-color: #dee6de;
}
.class-8neb7pfvl .stop-color-white-shadow-extra {
  stop-color: #c4d2c4;
}
.class-8neb7pfvl .stroke-white {
  stroke: #fbfcfb;
}
.class-8neb7pfvl .stroke-white-shadow {
  stroke: #dee6de;
}
.class-8neb7pfvl .stroke-white-shadow-extra {
  stroke: #b4c6b4;
}
.class-8neb7pfvl .fill-yellow {
  fill: #eaea00;
}
.class-8neb7pfvl .fill-yellow-shadow {
  fill: #dada00;
}
.class-8neb7pfvl .fill-yellow-shadow-extra {
  fill: #cbcb00;
}
.class-8neb7pfvl .stop-color-yellow {
  stop-color: #eaea00;
}
.class-8neb7pfvl .stop-color-yellow-shadow {
  stop-color: #dada00;
}
.class-8neb7pfvl .stop-color-yellow-shadow-extra {
  stop-color: #cbcb00;
}
.class-8neb7pfvl .fill-green {
  fill: #2ba24c;
}
.class-8neb7pfvl .fill-green-shadow {
  fill: #279244;
}
.class-8neb7pfvl .fill-green-shadow-extra {
  fill: #23833d;
}
.class-8neb7pfvl .stop-color-green {
  stop-color: #2ba24c;
}
.class-8neb7pfvl .stop-color-green-shadow {
  stop-color: #279244;
}
.class-8neb7pfvl .stop-color-green-shadow-extra {
  stop-color: #23833d;
}
.class-8neb7pfvl .stroke-green {
  stroke: #2ba24c;
}
.class-8neb7pfvl .stroke-green-shadow {
  stroke: #279244;
}
.class-8neb7pfvl .stroke-green-shadow-extra {
  stroke: #217a39;
}
.class-8neb7pfvl .fill-red {
  fill: #ce3827;
}
.class-8neb7pfvl .fill-red-shadow {
  fill: #b93223;
}
.class-8neb7pfvl .fill-red-shadow-extra {
  fill: #a62d1f;
}
.class-8neb7pfvl .stop-color-red {
  stop-color: #ce3827;
}
.class-8neb7pfvl .stop-color-red-shadow {
  stop-color: #b93223;
}
.class-8neb7pfvl .stop-color-red-shadow-extra {
  stop-color: #a62d1f;
}
.class-8neb7pfvl .fill-orange {
  fill: #f09c25;
}
.class-8neb7pfvl .fill-orange-shadow {
  fill: #e98f10;
}
.class-8neb7pfvl .fill-orange-shadow-extra {
  fill: #d1800e;
}
.class-8neb7pfvl .stop-color-orange {
  stop-color: #f09c25;
}
.class-8neb7pfvl .stop-color-orange-shadow {
  stop-color: #e98f10;
}
.class-8neb7pfvl .stop-color-orange-shadow-extra {
  stop-color: #d1800e;
}
.class-8neb7pfvl .fill-blue {
  fill: #3b7ded;
}
.class-8neb7pfvl .fill-blue-shadow {
  fill: #1f6bea;
}
.class-8neb7pfvl .fill-blue-shadow-extra {
  fill: #145eda;
}
.class-8neb7pfvl .stop-color-blue {
  stop-color: #3b7ded;
}
.class-8neb7pfvl .stop-color-blue-shadow {
  stop-color: #1f6bea;
}
.class-8neb7pfvl .stop-color-blue-shadow-extra {
  stop-color: #145eda;
}
.class-8neb7pfvl .fill-color-0 {
  fill: #fbfcfb;
}
.class-8neb7pfvl .fill-color-0-shadow {
  fill: #dee6de;
}
.class-8neb7pfvl .fill-color-0-shadow-extra {
  fill: #b4c6b4;
}
.class-8neb7pfvl .stop-color-color-0 {
  stop-color: #fbfcfb;
}
.class-8neb7pfvl .fill-body-detail {
  fill: #ffffff;
}
.class-8neb7pfvl .stroke-color-0 {
  stroke: #fbfcfb;
}
.class-8neb7pfvl .stroke-color-0-shadow {
  stroke: #dee6de;
}
.class-8neb7pfvl .stroke-color-0-shadow-extra {
  stroke: #b4c6b4;
}</style></svg></g><g transform="matrix(0.8517463300959202,0,0,0.8517463300959202,79.84839909521003,310.6802623946213)"><svg xmlns="http://www.w3.org/2000/svg" version="1.1" xmlns:xlink="http://www.w3.org/1999/xlink" xmlns:svgjs="http://svgjs.com/svgjs" width="54.96" height="54.96"><svg xmlns="http://www.w3.org/2000/svg" version="1.1" xmlns:xlink="http://www.w3.org/1999/xlink" xmlns:svgjs="http://svgjs.com/svgjs" width="54.96" height="54.96" class="class-eygw6taju"><svg xmlns="http://www.w3.org/2000/svg" viewBox="0 0 54.96 54.96" class="class-eygw6taju">
    <g data-name="Layer 2">
        <g data-name="Layer 1">
            <circle cx="25.88" cy="28" r="20" class="fill-white"></circle>
            <path d="M13.74 37.47A16 16 0 0022.4 40c10.39 0 16.07-8.61 16.07-16.07v-.73a11.55 11.55 0 002.82-2.93 11.35 11.35 0 01-3.24.89 5.67 5.67 0 002.48-3.12 11.62 11.62 0 01-3.59 1.37 5.65 5.65 0 00-9.77 3.86 5.55 5.55 0 00.15 1.29 16 16 0 01-11.64-5.9 5.56 5.56 0 00-.77 2.84 5.66 5.66 0 002.52 4.7 5.66 5.66 0 01-2.56-.71v.07a5.64 5.64 0 004.53 5.54 5.64 5.64 0 01-1.49.2 6.14 6.14 0 01-1.06-.1 5.64 5.64 0 005.27 3.92 11.36 11.36 0 01-7 2.42 11.94 11.94 0 01-1.38-.07z" fill="none"></path>
            <path d="M27.48 55A27.48 27.48 0 100 27.48 27.48 27.48 0 0027.48 55zM16.83 31.21a6.14 6.14 0 001.06.1 5.64 5.64 0 001.49-.2 5.64 5.64 0 01-4.53-5.54v-.07a5.66 5.66 0 002.56.71 5.66 5.66 0 01-2.52-4.7 5.56 5.56 0 01.77-2.84 16 16 0 0011.64 5.9 5.55 5.55 0 01-.15-1.29 5.65 5.65 0 019.77-3.86 11.62 11.62 0 003.59-1.37A5.67 5.67 0 0138 21.17a11.35 11.35 0 003.24-.89 11.55 11.55 0 01-2.82 2.93v.73C38.47 31.4 32.79 40 22.4 40a16 16 0 01-8.66-2.54 11.94 11.94 0 001.35.08 11.36 11.36 0 007-2.42 5.64 5.64 0 01-5.26-3.91z" class="fill-color-0"></path>
        </g>
    </g>
</svg></svg><style>.class-eygw6taju .fill-skin {
  fill: #f1d9b1;
}
.class-eygw6taju .fill-skin-shadow {
  fill: #ebc78d;
}
.class-eygw6taju .fill-hair {
  fill: #3c473b;
}
.class-eygw6taju .fill-hair-shadow {
  fill: #364035;
}
.class-eygw6taju .fill-white {
  fill: #fbfcfb;
}
.class-eygw6taju .fill-white-shadow {
  fill: #dee6de;
}
.class-eygw6taju .fill-white-shadow-extra {
  fill: #c4d2c4;
}
.class-eygw6taju .stop-color-white {
  stop-color: #fbfcfb;
}
.class-eygw6taju .stop-color-white-shadow {
  stop-color: #dee6de;
}
.class-eygw6taju .stop-color-white-shadow-extra {
  stop-color: #c4d2c4;
}
.class-eygw6taju .stroke-white {
  stroke: #fbfcfb;
}
.class-eygw6taju .stroke-white-shadow {
  stroke: #dee6de;
}
.class-eygw6taju .stroke-white-shadow-extra {
  stroke: #b4c6b4;
}
.class-eygw6taju .fill-yellow {
  fill: #eaea00;
}
.class-eygw6taju .fill-yellow-shadow {
  fill: #dada00;
}
.class-eygw6taju .fill-yellow-shadow-extra {
  fill: #cbcb00;
}
.class-eygw6taju .stop-color-yellow {
  stop-color: #eaea00;
}
.class-eygw6taju .stop-color-yellow-shadow {
  stop-color: #dada00;
}
.class-eygw6taju .stop-color-yellow-shadow-extra {
  stop-color: #cbcb00;
}
.class-eygw6taju .fill-green {
  fill: #2ba24c;
}
.class-eygw6taju .fill-green-shadow {
  fill: #279244;
}
.class-eygw6taju .fill-green-shadow-extra {
  fill: #23833d;
}
.class-eygw6taju .stop-color-green {
  stop-color: #2ba24c;
}
.class-eygw6taju .stop-color-green-shadow {
  stop-color: #279244;
}
.class-eygw6taju .stop-color-green-shadow-extra {
  stop-color: #23833d;
}
.class-eygw6taju .stroke-green {
  stroke: #2ba24c;
}
.class-eygw6taju .stroke-green-shadow {
  stroke: #279244;
}
.class-eygw6taju .stroke-green-shadow-extra {
  stroke: #217a39;
}
.class-eygw6taju .fill-red {
  fill: #ce3827;
}
.class-eygw6taju .fill-red-shadow {
  fill: #b93223;
}
.class-eygw6taju .fill-red-shadow-extra {
  fill: #a62d1f;
}
.class-eygw6taju .stop-color-red {
  stop-color: #ce3827;
}
.class-eygw6taju .stop-color-red-shadow {
  stop-color: #b93223;
}
.class-eygw6taju .stop-color-red-shadow-extra {
  stop-color: #a62d1f;
}
.class-eygw6taju .fill-orange {
  fill: #f09c25;
}
.class-eygw6taju .fill-orange-shadow {
  fill: #e98f10;
}
.class-eygw6taju .fill-orange-shadow-extra {
  fill: #d1800e;
}
.class-eygw6taju .stop-color-orange {
  stop-color: #f09c25;
}
.class-eygw6taju .stop-color-orange-shadow {
  stop-color: #e98f10;
}
.class-eygw6taju .stop-color-orange-shadow-extra {
  stop-color: #d1800e;
}
.class-eygw6taju .fill-blue {
  fill: #3b7ded;
}
.class-eygw6taju .fill-blue-shadow {
  fill: #1f6bea;
}
.class-eygw6taju .fill-blue-shadow-extra {
  fill: #145eda;
}
.class-eygw6taju .stop-color-blue {
  stop-color: #3b7ded;
}
.class-eygw6taju .stop-color-blue-shadow {
  stop-color: #1f6bea;
}
.class-eygw6taju .stop-color-blue-shadow-extra {
  stop-color: #145eda;
}
.class-eygw6taju .fill-color-0 {
  fill: #3c473b;
}
.class-eygw6taju .fill-color-0-shadow {
  fill: #364035;
}
.class-eygw6taju .fill-color-0-shadow-extra {
  fill: #2d362c;
}
.class-eygw6taju .stop-color-color-0 {
  stop-color: #3c473b;
}
.class-eygw6taju .fill-body-detail {
  fill: #ffffff;
}
.class-eygw6taju .stroke-color-0 {
  stroke: #3c473b;
}
.class-eygw6taju .stroke-color-0-shadow {
  stroke: #364035;
}
.class-eygw6taju .stroke-color-0-shadow-extra {
  stroke: #2d362c;
}</style></svg></g><g transform="matrix(1.0412478867770059,0,0,1.0412478867770059,374.8985515808352,183.9984617420535)"><svg xmlns="http://www.w3.org/2000/svg" version="1.1" xmlns:xlink="http://www.w3.org/1999/xlink" xmlns:svgjs="http://svgjs.com/svgjs" width="54.96" height="54.96"><svg xmlns="http://www.w3.org/2000/svg" version="1.1" xmlns:xlink="http://www.w3.org/1999/xlink" xmlns:svgjs="http://svgjs.com/svgjs" width="54.96" height="54.96" class="class-icctgx3vm"><svg xmlns="http://www.w3.org/2000/svg" viewBox="0 0 54.96 54.96" class="class-icctgx3vm">
    <g data-name="Layer 2">
        <g data-name="Layer 1">
            <circle cx="26.58" cy="29.33" r="20" class="fill-white"></circle>
            <path d="M31.11 18.12a9.61 9.61 0 012.29.34l.71-4.21a17.89 17.89 0 00-5.11-.51 5.06 5.06 0 00-4.41 2.07c-.89 1.16-.92 3-.92 4.26v2.76h-2.82v4.11h2.84v14.28H29V26.94h4.21l.32-4.11H29v-3.21c0-1.11 1-1.5 2.11-1.5z" fill="none"></path>
            <path d="M27.48 0A27.48 27.48 0 1055 27.48 27.48 27.48 0 0027.48 0zm6.07 22.83l-.32 4.11H29v14.28h-5.31V26.94h-2.84v-4.11h2.84v-2.76c0-1.22 0-3.1.92-4.26A5.06 5.06 0 0129 13.74a17.89 17.89 0 015.09.51l-.71 4.21a9.61 9.61 0 00-2.29-.34c-1.1 0-2.09.39-2.09 1.5v3.21z" class="fill-color-0"></path>
        </g>
    </g>
</svg></svg><style>.class-icctgx3vm .fill-skin {
  fill: #f1d9b1;
}
.class-icctgx3vm .fill-skin-shadow {
  fill: #ebc78d;
}
.class-icctgx3vm .fill-hair {
  fill: #b2bcab;
}
.class-icctgx3vm .fill-hair-shadow {
  fill: #9fac97;
}
.class-icctgx3vm .fill-white {
  fill: #fbfcfb;
}
.class-icctgx3vm .fill-white-shadow {
  fill: #dee6de;
}
.class-icctgx3vm .fill-white-shadow-extra {
  fill: #c4d2c4;
}
.class-icctgx3vm .stop-color-white {
  stop-color: #fbfcfb;
}
.class-icctgx3vm .stop-color-white-shadow {
  stop-color: #dee6de;
}
.class-icctgx3vm .stop-color-white-shadow-extra {
  stop-color: #c4d2c4;
}
.class-icctgx3vm .stroke-white {
  stroke: #fbfcfb;
}
.class-icctgx3vm .stroke-white-shadow {
  stroke: #dee6de;
}
.class-icctgx3vm .stroke-white-shadow-extra {
  stroke: #b4c6b4;
}
.class-icctgx3vm .fill-yellow {
  fill: #eaea00;
}
.class-icctgx3vm .fill-yellow-shadow {
  fill: #dada00;
}
.class-icctgx3vm .fill-yellow-shadow-extra {
  fill: #cbcb00;
}
.class-icctgx3vm .stop-color-yellow {
  stop-color: #eaea00;
}
.class-icctgx3vm .stop-color-yellow-shadow {
  stop-color: #dada00;
}
.class-icctgx3vm .stop-color-yellow-shadow-extra {
  stop-color: #cbcb00;
}
.class-icctgx3vm .fill-green {
  fill: #2ba24c;
}
.class-icctgx3vm .fill-green-shadow {
  fill: #279244;
}
.class-icctgx3vm .fill-green-shadow-extra {
  fill: #23833d;
}
.class-icctgx3vm .stop-color-green {
  stop-color: #2ba24c;
}
.class-icctgx3vm .stop-color-green-shadow {
  stop-color: #279244;
}
.class-icctgx3vm .stop-color-green-shadow-extra {
  stop-color: #23833d;
}
.class-icctgx3vm .stroke-green {
  stroke: #2ba24c;
}
.class-icctgx3vm .stroke-green-shadow {
  stroke: #279244;
}
.class-icctgx3vm .stroke-green-shadow-extra {
  stroke: #217a39;
}
.class-icctgx3vm .fill-red {
  fill: #ce3827;
}
.class-icctgx3vm .fill-red-shadow {
  fill: #b93223;
}
.class-icctgx3vm .fill-red-shadow-extra {
  fill: #a62d1f;
}
.class-icctgx3vm .stop-color-red {
  stop-color: #ce3827;
}
.class-icctgx3vm .stop-color-red-shadow {
  stop-color: #b93223;
}
.class-icctgx3vm .stop-color-red-shadow-extra {
  stop-color: #a62d1f;
}
.class-icctgx3vm .fill-orange {
  fill: #f09c25;
}
.class-icctgx3vm .fill-orange-shadow {
  fill: #e98f10;
}
.class-icctgx3vm .fill-orange-shadow-extra {
  fill: #d1800e;
}
.class-icctgx3vm .stop-color-orange {
  stop-color: #f09c25;
}
.class-icctgx3vm .stop-color-orange-shadow {
  stop-color: #e98f10;
}
.class-icctgx3vm .stop-color-orange-shadow-extra {
  stop-color: #d1800e;
}
.class-icctgx3vm .fill-blue {
  fill: #3b7ded;
}
.class-icctgx3vm .fill-blue-shadow {
  fill: #1f6bea;
}
.class-icctgx3vm .fill-blue-shadow-extra {
  fill: #145eda;
}
.class-icctgx3vm .stop-color-blue {
  stop-color: #3b7ded;
}
.class-icctgx3vm .stop-color-blue-shadow {
  stop-color: #1f6bea;
}
.class-icctgx3vm .stop-color-blue-shadow-extra {
  stop-color: #145eda;
}
.class-icctgx3vm .fill-color-0 {
  fill: #b2bcab;
}
.class-icctgx3vm .fill-color-0-shadow {
  fill: #9fac97;
}
.class-icctgx3vm .fill-color-0-shadow-extra {
  fill: #84957a;
}
.class-icctgx3vm .stop-color-color-0 {
  stop-color: #b2bcab;
}
.class-icctgx3vm .fill-body-detail {
  fill: #ffffff;
}
.class-icctgx3vm .stroke-color-0 {
  stroke: #b2bcab;
}
.class-icctgx3vm .stroke-color-0-shadow {
  stroke: #9fac97;
}
.class-icctgx3vm .stroke-color-0-shadow-extra {
  stroke: #84957a;
}</style></svg></g><g transform="matrix(1.7358342591987455,0,0,1.7358342591987455,36.45256666717404,32.911417251259344)"><svg xmlns="http://www.w3.org/2000/svg" version="1.1" xmlns:xlink="http://www.w3.org/1999/xlink" xmlns:svgjs="http://svgjs.com/svgjs" width="54.96" height="54.96"><svg xmlns="http://www.w3.org/2000/svg" version="1.1" xmlns:xlink="http://www.w3.org/1999/xlink" xmlns:svgjs="http://svgjs.com/svgjs" width="54.96" height="54.96" class="class-nbpztcura"><svg xmlns="http://www.w3.org/2000/svg" viewBox="0 0 54.96 54.96" class="class-nbpztcura">
    <g data-name="Layer 2">
        <g data-name="Layer 1">
            <circle cx="26.58" cy="27.56" r="20" class="fill-white"></circle>
            <path d="M19.06 41.22h16.85a5.32 5.32 0 005.32-5.31V19.05a5.32 5.32 0 00-5.32-5.31H19.06a5.32 5.32 0 00-5.32 5.31v16.86a5.32 5.32 0 005.32 5.31zm18.38-24.31h.61v4.65H33.4v-4.64zm-13.88 7.75a4.84 4.84 0 11-.91 2.82 4.83 4.83 0 01.91-2.82zm-7.14 0h4.1A7.52 7.52 0 1035 27.48a7.35 7.35 0 00-.56-2.82h4.11v11.25a2.64 2.64 0 01-2.64 2.63H19.06a2.64 2.64 0 01-2.64-2.63z" fill="none"></path>
            <path d="M27.48 32.32a4.84 4.84 0 10-4.83-4.84 4.84 4.84 0 004.83 4.84z" class="fill-color-0"></path>
            <path d="M19.06 38.54h16.85a2.64 2.64 0 002.64-2.63V24.66h-4.11a7.35 7.35 0 01.56 2.82 7.52 7.52 0 11-14.48-2.82h-4.1v11.25a2.64 2.64 0 002.64 2.63zM38.05 21.56V16.91h-.61l-4.05.01.01 4.66 4.65-.02z" class="fill-color-0"></path>
            <path d="M27.48 55A27.48 27.48 0 100 27.48 27.48 27.48 0 0027.48 55zM13.74 24.66v-5.61a5.32 5.32 0 015.32-5.31h16.85a5.32 5.32 0 015.32 5.31v16.86a5.32 5.32 0 01-5.32 5.31H19.06a5.32 5.32 0 01-5.32-5.31z" class="fill-color-0"></path>
        </g>
    </g>
</svg></svg><style>.class-nbpztcura .fill-skin {
  fill: #f1d9b1;
}
.class-nbpztcura .fill-skin-shadow {
  fill: #ebc78d;
}
.class-nbpztcura .fill-hair {
  fill: #b2bcab;
}
.class-nbpztcura .fill-hair-shadow {
  fill: #9fac97;
}
.class-nbpztcura .fill-white {
  fill: #fbfcfb;
}
.class-nbpztcura .fill-white-shadow {
  fill: #dee6de;
}
.class-nbpztcura .fill-white-shadow-extra {
  fill: #c4d2c4;
}
.class-nbpztcura .stop-color-white {
  stop-color: #fbfcfb;
}
.class-nbpztcura .stop-color-white-shadow {
  stop-color: #dee6de;
}
.class-nbpztcura .stop-color-white-shadow-extra {
  stop-color: #c4d2c4;
}
.class-nbpztcura .stroke-white {
  stroke: #fbfcfb;
}
.class-nbpztcura .stroke-white-shadow {
  stroke: #dee6de;
}
.class-nbpztcura .stroke-white-shadow-extra {
  stroke: #b4c6b4;
}
.class-nbpztcura .fill-yellow {
  fill: #eaea00;
}
.class-nbpztcura .fill-yellow-shadow {
  fill: #dada00;
}
.class-nbpztcura .fill-yellow-shadow-extra {
  fill: #cbcb00;
}
.class-nbpztcura .stop-color-yellow {
  stop-color: #eaea00;
}
.class-nbpztcura .stop-color-yellow-shadow {
  stop-color: #dada00;
}
.class-nbpztcura .stop-color-yellow-shadow-extra {
  stop-color: #cbcb00;
}
.class-nbpztcura .fill-green {
  fill: #2ba24c;
}
.class-nbpztcura .fill-green-shadow {
  fill: #279244;
}
.class-nbpztcura .fill-green-shadow-extra {
  fill: #23833d;
}
.class-nbpztcura .stop-color-green {
  stop-color: #2ba24c;
}
.class-nbpztcura .stop-color-green-shadow {
  stop-color: #279244;
}
.class-nbpztcura .stop-color-green-shadow-extra {
  stop-color: #23833d;
}
.class-nbpztcura .stroke-green {
  stroke: #2ba24c;
}
.class-nbpztcura .stroke-green-shadow {
  stroke: #279244;
}
.class-nbpztcura .stroke-green-shadow-extra {
  stroke: #217a39;
}
.class-nbpztcura .fill-red {
  fill: #ce3827;
}
.class-nbpztcura .fill-red-shadow {
  fill: #b93223;
}
.class-nbpztcura .fill-red-shadow-extra {
  fill: #a62d1f;
}
.class-nbpztcura .stop-color-red {
  stop-color: #ce3827;
}
.class-nbpztcura .stop-color-red-shadow {
  stop-color: #b93223;
}
.class-nbpztcura .stop-color-red-shadow-extra {
  stop-color: #a62d1f;
}
.class-nbpztcura .fill-orange {
  fill: #f09c25;
}
.class-nbpztcura .fill-orange-shadow {
  fill: #e98f10;
}
.class-nbpztcura .fill-orange-shadow-extra {
  fill: #d1800e;
}
.class-nbpztcura .stop-color-orange {
  stop-color: #f09c25;
}
.class-nbpztcura .stop-color-orange-shadow {
  stop-color: #e98f10;
}
.class-nbpztcura .stop-color-orange-shadow-extra {
  stop-color: #d1800e;
}
.class-nbpztcura .fill-blue {
  fill: #3b7ded;
}
.class-nbpztcura .fill-blue-shadow {
  fill: #1f6bea;
}
.class-nbpztcura .fill-blue-shadow-extra {
  fill: #145eda;
}
.class-nbpztcura .stop-color-blue {
  stop-color: #3b7ded;
}
.class-nbpztcura .stop-color-blue-shadow {
  stop-color: #1f6bea;
}
.class-nbpztcura .stop-color-blue-shadow-extra {
  stop-color: #145eda;
}
.class-nbpztcura .fill-color-0 {
  fill: #b2bcab;
}
.class-nbpztcura .fill-color-0-shadow {
  fill: #9fac97;
}
.class-nbpztcura .fill-color-0-shadow-extra {
  fill: #84957a;
}
.class-nbpztcura .stop-color-color-0 {
  stop-color: #b2bcab;
}
.class-nbpztcura .fill-body-detail {
  fill: #ffffff;
}
.class-nbpztcura .stroke-color-0 {
  stroke: #b2bcab;
}
.class-nbpztcura .stroke-color-0-shadow {
  stroke: #9fac97;
}
.class-nbpztcura .stroke-color-0-shadow-extra {
  stroke: #84957a;
}</style></svg></g></svg>