<?xml version="1.0" standalone="no"?>
<!DOCTYPE svg PUBLIC "-//W3C//DTD SVG 20010904//EN"
 "http://www.w3.org/TR/2001/REC-SVG-20010904/DTD/svg10.dtd">
<svg version="1.0" xmlns="http://www.w3.org/2000/svg"
 width="937.000000pt" height="937.000000pt" viewBox="0 0 937.000000 937.000000"
 preserveAspectRatio="xMidYMid meet">
<metadata>
Created by potrace 1.11, written by Peter Selinger 2001-2013
</metadata>
<g transform="translate(0.000000,937.000000) scale(0.100000,-0.100000)"
fill="#000000" stroke="none">
<path d="M1742 9359 c-255 -30 -479 -156 -622 -349 -102 -137 -167 -297 -189
-463 -8 -54 -11 -1269 -11 -3865 0 -4135 -4 -3867 58 -4045 89 -261 305 -482
558 -574 156 -56 -17 -53 3184 -51 l2945 3 87 27 c233 74 412 208 533 403 83
132 125 259 145 430 14 123 14 7493 0 7625 -6 52 -18 124 -27 160 -76 304
-298 553 -580 651 -161 56 -64 52 -1665 56 l-1478 4 0 -1637 c0 -1344 -2
-1635 -13 -1631 -7 3 -267 159 -578 347 -310 188 -569 344 -575 347 -6 2 -273
-154 -593 -346 -320 -193 -584 -351 -587 -351 -2 0 -5 735 -6 1633 l-3 1632
-255 1 c-140 1 -288 -2 -328 -7z m3673 -3952 c242 -160 599 -493 797 -740 323
-405 466 -723 572 -1272 42 -219 49 -284 50 -450 1 -151 -2 -171 -43 -371
l-43 -211 64 -79 c107 -132 190 -289 283 -528 66 -171 89 -273 89 -396 1 -93
-3 -118 -34 -217 -19 -62 -37 -113 -40 -113 -3 0 -23 50 -44 110 -48 138 -92
192 -199 245 -143 70 -408 114 -567 94 -161 -19 -261 -63 -415 -179 -196 -149
-375 -206 -725 -230 -372 -26 -864 31 -1188 139 -278 92 -480 189 -722 348
-414 271 -667 510 -972 916 -50 67 -96 128 -102 136 -13 17 24 -2 222 -111
252 -139 663 -345 757 -381 366 -139 782 -162 1258 -71 234 45 327 83 463 189
45 36 85 69 88 74 3 5 -106 106 -242 226 -477 420 -752 691 -1153 1135 -303
336 -419 477 -616 745 -128 175 -274 396 -247 375 11 -8 71 -58 134 -111 253
-210 1383 -1053 1786 -1332 l109 -75 -155 156 c-141 143 -288 312 -623 719
-112 136 -687 898 -687 910 0 4 8 -1 18 -9 9 -8 98 -82 197 -163 99 -82 254
-212 345 -290 548 -467 1391 -1143 1655 -1327 85 -59 190 -118 210 -118 14 0
73 147 109 273 62 215 63 558 0 862 -22 109 -88 355 -118 440 -61 176 -182
419 -313 627 -40 65 -73 120 -73 124 0 7 5 3 115 -69z"/>
</g>
</svg>
